<ttFont>
    <TTGlyph name=".notdef" xMin="68" yMin="0" xMax="612" yMax="1365">
      <contour>
        <pt x="68" y="0" on="1"/>
        <pt x="68" y="1365" on="1"/>
        <pt x="612" y="1365" on="1"/>
        <pt x="612" y="0" on="1"/>
      </contour>
      <contour>
        <pt x="136" y="68" on="1"/>
        <pt x="544" y="68" on="1"/>
        <pt x="544" y="1297" on="1"/>
        <pt x="136" y="1297" on="1"/>
      </contour>
    </TTGlyph>
    <TTGlyph name="A" xMin="-17" yMin="-50" xMax="1280" yMax="1562">
      <contour>
        <pt x="764" y="202" on="1"/>
        <pt x="764" y="258" on="0"/>
        <pt x="753" y="343" on="0"/>
        <pt x="737" y="397" on="0"/>
        <pt x="704" y="511" on="0"/>
        <pt x="690" y="565" on="1"/>
        <pt x="689" y="565" on="1"/>
        <pt x="688" y="565" on="1"/>
        <pt x="687" y="565" on="1"/>
        <pt x="686" y="565" on="1"/>
        <pt x="683" y="565" on="1"/>
        <pt x="454" y="564" on="1"/>
        <pt x="448" y="539" on="0"/>
        <pt x="418" y="423" on="0"/>
        <pt x="405" y="363" on="0"/>
        <pt x="392" y="266" on="0"/>
        <pt x="392" y="220" on="1"/>
        <pt x="392" y="91" on="0"/>
        <pt x="465" y="9" on="1"/>
        <pt x="464" y="7" on="0"/>
        <pt x="462" y="-1" on="0"/>
        <pt x="449" y="-22" on="0"/>
        <pt x="433" y="-37" on="0"/>
        <pt x="402" y="-50" on="0"/>
        <pt x="384" y="-50" on="1"/>
        <pt x="356" y="-50" on="0"/>
        <pt x="309" y="-28" on="0"/>
        <pt x="282" y="2" on="0"/>
        <pt x="262" y="33" on="0"/>
        <pt x="258" y="44" on="1"/>
        <pt x="255" y="55" on="1"/>
        <pt x="243" y="43" on="0"/>
        <pt x="203" y="8" on="0"/>
        <pt x="96" y="-50" on="0"/>
        <pt x="53" y="-50" on="1"/>
        <pt x="24" y="-50" on="0"/>
        <pt x="-10" y="-29" on="0"/>
        <pt x="-17" y="-9" on="0"/>
        <pt x="-17" y="2" on="1"/>
        <pt x="-17" y="9" on="1"/>
        <pt x="65" y="74" on="0"/>
        <pt x="151" y="221" on="0"/>
        <pt x="191" y="364" on="1"/>
        <pt x="243" y="547" on="1"/>
        <pt x="182" y="532" on="0"/>
        <pt x="134" y="495" on="1"/>
        <pt x="131" y="495" on="0"/>
        <pt x="122" y="499" on="0"/>
        <pt x="107" y="525" on="0"/>
        <pt x="107" y="546" on="1"/>
        <pt x="107" y="569" on="0"/>
        <pt x="142" y="611" on="0"/>
        <pt x="160" y="620" on="1"/>
        <pt x="177" y="629" on="1"/>
        <pt x="174" y="630" on="0"/>
        <pt x="165" y="635" on="0"/>
        <pt x="141" y="653" on="0"/>
        <pt x="122" y="672" on="0"/>
        <pt x="107" y="702" on="0"/>
        <pt x="107" y="717" on="1"/>
        <pt x="107" y="730" on="0"/>
        <pt x="113" y="751" on="0"/>
        <pt x="120" y="761" on="0"/>
        <pt x="128" y="767" on="0"/>
        <pt x="131" y="768" on="1"/>
        <pt x="134" y="768" on="1"/>
        <pt x="196" y="720" on="0"/>
        <pt x="288" y="707" on="1"/>
        <pt x="404" y="1117" on="1"/>
        <pt x="443" y="1255" on="0"/>
        <pt x="443" y="1325" on="1"/>
        <pt x="443" y="1419" on="0"/>
        <pt x="390" y="1502" on="1"/>
        <pt x="390" y="1506" on="1"/>
        <pt x="390" y="1511" on="0"/>
        <pt x="393" y="1522" on="0"/>
        <pt x="406" y="1540" on="0"/>
        <pt x="428" y="1553" on="0"/>
        <pt x="473" y="1562" on="0"/>
        <pt x="503" y="1562" on="1"/>
        <pt x="527" y="1562" on="0"/>
        <pt x="577" y="1538" on="0"/>
        <pt x="614" y="1504" on="0"/>
        <pt x="644" y="1471" on="0"/>
        <pt x="652" y="1459" on="1"/>
        <pt x="660" y="1447" on="1"/>
        <pt x="662" y="1452" on="0"/>
        <pt x="670" y="1467" on="0"/>
        <pt x="701" y="1507" on="0"/>
        <pt x="740" y="1537" on="0"/>
        <pt x="809" y="1562" on="0"/>
        <pt x="849" y="1562" on="1"/>
        <pt x="877" y="1562" on="0"/>
        <pt x="913" y="1532" on="0"/>
        <pt x="917" y="1517" on="1"/>
        <pt x="921" y="1502" on="1"/>
        <pt x="892" y="1418" on="0"/>
        <pt x="892" y="1314" on="1"/>
        <pt x="892" y="1203" on="0"/>
        <pt x="906" y="1137" on="1"/>
        <pt x="928" y="1035" on="0"/>
        <pt x="983" y="888" on="0"/>
        <pt x="1032" y="820" on="0"/>
        <pt x="1074" y="781" on="0"/>
        <pt x="1099" y="762" on="0"/>
        <pt x="1099" y="752" on="1"/>
        <pt x="1099" y="744" on="0"/>
        <pt x="1083" y="723" on="0"/>
        <pt x="1063" y="700" on="0"/>
        <pt x="1047" y="637" on="0"/>
        <pt x="1047" y="592" on="1"/>
        <pt x="1047" y="423" on="0"/>
        <pt x="1186" y="88" on="0"/>
        <pt x="1280" y="9" on="1"/>
        <pt x="1280" y="5" on="1"/>
        <pt x="1280" y="1" on="0"/>
        <pt x="1277" y="-9" on="0"/>
        <pt x="1272" y="-22" on="0"/>
        <pt x="1259" y="-34" on="0"/>
        <pt x="1240" y="-44" on="0"/>
        <pt x="1208" y="-50" on="0"/>
        <pt x="1188" y="-50" on="1"/>
        <pt x="1157" y="-50" on="0"/>
        <pt x="1091" y="-28" on="0"/>
        <pt x="1042" y="2" on="0"/>
        <pt x="1002" y="33" on="0"/>
        <pt x="992" y="44" on="1"/>
        <pt x="981" y="55" on="1"/>
        <pt x="979" y="51" on="0"/>
        <pt x="972" y="37" on="0"/>
        <pt x="944" y="0" on="0"/>
        <pt x="910" y="-27" on="0"/>
        <pt x="853" y="-50" on="0"/>
        <pt x="820" y="-50" on="1"/>
        <pt x="791" y="-50" on="0"/>
        <pt x="746" y="-38" on="0"/>
        <pt x="722" y="-21" on="0"/>
        <pt x="706" y="-3" on="0"/>
        <pt x="704" y="3" on="1"/>
        <pt x="701" y="9" on="1"/>
        <pt x="764" y="85" on="0"/>
      </contour>
      <contour>
        <pt x="658" y="698" on="1"/>
        <pt x="577" y="1026" on="0"/>
        <pt x="572" y="1054" on="1"/>
        <pt x="530" y="884" on="0"/>
        <pt x="486" y="698" on="1"/>
        <pt x="537" y="698" on="0"/>
        <pt x="596" y="698" on="1"/>
      </contour>
    </TTGlyph>
    <TTGlyph name="A.alt" xMin="5" yMin="-50" xMax="1264" yMax="1562">
      <contour>
        <pt x="620" y="1562" on="1"/>
        <pt x="687" y="1562" on="0"/>
        <pt x="799" y="1509" on="0"/>
        <pt x="829" y="1456" on="1"/>
        <pt x="831" y="1460" on="0"/>
        <pt x="841" y="1475" on="0"/>
        <pt x="875" y="1511" on="0"/>
        <pt x="914" y="1539" on="0"/>
        <pt x="978" y="1562" on="0"/>
        <pt x="1012" y="1562" on="1"/>
        <pt x="1056" y="1562" on="0"/>
        <pt x="1112" y="1532" on="0"/>
        <pt x="1118" y="1518" on="1"/>
        <pt x="1124" y="1503" on="1"/>
        <pt x="1030" y="1395" on="0"/>
        <pt x="1030" y="1263" on="1"/>
        <pt x="1030" y="1256" on="0"/>
        <pt x="1030" y="1226" on="0"/>
        <pt x="1030" y="1218" on="1"/>
        <pt x="1030" y="1199" on="0"/>
        <pt x="1031" y="1165" on="0"/>
        <pt x="1032" y="1148" on="1"/>
        <pt x="1040" y="1041" on="0"/>
        <pt x="1070" y="890" on="0"/>
        <pt x="1101" y="823" on="0"/>
        <pt x="1130" y="785" on="0"/>
        <pt x="1149" y="766" on="0"/>
        <pt x="1149" y="754" on="1"/>
        <pt x="1149" y="747" on="0"/>
        <pt x="1129" y="720" on="0"/>
        <pt x="1105" y="683" on="0"/>
        <pt x="1085" y="582" on="0"/>
        <pt x="1085" y="510" on="1"/>
        <pt x="1085" y="481" on="0"/>
        <pt x="1093" y="375" on="1"/>
        <pt x="1110" y="232" on="0"/>
        <pt x="1184" y="77" on="0"/>
        <pt x="1264" y="10" on="1"/>
        <pt x="1264" y="8" on="0"/>
        <pt x="1263" y="-1" on="0"/>
        <pt x="1253" y="-21" on="0"/>
        <pt x="1235" y="-37" on="0"/>
        <pt x="1195" y="-50" on="0"/>
        <pt x="1168" y="-50" on="1"/>
        <pt x="1125" y="-50" on="0"/>
        <pt x="1041" y="-7" on="0"/>
        <pt x="1021" y="14" on="1"/>
        <pt x="1001" y="35" on="1"/>
        <pt x="999" y="32" on="0"/>
        <pt x="990" y="20" on="0"/>
        <pt x="960" y="-9" on="0"/>
        <pt x="924" y="-32" on="0"/>
        <pt x="866" y="-50" on="0"/>
        <pt x="834" y="-50" on="1"/>
        <pt x="806" y="-50" on="0"/>
        <pt x="762" y="-38" on="0"/>
        <pt x="740" y="-20" on="0"/>
        <pt x="725" y="-2" on="0"/>
        <pt x="724" y="4" on="1"/>
        <pt x="722" y="10" on="1"/>
        <pt x="780" y="117" on="0"/>
        <pt x="780" y="257" on="1"/>
        <pt x="780" y="468" on="0"/>
        <pt x="739" y="610" on="1"/>
        <pt x="707" y="640" on="0"/>
        <pt x="619" y="640" on="1"/>
        <pt x="542" y="640" on="0"/>
        <pt x="510" y="610" on="1"/>
        <pt x="469" y="468" on="0"/>
        <pt x="469" y="257" on="1"/>
        <pt x="469" y="114" on="0"/>
        <pt x="527" y="10" on="1"/>
        <pt x="527" y="8" on="0"/>
        <pt x="524" y="-1" on="0"/>
        <pt x="509" y="-21" on="0"/>
        <pt x="487" y="-37" on="0"/>
        <pt x="443" y="-50" on="0"/>
        <pt x="415" y="-50" on="1"/>
        <pt x="371" y="-50" on="0"/>
        <pt x="297" y="-7" on="0"/>
        <pt x="282" y="14" on="1"/>
        <pt x="268" y="35" on="1"/>
        <pt x="265" y="32" on="0"/>
        <pt x="255" y="20" on="0"/>
        <pt x="220" y="-9" on="0"/>
        <pt x="183" y="-32" on="0"/>
        <pt x="128" y="-50" on="0"/>
        <pt x="74" y="-50" on="0"/>
        <pt x="34" y="-38" on="0"/>
        <pt x="16" y="-20" on="0"/>
        <pt x="6" y="-2" on="0"/>
        <pt x="6" y="4" on="1"/>
        <pt x="5" y="10" on="1"/>
        <pt x="85" y="77" on="0"/>
        <pt x="159" y="232" on="0"/>
        <pt x="176" y="375" on="1"/>
        <pt x="184" y="428" on="0"/>
        <pt x="184" y="510" on="1"/>
        <pt x="184" y="582" on="0"/>
        <pt x="164" y="683" on="0"/>
        <pt x="140" y="720" on="0"/>
        <pt x="120" y="747" on="0"/>
        <pt x="120" y="754" on="1"/>
        <pt x="120" y="766" on="0"/>
        <pt x="139" y="785" on="0"/>
        <pt x="168" y="823" on="0"/>
        <pt x="199" y="890" on="0"/>
        <pt x="229" y="1041" on="0"/>
        <pt x="237" y="1148" on="1"/>
        <pt x="239" y="1178" on="0"/>
        <pt x="239" y="1218" on="1"/>
        <pt x="239" y="1226" on="0"/>
        <pt x="239" y="1256" on="0"/>
        <pt x="239" y="1263" on="1"/>
        <pt x="239" y="1395" on="0"/>
        <pt x="145" y="1503" on="1"/>
        <pt x="145" y="1505" on="0"/>
        <pt x="148" y="1513" on="0"/>
        <pt x="163" y="1534" on="0"/>
        <pt x="185" y="1549" on="0"/>
        <pt x="229" y="1562" on="0"/>
        <pt x="257" y="1562" on="1"/>
        <pt x="288" y="1562" on="0"/>
        <pt x="344" y="1540" on="0"/>
        <pt x="380" y="1509" on="0"/>
        <pt x="408" y="1478" on="0"/>
        <pt x="414" y="1467" on="1"/>
        <pt x="420" y="1456" on="1"/>
        <pt x="450" y="1509" on="0"/>
        <pt x="558" y="1562" on="0"/>
      </contour>
      <contour>
        <pt x="619" y="790" on="1"/>
        <pt x="658" y="790" on="0"/>
        <pt x="714" y="804" on="0"/>
        <pt x="714" y="817" on="1"/>
        <pt x="714" y="827" on="0"/>
        <pt x="714" y="850" on="0"/>
        <pt x="714" y="868" on="0"/>
        <pt x="714" y="890" on="0"/>
        <pt x="714" y="898" on="1"/>
        <pt x="714" y="1027" on="0"/>
        <pt x="706" y="1198" on="0"/>
        <pt x="693" y="1302" on="1"/>
        <pt x="686" y="1341" on="0"/>
        <pt x="659" y="1372" on="0"/>
        <pt x="587" y="1372" on="0"/>
        <pt x="564" y="1342" on="0"/>
        <pt x="556" y="1302" on="1"/>
        <pt x="543" y="1198" on="0"/>
        <pt x="535" y="1027" on="0"/>
        <pt x="535" y="898" on="1"/>
        <pt x="535" y="886" on="0"/>
        <pt x="535" y="832" on="0"/>
        <pt x="535" y="817" on="1"/>
        <pt x="535" y="804" on="0"/>
        <pt x="585" y="790" on="0"/>
      </contour>
    </TTGlyph>
    <TTGlyph name="AE" xMin="47" yMin="-74" xMax="1737" yMax="1562">
      <contour>
        <pt x="888" y="1562" on="1"/>
        <pt x="938" y="1562" on="0"/>
        <pt x="1018" y="1503" on="0"/>
        <pt x="1039" y="1448" on="1"/>
        <pt x="1043" y="1453" on="1"/>
        <pt x="1047" y="1458" on="0"/>
        <pt x="1055" y="1468" on="0"/>
        <pt x="1071" y="1484" on="0"/>
        <pt x="1087" y="1499" on="0"/>
        <pt x="1110" y="1517" on="0"/>
        <pt x="1134" y="1532" on="0"/>
        <pt x="1164" y="1546" on="0"/>
        <pt x="1195" y="1556" on="0"/>
        <pt x="1231" y="1562" on="0"/>
        <pt x="1250" y="1562" on="1"/>
        <pt x="1313" y="1562" on="0"/>
        <pt x="1448" y="1513" on="0"/>
        <pt x="1487" y="1466" on="1"/>
        <pt x="1490" y="1470" on="0"/>
        <pt x="1500" y="1483" on="0"/>
        <pt x="1533" y="1516" on="0"/>
        <pt x="1570" y="1541" on="0"/>
        <pt x="1628" y="1562" on="0"/>
        <pt x="1657" y="1562" on="1"/>
        <pt x="1690" y="1562" on="0"/>
        <pt x="1730" y="1539" on="0"/>
        <pt x="1733" y="1528" on="1"/>
        <pt x="1736" y="1516" on="1"/>
        <pt x="1686" y="1478" on="0"/>
        <pt x="1645" y="1382" on="0"/>
        <pt x="1645" y="1312" on="1"/>
        <pt x="1645" y="1188" on="0"/>
        <pt x="1726" y="1127" on="1"/>
        <pt x="1725" y="1123" on="0"/>
        <pt x="1720" y="1110" on="0"/>
        <pt x="1685" y="1088" on="0"/>
        <pt x="1656" y="1088" on="1"/>
        <pt x="1620" y="1088" on="0"/>
        <pt x="1554" y="1116" on="0"/>
        <pt x="1539" y="1130" on="1"/>
        <pt x="1524" y="1145" on="1"/>
        <pt x="1518" y="1139" on="0"/>
        <pt x="1497" y="1120" on="0"/>
        <pt x="1429" y="1088" on="0"/>
        <pt x="1393" y="1088" on="1"/>
        <pt x="1364" y="1088" on="0"/>
        <pt x="1328" y="1108" on="0"/>
        <pt x="1325" y="1118" on="1"/>
        <pt x="1322" y="1127" on="1"/>
        <pt x="1393" y="1191" on="0"/>
        <pt x="1393" y="1277" on="1"/>
        <pt x="1393" y="1372" on="0"/>
        <pt x="1177" y="1372" on="0"/>
        <pt x="1177" y="1294" on="1"/>
        <pt x="1200" y="847" on="1"/>
        <pt x="1318" y="847" on="0"/>
        <pt x="1454" y="872" on="0"/>
        <pt x="1505" y="905" on="1"/>
        <pt x="1508" y="905" on="0"/>
        <pt x="1517" y="901" on="0"/>
        <pt x="1532" y="876" on="0"/>
        <pt x="1532" y="855" on="1"/>
        <pt x="1532" y="827" on="0"/>
        <pt x="1512" y="775" on="0"/>
        <pt x="1502" y="764" on="1"/>
        <pt x="1492" y="752" on="1"/>
        <pt x="1496" y="748" on="0"/>
        <pt x="1510" y="734" on="0"/>
        <pt x="1532" y="686" on="0"/>
        <pt x="1532" y="661" on="1"/>
        <pt x="1532" y="640" on="0"/>
        <pt x="1518" y="614" on="0"/>
        <pt x="1512" y="612" on="1"/>
        <pt x="1505" y="610" on="1"/>
        <pt x="1453" y="642" on="0"/>
        <pt x="1316" y="669" on="0"/>
        <pt x="1200" y="669" on="1"/>
        <pt x="1176" y="206" on="1"/>
        <pt x="1176" y="176" on="0"/>
        <pt x="1195" y="137" on="0"/>
        <pt x="1231" y="121" on="0"/>
        <pt x="1257" y="117" on="0"/>
        <pt x="1275" y="117" on="1"/>
        <pt x="1336" y="117" on="0"/>
        <pt x="1394" y="186" on="0"/>
        <pt x="1394" y="237" on="1"/>
        <pt x="1394" y="326" on="0"/>
        <pt x="1323" y="395" on="1"/>
        <pt x="1324" y="399" on="0"/>
        <pt x="1329" y="413" on="0"/>
        <pt x="1365" y="435" on="0"/>
        <pt x="1394" y="435" on="1"/>
        <pt x="1430" y="435" on="0"/>
        <pt x="1496" y="406" on="0"/>
        <pt x="1510" y="392" on="1"/>
        <pt x="1525" y="377" on="1"/>
        <pt x="1531" y="383" on="0"/>
        <pt x="1552" y="403" on="0"/>
        <pt x="1621" y="435" on="0"/>
        <pt x="1657" y="435" on="1"/>
        <pt x="1686" y="435" on="0"/>
        <pt x="1721" y="415" on="0"/>
        <pt x="1724" y="405" on="1"/>
        <pt x="1727" y="395" on="1"/>
        <pt x="1646" y="331" on="0"/>
        <pt x="1646" y="199" on="1"/>
        <pt x="1646" y="121" on="0"/>
        <pt x="1687" y="12" on="0"/>
        <pt x="1737" y="-30" on="1"/>
        <pt x="1737" y="-32" on="0"/>
        <pt x="1736" y="-38" on="0"/>
        <pt x="1726" y="-53" on="0"/>
        <pt x="1711" y="-64" on="0"/>
        <pt x="1679" y="-74" on="0"/>
        <pt x="1658" y="-74" on="1"/>
        <pt x="1629" y="-74" on="0"/>
        <pt x="1572" y="-54" on="0"/>
        <pt x="1533" y="-26" on="0"/>
        <pt x="1503" y="1" on="0"/>
        <pt x="1496" y="11" on="1"/>
        <pt x="1488" y="21" on="1"/>
        <pt x="1449" y="-22" on="0"/>
        <pt x="1327" y="-74" on="0"/>
        <pt x="1264" y="-74" on="1"/>
        <pt x="1147" y="-74" on="0"/>
        <pt x="1090" y="11" on="1"/>
        <pt x="1087" y="8" on="0"/>
        <pt x="1077" y="-4" on="0"/>
        <pt x="1043" y="-33" on="0"/>
        <pt x="1005" y="-56" on="0"/>
        <pt x="945" y="-74" on="0"/>
        <pt x="913" y="-74" on="1"/>
        <pt x="884" y="-74" on="0"/>
        <pt x="842" y="-62" on="0"/>
        <pt x="822" y="-44" on="0"/>
        <pt x="810" y="-26" on="0"/>
        <pt x="809" y="-20" on="1"/>
        <pt x="808" y="-14" on="1"/>
        <pt x="851" y="46" on="0"/>
        <pt x="900" y="169" on="0"/>
        <pt x="911" y="256" on="1"/>
        <pt x="924" y="359" on="0"/>
        <pt x="924" y="449" on="1"/>
        <pt x="924" y="526" on="0"/>
        <pt x="913" y="601" on="1"/>
        <pt x="877" y="640" on="0"/>
        <pt x="771" y="640" on="1"/>
        <pt x="667" y="640" on="0"/>
        <pt x="623" y="602" on="1"/>
        <pt x="564" y="465" on="0"/>
        <pt x="538" y="257" on="1"/>
        <pt x="532" y="209" on="0"/>
        <pt x="532" y="169" on="1"/>
        <pt x="532" y="74" on="0"/>
        <pt x="572" y="-14" on="1"/>
        <pt x="571" y="-16" on="0"/>
        <pt x="567" y="-25" on="0"/>
        <pt x="550" y="-45" on="0"/>
        <pt x="526" y="-61" on="0"/>
        <pt x="480" y="-74" on="0"/>
        <pt x="452" y="-74" on="1"/>
        <pt x="420" y="-74" on="0"/>
        <pt x="364" y="-56" on="0"/>
        <pt x="331" y="-32" on="0"/>
        <pt x="306" y="-7" on="0"/>
        <pt x="301" y="2" on="1"/>
        <pt x="296" y="11" on="1"/>
        <pt x="293" y="8" on="0"/>
        <pt x="282" y="-4" on="0"/>
        <pt x="247" y="-33" on="0"/>
        <pt x="212" y="-56" on="0"/>
        <pt x="160" y="-74" on="0"/>
        <pt x="135" y="-74" on="1"/>
        <pt x="107" y="-74" on="0"/>
        <pt x="68" y="-61" on="0"/>
        <pt x="52" y="-41" on="0"/>
        <pt x="47" y="-26" on="0"/>
        <pt x="47" y="-19" on="1"/>
        <pt x="47" y="-14" on="1"/>
        <pt x="133" y="58" on="0"/>
        <pt x="227" y="223" on="0"/>
        <pt x="264" y="375" on="1"/>
        <pt x="296" y="511" on="0"/>
        <pt x="296" y="604" on="1"/>
        <pt x="296" y="655" on="0"/>
        <pt x="276" y="719" on="0"/>
        <pt x="255" y="746" on="0"/>
        <pt x="255" y="753" on="1"/>
        <pt x="255" y="763" on="0"/>
        <pt x="276" y="782" on="0"/>
        <pt x="310" y="800" on="0"/>
        <pt x="358" y="850" on="0"/>
        <pt x="407" y="921" on="0"/>
        <pt x="463" y="1058" on="0"/>
        <pt x="486" y="1148" on="1"/>
        <pt x="488" y="1161" on="0"/>
        <pt x="499" y="1216" on="0"/>
        <pt x="504" y="1246" on="0"/>
        <pt x="509" y="1290" on="0"/>
        <pt x="509" y="1309" on="1"/>
        <pt x="509" y="1419" on="0"/>
        <pt x="428" y="1503" on="1"/>
        <pt x="429" y="1505" on="0"/>
        <pt x="433" y="1513" on="0"/>
        <pt x="450" y="1534" on="0"/>
        <pt x="474" y="1549" on="0"/>
        <pt x="520" y="1562" on="0"/>
        <pt x="548" y="1562" on="1"/>
        <pt x="582" y="1562" on="0"/>
        <pt x="642" y="1540" on="0"/>
        <pt x="678" y="1509" on="0"/>
        <pt x="704" y="1478" on="0"/>
        <pt x="709" y="1467" on="1"/>
        <pt x="714" y="1456" on="1"/>
        <pt x="744" y="1509" on="0"/>
        <pt x="839" y="1562" on="0"/>
      </contour>
      <contour>
        <pt x="691" y="857" on="1"/>
        <pt x="689" y="854" on="0"/>
        <pt x="689" y="849" on="1"/>
        <pt x="689" y="821" on="0"/>
        <pt x="746" y="790" on="0"/>
        <pt x="789" y="790" on="1"/>
        <pt x="838" y="790" on="0"/>
        <pt x="908" y="825" on="0"/>
        <pt x="908" y="858" on="1"/>
        <pt x="904" y="1005" on="1"/>
        <pt x="900" y="1152" on="0"/>
        <pt x="882" y="1367" on="0"/>
        <pt x="866" y="1367" on="1"/>
        <pt x="856" y="1367" on="0"/>
        <pt x="816" y="1275" on="0"/>
        <pt x="770" y="1131" on="0"/>
        <pt x="730" y="995" on="0"/>
        <pt x="694" y="867" on="0"/>
      </contour>
    </TTGlyph>
    <TTGlyph name="Aacute" xMin="-17" yMin="-50" xMax="1280" yMax="2036">
      <component glyphName="acute" x="491" y="590" flags="0x1004"/>
      <component glyphName="A" x="0" y="0" flags="0x1204"/>
    </TTGlyph>
    <TTGlyph name="Abreve" xMin="-17" yMin="-50" xMax="1280" yMax="1997">
      <component glyphName="breve" x="238" y="582" flags="0x1004"/>
      <component glyphName="A" x="0" y="0" flags="0x1204"/>
    </TTGlyph>
    <TTGlyph name="Acircumflex" xMin="-17" yMin="-50" xMax="1280" yMax="2024">
      <component glyphName="circumflex" x="230" y="589" flags="0x1004"/>
      <component glyphName="A" x="0" y="0" flags="0x1204"/>
    </TTGlyph>
    <TTGlyph name="Adieresis" xMin="-17" yMin="-50" xMax="1280" yMax="1936">
      <component glyphName="dieresis" x="220" y="559" flags="0x1004"/>
      <component glyphName="A" x="0" y="0" flags="0x1204"/>
    </TTGlyph>
    <TTGlyph name="Agrave" xMin="-17" yMin="-50" xMax="1280" yMax="2036">
      <component glyphName="grave" x="162" y="590" flags="0x1004"/>
      <component glyphName="A" x="0" y="0" flags="0x1204"/>
    </TTGlyph>
    <TTGlyph name="Amacron" xMin="-17" yMin="-50" xMax="1280" yMax="1815">
      <component glyphName="macron" x="228" y="504" flags="0x1004"/>
      <component glyphName="A" x="0" y="0" flags="0x1204"/>
    </TTGlyph>
    <TTGlyph name="Aogonek" xMin="-17" yMin="-494" xMax="1280" yMax="1562">
      <component glyphName="ogonek" x="338" y="-60" flags="0x1004"/>
      <component glyphName="A" x="0" y="0" flags="0x1004"/>
    </TTGlyph>
    <TTGlyph name="Aring" xMin="-17" yMin="-50" xMax="1280" yMax="1989">
      <component glyphName="ring" x="336" y="498" flags="0x1004"/>
      <component glyphName="A" x="0" y="0" flags="0x1204"/>
    </TTGlyph>
    <TTGlyph name="Atilde" xMin="-17" yMin="-50" xMax="1280" yMax="1959">
      <component glyphName="tilde" x="192" y="561" flags="0x1004"/>
      <component glyphName="A" x="0" y="0" flags="0x1204"/>
    </TTGlyph>
    <TTGlyph name="B" xMin="58" yMin="-50" xMax="1131" yMax="1563">
      <contour>
        <pt x="888" y="761" on="1"/>
        <pt x="936" y="756" on="0"/>
        <pt x="1012" y="676" on="0"/>
        <pt x="1044" y="595" on="0"/>
        <pt x="1044" y="569" on="1"/>
        <pt x="1044" y="538" on="0"/>
        <pt x="1088" y="463" on="0"/>
        <pt x="1131" y="411" on="0"/>
        <pt x="1131" y="408" on="1"/>
        <pt x="1131" y="401" on="0"/>
        <pt x="1088" y="347" on="0"/>
        <pt x="1044" y="251" on="0"/>
        <pt x="1044" y="193" on="1"/>
        <pt x="1044" y="114" on="0"/>
        <pt x="937" y="2" on="0"/>
        <pt x="769" y="-50" on="0"/>
        <pt x="664" y="-50" on="1"/>
        <pt x="560" y="-50" on="0"/>
        <pt x="398" y="-4" on="0"/>
        <pt x="350" y="65" on="1"/>
        <pt x="347" y="60" on="0"/>
        <pt x="335" y="45" on="0"/>
        <pt x="298" y="5" on="0"/>
        <pt x="257" y="-25" on="0"/>
        <pt x="194" y="-50" on="0"/>
        <pt x="163" y="-50" on="1"/>
        <pt x="131" y="-50" on="0"/>
        <pt x="79" y="-25" on="0"/>
        <pt x="69" y="-12" on="1"/>
        <pt x="59" y="1" on="1"/>
        <pt x="123" y="57" on="0"/>
        <pt x="179" y="241" on="0"/>
        <pt x="179" y="386" on="1"/>
        <pt x="179" y="481" on="0"/>
        <pt x="157" y="621" on="0"/>
        <pt x="125" y="689" on="0"/>
        <pt x="92" y="729" on="0"/>
        <pt x="70" y="748" on="0"/>
        <pt x="70" y="756" on="1"/>
        <pt x="70" y="767" on="0"/>
        <pt x="92" y="787" on="0"/>
        <pt x="125" y="826" on="0"/>
        <pt x="157" y="894" on="0"/>
        <pt x="179" y="1045" on="0"/>
        <pt x="179" y="1151" on="1"/>
        <pt x="179" y="1287" on="0"/>
        <pt x="126" y="1438" on="0"/>
        <pt x="58" y="1503" on="1"/>
        <pt x="58" y="1505" on="0"/>
        <pt x="60" y="1513" on="0"/>
        <pt x="72" y="1534" on="0"/>
        <pt x="92" y="1549" on="0"/>
        <pt x="135" y="1562" on="0"/>
        <pt x="163" y="1562" on="1"/>
        <pt x="215" y="1562" on="0"/>
        <pt x="308" y="1510" on="0"/>
        <pt x="329" y="1484" on="1"/>
        <pt x="350" y="1459" on="1"/>
        <pt x="432" y="1562" on="0"/>
        <pt x="664" y="1562" on="1"/>
        <pt x="741" y="1562" on="0"/>
        <pt x="871" y="1535" on="0"/>
        <pt x="975" y="1480" on="0"/>
        <pt x="1034" y="1386" on="0"/>
        <pt x="1034" y="1323" on="1"/>
        <pt x="1034" y="1284" on="0"/>
        <pt x="1064" y="1212" on="0"/>
        <pt x="1101" y="1171" on="0"/>
        <pt x="1131" y="1136" on="0"/>
        <pt x="1131" y="1130" on="1"/>
        <pt x="1131" y="1127" on="0"/>
        <pt x="1104" y="1104" on="0"/>
        <pt x="1071" y="1072" on="0"/>
        <pt x="1044" y="1003" on="0"/>
        <pt x="1044" y="958" on="1"/>
        <pt x="1044" y="923" on="0"/>
        <pt x="1012" y="839" on="0"/>
        <pt x="937" y="766" on="0"/>
      </contour>
      <contour>
        <pt x="477" y="853" on="1"/>
        <pt x="575" y="853" on="1"/>
        <pt x="625" y="853" on="0"/>
        <pt x="697" y="889" on="0"/>
        <pt x="736" y="941" on="0"/>
        <pt x="758" y="1023" on="0"/>
        <pt x="764" y="1091" on="0"/>
        <pt x="764" y="1137" on="1"/>
        <pt x="764" y="1144" on="0"/>
        <pt x="765" y="1183" on="0"/>
        <pt x="765" y="1196" on="1"/>
        <pt x="765" y="1222" on="0"/>
        <pt x="761" y="1265" on="0"/>
        <pt x="745" y="1316" on="0"/>
        <pt x="719" y="1349" on="0"/>
        <pt x="671" y="1372" on="0"/>
        <pt x="638" y="1372" on="1"/>
        <pt x="600" y="1372" on="0"/>
        <pt x="543" y="1360" on="0"/>
        <pt x="509" y="1333" on="0"/>
        <pt x="488" y="1308" on="0"/>
        <pt x="480" y="1267" on="0"/>
        <pt x="478" y="1241" on="0"/>
        <pt x="478" y="1220" on="1"/>
      </contour>
      <contour>
        <pt x="477" y="682" on="1"/>
        <pt x="478" y="658" on="0"/>
        <pt x="478" y="309" on="1"/>
        <pt x="478" y="279" on="0"/>
        <pt x="481" y="244" on="0"/>
        <pt x="497" y="189" on="0"/>
        <pt x="529" y="158" on="0"/>
        <pt x="593" y="134" on="0"/>
        <pt x="638" y="134" on="1"/>
        <pt x="662" y="134" on="0"/>
        <pt x="701" y="148" on="0"/>
        <pt x="727" y="170" on="0"/>
        <pt x="747" y="204" on="0"/>
        <pt x="757" y="238" on="0"/>
        <pt x="764" y="281" on="0"/>
        <pt x="766" y="316" on="0"/>
        <pt x="766" y="337" on="1"/>
        <pt x="766" y="351" on="0"/>
        <pt x="765" y="393" on="0"/>
        <pt x="765" y="400" on="1"/>
        <pt x="765" y="451" on="0"/>
        <pt x="758" y="521" on="0"/>
        <pt x="729" y="602" on="0"/>
        <pt x="678" y="650" on="0"/>
        <pt x="583" y="683" on="0"/>
        <pt x="516" y="683" on="1"/>
      </contour>
    </TTGlyph>
    <TTGlyph name="C" xMin="39" yMin="-93" xMax="1065" yMax="1586">
      <contour>
        <pt x="456" y="395" on="1"/>
        <pt x="456" y="355" on="0"/>
        <pt x="456" y="314" on="0"/>
        <pt x="459" y="249" on="0"/>
        <pt x="464" y="217" on="0"/>
        <pt x="474" y="170" on="0"/>
        <pt x="488" y="147" on="0"/>
        <pt x="509" y="118" on="0"/>
        <pt x="537" y="106" on="0"/>
        <pt x="575" y="97" on="0"/>
        <pt x="598" y="97" on="1"/>
        <pt x="631" y="97" on="0"/>
        <pt x="674" y="123" on="0"/>
        <pt x="693" y="178" on="0"/>
        <pt x="699" y="231" on="0"/>
        <pt x="699" y="273" on="1"/>
        <pt x="699" y="531" on="0"/>
        <pt x="595" y="545" on="1"/>
        <pt x="595" y="549" on="0"/>
        <pt x="596" y="557" on="0"/>
        <pt x="607" y="579" on="0"/>
        <pt x="627" y="595" on="0"/>
        <pt x="671" y="608" on="0"/>
        <pt x="733" y="608" on="0"/>
        <pt x="792" y="579" on="0"/>
        <pt x="806" y="564" on="1"/>
        <pt x="819" y="550" on="1"/>
        <pt x="828" y="558" on="1"/>
        <pt x="836" y="565" on="0"/>
        <pt x="867" y="589" on="0"/>
        <pt x="907" y="612" on="0"/>
        <pt x="967" y="628" on="0"/>
        <pt x="998" y="628" on="1"/>
        <pt x="1019" y="628" on="0"/>
        <pt x="1048" y="612" on="0"/>
        <pt x="1052" y="604" on="1"/>
        <pt x="1055" y="597" on="1"/>
        <pt x="1014" y="542" on="0"/>
        <pt x="991" y="390" on="0"/>
        <pt x="991" y="269" on="1"/>
        <pt x="991" y="184" on="0"/>
        <pt x="935" y="51" on="0"/>
        <pt x="851" y="-26" on="0"/>
        <pt x="737" y="-76" on="0"/>
        <pt x="636" y="-93" on="0"/>
        <pt x="585" y="-93" on="1"/>
        <pt x="380" y="-93" on="0"/>
        <pt x="148" y="146" on="0"/>
        <pt x="148" y="396" on="1"/>
        <pt x="148" y="489" on="0"/>
        <pt x="126" y="625" on="0"/>
        <pt x="94" y="691" on="0"/>
        <pt x="61" y="729" on="0"/>
        <pt x="39" y="749" on="0"/>
        <pt x="39" y="756" on="1"/>
        <pt x="39" y="766" on="0"/>
        <pt x="61" y="783" on="0"/>
        <pt x="94" y="817" on="0"/>
        <pt x="126" y="876" on="0"/>
        <pt x="148" y="1005" on="0"/>
        <pt x="148" y="1096" on="1"/>
        <pt x="148" y="1586" on="0"/>
        <pt x="602" y="1586" on="1"/>
        <pt x="652" y="1586" on="0"/>
        <pt x="748" y="1570" on="0"/>
        <pt x="855" y="1522" on="0"/>
        <pt x="935" y="1448" on="0"/>
        <pt x="987" y="1319" on="0"/>
        <pt x="987" y="1235" on="1"/>
        <pt x="987" y="1003" on="0"/>
        <pt x="1065" y="907" on="1"/>
        <pt x="1064" y="903" on="0"/>
        <pt x="1059" y="893" on="0"/>
        <pt x="1029" y="875" on="0"/>
        <pt x="1007" y="875" on="1"/>
        <pt x="975" y="875" on="0"/>
        <pt x="915" y="891" on="0"/>
        <pt x="875" y="914" on="0"/>
        <pt x="843" y="937" on="0"/>
        <pt x="828" y="951" on="0"/>
        <pt x="828" y="950" on="1"/>
        <pt x="820" y="943" on="0"/>
        <pt x="792" y="924" on="0"/>
        <pt x="715" y="891" on="0"/>
        <pt x="681" y="891" on="1"/>
        <pt x="665" y="891" on="0"/>
        <pt x="637" y="894" on="0"/>
        <pt x="618" y="898" on="0"/>
        <pt x="604" y="905" on="0"/>
        <pt x="596" y="912" on="0"/>
        <pt x="590" y="920" on="0"/>
        <pt x="588" y="927" on="0"/>
        <pt x="588" y="931" on="1"/>
        <pt x="588" y="935" on="0"/>
        <pt x="623" y="990" on="0"/>
        <pt x="664" y="1060" on="0"/>
        <pt x="698" y="1171" on="0"/>
        <pt x="698" y="1226" on="1"/>
        <pt x="698" y="1265" on="0"/>
        <pt x="692" y="1316" on="0"/>
        <pt x="672" y="1367" on="0"/>
        <pt x="629" y="1392" on="0"/>
        <pt x="596" y="1392" on="1"/>
        <pt x="559" y="1392" on="0"/>
        <pt x="505" y="1368" on="0"/>
        <pt x="476" y="1331" on="0"/>
        <pt x="459" y="1270" on="0"/>
        <pt x="455" y="1214" on="0"/>
        <pt x="455" y="1174" on="1"/>
        <pt x="455" y="1081" on="0"/>
        <pt x="471" y="939" on="0"/>
        <pt x="496" y="865" on="0"/>
        <pt x="524" y="813" on="0"/>
        <pt x="549" y="794" on="0"/>
        <pt x="565" y="775" on="0"/>
        <pt x="565" y="765" on="1"/>
        <pt x="565" y="757" on="0"/>
        <pt x="543" y="738" on="0"/>
        <pt x="510" y="698" on="0"/>
        <pt x="478" y="630" on="0"/>
        <pt x="456" y="490" on="0"/>
      </contour>
    </TTGlyph>
    <TTGlyph name="Cacute" xMin="39" yMin="-93" xMax="1065" yMax="2036">
      <component glyphName="acute" x="408" y="590" flags="0x1004"/>
      <component glyphName="C" x="0" y="0" flags="0x1204"/>
    </TTGlyph>
    <TTGlyph name="Ccaron" xMin="39" yMin="-93" xMax="1065" yMax="2024">
      <component glyphName="caron" x="152" y="589" flags="0x1004"/>
      <component glyphName="C" x="0" y="0" flags="0x1204"/>
    </TTGlyph>
    <TTGlyph name="Ccedilla" xMin="39" yMin="-490" xMax="1065" yMax="1586">
      <component glyphName="cedilla" x="276" y="-66" flags="0x1004"/>
      <component glyphName="C" x="0" y="0" flags="0x1204"/>
    </TTGlyph>
    <TTGlyph name="Ccircumflex" xMin="39" yMin="-93" xMax="1065" yMax="2024">
      <component glyphName="circumflex" x="147" y="589" flags="0x1004"/>
      <component glyphName="C" x="0" y="0" flags="0x1204"/>
    </TTGlyph>
    <TTGlyph name="Cdotaccent" xMin="39" yMin="-93" xMax="1065" yMax="1936">
      <component glyphName="uni0307" x="346" y="559" flags="0x1004"/>
      <component glyphName="C" x="0" y="0" flags="0x1204"/>
    </TTGlyph>
    <TTGlyph name="D" xMin="59" yMin="-50" xMax="1169" yMax="1563">
      <contour>
        <pt x="490" y="362" on="1"/>
        <pt x="490" y="312" on="0"/>
        <pt x="493" y="259" on="0"/>
        <pt x="506" y="191" on="0"/>
        <pt x="533" y="158" on="0"/>
        <pt x="584" y="134" on="0"/>
        <pt x="621" y="134" on="1"/>
        <pt x="653" y="134" on="0"/>
        <pt x="698" y="145" on="0"/>
        <pt x="727" y="176" on="0"/>
        <pt x="743" y="205" on="0"/>
        <pt x="750" y="267" on="0"/>
        <pt x="752" y="313" on="0"/>
        <pt x="752" y="358" on="1"/>
        <pt x="752" y="360" on="0"/>
        <pt x="752" y="369" on="0"/>
        <pt x="752" y="371" on="1"/>
        <pt x="752" y="492" on="0"/>
        <pt x="728" y="656" on="0"/>
        <pt x="700" y="711" on="0"/>
        <pt x="676" y="748" on="0"/>
        <pt x="676" y="756" on="1"/>
        <pt x="676" y="769" on="0"/>
        <pt x="692" y="790" on="0"/>
        <pt x="714" y="833" on="0"/>
        <pt x="736" y="912" on="0"/>
        <pt x="752" y="1091" on="0"/>
        <pt x="752" y="1218" on="1"/>
        <pt x="752" y="1229" on="0"/>
        <pt x="751" y="1244" on="0"/>
        <pt x="749" y="1274" on="0"/>
        <pt x="742" y="1295" on="0"/>
        <pt x="731" y="1324" on="0"/>
        <pt x="713" y="1344" on="0"/>
        <pt x="688" y="1363" on="0"/>
        <pt x="652" y="1372" on="0"/>
        <pt x="630" y="1372" on="1"/>
        <pt x="590" y="1372" on="0"/>
        <pt x="535" y="1351" on="0"/>
        <pt x="507" y="1325" on="0"/>
        <pt x="492" y="1277" on="0"/>
        <pt x="490" y="1246" on="0"/>
        <pt x="490" y="1220" on="1"/>
        <pt x="490" y="1127" on="0"/>
        <pt x="498" y="980" on="0"/>
        <pt x="512" y="893" on="0"/>
        <pt x="528" y="831" on="0"/>
        <pt x="544" y="801" on="0"/>
        <pt x="558" y="781" on="0"/>
        <pt x="566" y="766" on="0"/>
        <pt x="566" y="756" on="1"/>
        <pt x="566" y="747" on="0"/>
        <pt x="542" y="711" on="0"/>
        <pt x="514" y="654" on="0"/>
        <pt x="490" y="486" on="0"/>
      </contour>
      <contour>
        <pt x="180" y="386" on="1"/>
        <pt x="180" y="481" on="0"/>
        <pt x="158" y="621" on="0"/>
        <pt x="126" y="689" on="0"/>
        <pt x="93" y="729" on="0"/>
        <pt x="71" y="748" on="0"/>
        <pt x="71" y="756" on="1"/>
        <pt x="71" y="767" on="0"/>
        <pt x="93" y="788" on="0"/>
        <pt x="126" y="828" on="0"/>
        <pt x="158" y="899" on="0"/>
        <pt x="180" y="1054" on="0"/>
        <pt x="180" y="1163" on="1"/>
        <pt x="180" y="1295" on="0"/>
        <pt x="127" y="1439" on="0"/>
        <pt x="59" y="1503" on="1"/>
        <pt x="59" y="1505" on="0"/>
        <pt x="61" y="1513" on="0"/>
        <pt x="73" y="1534" on="0"/>
        <pt x="93" y="1549" on="0"/>
        <pt x="136" y="1562" on="0"/>
        <pt x="164" y="1562" on="1"/>
        <pt x="213" y="1562" on="0"/>
        <pt x="302" y="1512" on="0"/>
        <pt x="322" y="1487" on="1"/>
        <pt x="342" y="1462" on="1"/>
        <pt x="430" y="1562" on="0"/>
        <pt x="678" y="1562" on="1"/>
        <pt x="734" y="1562" on="0"/>
        <pt x="831" y="1545" on="0"/>
        <pt x="925" y="1507" on="0"/>
        <pt x="997" y="1440" on="0"/>
        <pt x="1053" y="1346" on="0"/>
        <pt x="1082" y="1210" on="0"/>
        <pt x="1082" y="1126" on="1"/>
        <pt x="1082" y="1027" on="0"/>
        <pt x="1100" y="885" on="0"/>
        <pt x="1126" y="821" on="0"/>
        <pt x="1151" y="785" on="0"/>
        <pt x="1169" y="766" on="0"/>
        <pt x="1169" y="756" on="1"/>
        <pt x="1169" y="748" on="0"/>
        <pt x="1151" y="729" on="0"/>
        <pt x="1126" y="689" on="0"/>
        <pt x="1100" y="621" on="0"/>
        <pt x="1082" y="481" on="0"/>
        <pt x="1082" y="386" on="1"/>
        <pt x="1082" y="164" on="0"/>
        <pt x="871" y="-50" on="0"/>
        <pt x="686" y="-50" on="1"/>
        <pt x="440" y="-50" on="0"/>
        <pt x="342" y="65" on="1"/>
        <pt x="339" y="60" on="0"/>
        <pt x="329" y="45" on="0"/>
        <pt x="294" y="5" on="0"/>
        <pt x="255" y="-25" on="0"/>
        <pt x="195" y="-50" on="0"/>
        <pt x="164" y="-50" on="1"/>
        <pt x="119" y="-50" on="0"/>
        <pt x="67" y="-20" on="0"/>
        <pt x="63" y="-5" on="1"/>
        <pt x="59" y="10" on="1"/>
        <pt x="125" y="71" on="0"/>
        <pt x="180" y="249" on="0"/>
      </contour>
    </TTGlyph>
    <TTGlyph name="DZ" xMin="59" yMin="-93" xMax="2342" yMax="1563">
      <component glyphName="Z" x="1211" y="0" flags="0x1004"/>
      <component glyphName="D" x="0" y="0" flags="0x1004"/>
    </TTGlyph>
    <TTGlyph name="Dcaron" xMin="59" yMin="-50" xMax="1169" yMax="2024">
      <component glyphName="caron" x="224" y="589" flags="0x1004"/>
      <component glyphName="D" x="0" y="0" flags="0x1204"/>
    </TTGlyph>
    <TTGlyph name="Dcroat" xMin="59" yMin="-74" xMax="1169" yMax="1586">
      <contour>
        <pt x="490" y="342" on="1"/>
        <pt x="490" y="301" on="0"/>
        <pt x="492" y="256" on="0"/>
        <pt x="499" y="195" on="0"/>
        <pt x="516" y="163" on="0"/>
        <pt x="544" y="130" on="0"/>
        <pt x="590" y="117" on="0"/>
        <pt x="621" y="117" on="1"/>
        <pt x="642" y="117" on="0"/>
        <pt x="677" y="123" on="0"/>
        <pt x="703" y="133" on="0"/>
        <pt x="722" y="153" on="0"/>
        <pt x="735" y="170" on="0"/>
        <pt x="744" y="204" on="0"/>
        <pt x="749" y="229" on="0"/>
        <pt x="752" y="276" on="0"/>
        <pt x="752" y="309" on="0"/>
        <pt x="752" y="338" on="1"/>
        <pt x="752" y="340" on="0"/>
        <pt x="752" y="344" on="0"/>
        <pt x="752" y="349" on="0"/>
        <pt x="752" y="351" on="1"/>
        <pt x="752" y="478" on="0"/>
        <pt x="728" y="651" on="0"/>
        <pt x="700" y="709" on="0"/>
        <pt x="676" y="747" on="0"/>
        <pt x="676" y="756" on="1"/>
        <pt x="676" y="769" on="0"/>
        <pt x="700" y="806" on="0"/>
        <pt x="728" y="863" on="0"/>
        <pt x="752" y="1062" on="0"/>
        <pt x="752" y="1218" on="1"/>
        <pt x="752" y="1372" on="0"/>
        <pt x="630" y="1372" on="1"/>
        <pt x="590" y="1372" on="0"/>
        <pt x="535" y="1351" on="0"/>
        <pt x="507" y="1325" on="0"/>
        <pt x="492" y="1277" on="0"/>
        <pt x="490" y="1246" on="0"/>
        <pt x="490" y="1220" on="1"/>
        <pt x="490" y="1092" on="0"/>
        <pt x="506" y="913" on="0"/>
        <pt x="528" y="833" on="0"/>
        <pt x="550" y="789" on="0"/>
        <pt x="566" y="768" on="0"/>
        <pt x="566" y="756" on="1"/>
        <pt x="566" y="747" on="0"/>
        <pt x="542" y="708" on="0"/>
        <pt x="514" y="649" on="0"/>
        <pt x="490" y="473" on="0"/>
      </contour>
      <contour>
        <pt x="180" y="386" on="1"/>
        <pt x="180" y="481" on="0"/>
        <pt x="158" y="621" on="0"/>
        <pt x="126" y="689" on="0"/>
        <pt x="93" y="729" on="0"/>
        <pt x="71" y="748" on="0"/>
        <pt x="71" y="756" on="1"/>
        <pt x="71" y="767" on="0"/>
        <pt x="93" y="788" on="0"/>
        <pt x="126" y="828" on="0"/>
        <pt x="158" y="899" on="0"/>
        <pt x="180" y="1054" on="0"/>
        <pt x="180" y="1163" on="1"/>
        <pt x="180" y="1295" on="0"/>
        <pt x="127" y="1439" on="0"/>
        <pt x="59" y="1503" on="1"/>
        <pt x="59" y="1505" on="0"/>
        <pt x="61" y="1513" on="0"/>
        <pt x="73" y="1534" on="0"/>
        <pt x="93" y="1549" on="0"/>
        <pt x="136" y="1562" on="0"/>
        <pt x="164" y="1562" on="1"/>
        <pt x="219" y="1562" on="0"/>
        <pt x="318" y="1532" on="0"/>
        <pt x="340" y="1517" on="1"/>
        <pt x="362" y="1502" on="1"/>
        <pt x="445" y="1586" on="0"/>
        <pt x="678" y="1586" on="1"/>
        <pt x="762" y="1586" on="0"/>
        <pt x="903" y="1547" on="0"/>
        <pt x="1017" y="1466" on="0"/>
        <pt x="1082" y="1325" on="0"/>
        <pt x="1082" y="1230" on="1"/>
        <pt x="1082" y="1126" on="1"/>
        <pt x="1082" y="1027" on="0"/>
        <pt x="1100" y="885" on="0"/>
        <pt x="1126" y="821" on="0"/>
        <pt x="1151" y="785" on="0"/>
        <pt x="1169" y="766" on="0"/>
        <pt x="1169" y="756" on="1"/>
        <pt x="1169" y="748" on="0"/>
        <pt x="1151" y="729" on="0"/>
        <pt x="1126" y="689" on="0"/>
        <pt x="1100" y="621" on="0"/>
        <pt x="1082" y="481" on="0"/>
        <pt x="1082" y="386" on="1"/>
        <pt x="1082" y="283" on="1"/>
        <pt x="1082" y="118" on="0"/>
        <pt x="865" y="-74" on="0"/>
        <pt x="686" y="-74" on="1"/>
        <pt x="453" y="-74" on="0"/>
        <pt x="362" y="11" on="1"/>
        <pt x="359" y="8" on="0"/>
        <pt x="347" y="-4" on="0"/>
        <pt x="308" y="-33" on="0"/>
        <pt x="265" y="-56" on="0"/>
        <pt x="198" y="-74" on="0"/>
        <pt x="164" y="-74" on="1"/>
        <pt x="119" y="-74" on="0"/>
        <pt x="67" y="-44" on="0"/>
        <pt x="63" y="-29" on="1"/>
        <pt x="59" y="-14" on="1"/>
        <pt x="125" y="50" on="0"/>
        <pt x="180" y="240" on="0"/>
      </contour>
      <contour>
        <pt x="925" y="1396" on="1"/>
        <pt x="294" y="1396" on="1"/>
        <pt x="294" y="1523" on="1"/>
        <pt x="925" y="1523" on="1"/>
      </contour>
    </TTGlyph>
    <TTGlyph name="Delta" xMin="56" yMin="0" xMax="1272" yMax="1344">
      <contour>
        <pt x="1272" y="0" on="1"/>
        <pt x="56" y="0" on="1"/>
        <pt x="56" y="91" on="1"/>
        <pt x="579" y="1330" on="1"/>
        <pt x="746" y="1344" on="1"/>
        <pt x="1272" y="92" on="1"/>
      </contour>
      <contour>
        <pt x="1012" y="131" on="1"/>
        <pt x="745" y="775" on="1"/>
        <pt x="649" y="1029" on="0"/>
        <pt x="649" y="1030" on="1"/>
        <pt x="613" y="1102" on="1"/>
        <pt x="573" y="991" on="0"/>
        <pt x="491" y="791" on="1"/>
        <pt x="469" y="739" on="0"/>
        <pt x="219" y="131" on="1"/>
      </contour>
    </TTGlyph>
    <TTGlyph name="Dz" xMin="59" yMin="-69" xMax="2206" yMax="1563">
      <component glyphName="z" x="1211" y="0" flags="0x1004"/>
      <component glyphName="D" x="0" y="0" flags="0x1004"/>
    </TTGlyph>
    <TTGlyph name="E" xMin="58" yMin="-50" xMax="1049" yMax="1562">
      <contour>
        <pt x="532" y="669" on="1"/>
        <pt x="488" y="230" on="1"/>
        <pt x="488" y="197" on="0"/>
        <pt x="509" y="155" on="0"/>
        <pt x="548" y="139" on="0"/>
        <pt x="576" y="134" on="0"/>
        <pt x="596" y="134" on="1"/>
        <pt x="653" y="134" on="0"/>
        <pt x="706" y="207" on="0"/>
        <pt x="706" y="261" on="1"/>
        <pt x="706" y="350" on="0"/>
        <pt x="635" y="419" on="1"/>
        <pt x="636" y="423" on="0"/>
        <pt x="641" y="437" on="0"/>
        <pt x="677" y="459" on="0"/>
        <pt x="706" y="459" on="1"/>
        <pt x="742" y="459" on="0"/>
        <pt x="808" y="430" on="0"/>
        <pt x="822" y="416" on="1"/>
        <pt x="837" y="401" on="1"/>
        <pt x="843" y="407" on="0"/>
        <pt x="864" y="427" on="0"/>
        <pt x="933" y="459" on="0"/>
        <pt x="969" y="459" on="1"/>
        <pt x="998" y="459" on="0"/>
        <pt x="1033" y="439" on="0"/>
        <pt x="1036" y="429" on="1"/>
        <pt x="1039" y="419" on="1"/>
        <pt x="958" y="355" on="0"/>
        <pt x="958" y="223" on="1"/>
        <pt x="958" y="145" on="0"/>
        <pt x="999" y="36" on="0"/>
        <pt x="1049" y="-6" on="1"/>
        <pt x="1049" y="-8" on="0"/>
        <pt x="1048" y="-14" on="0"/>
        <pt x="1038" y="-29" on="0"/>
        <pt x="1023" y="-40" on="0"/>
        <pt x="991" y="-50" on="0"/>
        <pt x="970" y="-50" on="1"/>
        <pt x="941" y="-50" on="0"/>
        <pt x="884" y="-30" on="0"/>
        <pt x="845" y="-3" on="0"/>
        <pt x="815" y="25" on="0"/>
        <pt x="808" y="35" on="1"/>
        <pt x="800" y="45" on="1"/>
        <pt x="761" y="-2" on="0"/>
        <pt x="627" y="-50" on="0"/>
        <pt x="563" y="-50" on="1"/>
        <pt x="536" y="-50" on="0"/>
        <pt x="483" y="-37" on="0"/>
        <pt x="442" y="-17" on="0"/>
        <pt x="406" y="8" on="0"/>
        <pt x="380" y="32" on="0"/>
        <pt x="361" y="52" on="0"/>
        <pt x="356" y="58" on="1"/>
        <pt x="352" y="64" on="1"/>
        <pt x="349" y="59" on="0"/>
        <pt x="338" y="44" on="0"/>
        <pt x="301" y="5" on="0"/>
        <pt x="260" y="-25" on="0"/>
        <pt x="197" y="-50" on="0"/>
        <pt x="164" y="-50" on="1"/>
        <pt x="119" y="-50" on="0"/>
        <pt x="67" y="-20" on="0"/>
        <pt x="63" y="-5" on="1"/>
        <pt x="59" y="10" on="1"/>
        <pt x="82" y="24" on="0"/>
        <pt x="115" y="51" on="0"/>
        <pt x="141" y="88" on="0"/>
        <pt x="158" y="115" on="0"/>
        <pt x="170" y="171" on="0"/>
        <pt x="176" y="206" on="0"/>
        <pt x="179" y="289" on="0"/>
        <pt x="179" y="341" on="0"/>
        <pt x="179" y="399" on="1"/>
        <pt x="179" y="491" on="0"/>
        <pt x="157" y="626" on="0"/>
        <pt x="125" y="691" on="0"/>
        <pt x="92" y="730" on="0"/>
        <pt x="70" y="749" on="0"/>
        <pt x="70" y="756" on="1"/>
        <pt x="70" y="767" on="0"/>
        <pt x="92" y="787" on="0"/>
        <pt x="125" y="825" on="0"/>
        <pt x="157" y="893" on="0"/>
        <pt x="179" y="1042" on="0"/>
        <pt x="179" y="1148" on="1"/>
        <pt x="179" y="1285" on="0"/>
        <pt x="126" y="1438" on="0"/>
        <pt x="58" y="1503" on="1"/>
        <pt x="58" y="1505" on="0"/>
        <pt x="60" y="1513" on="0"/>
        <pt x="72" y="1534" on="0"/>
        <pt x="92" y="1549" on="0"/>
        <pt x="135" y="1562" on="0"/>
        <pt x="163" y="1562" on="1"/>
        <pt x="215" y="1562" on="0"/>
        <pt x="308" y="1504" on="0"/>
        <pt x="329" y="1476" on="1"/>
        <pt x="350" y="1447" on="1"/>
        <pt x="354" y="1452" on="1"/>
        <pt x="359" y="1458" on="0"/>
        <pt x="378" y="1479" on="0"/>
        <pt x="404" y="1503" on="0"/>
        <pt x="440" y="1528" on="0"/>
        <pt x="481" y="1549" on="0"/>
        <pt x="534" y="1562" on="0"/>
        <pt x="562" y="1562" on="1"/>
        <pt x="625" y="1562" on="0"/>
        <pt x="760" y="1513" on="0"/>
        <pt x="799" y="1466" on="1"/>
        <pt x="802" y="1470" on="0"/>
        <pt x="812" y="1483" on="0"/>
        <pt x="845" y="1516" on="0"/>
        <pt x="882" y="1541" on="0"/>
        <pt x="940" y="1562" on="0"/>
        <pt x="969" y="1562" on="1"/>
        <pt x="1002" y="1562" on="0"/>
        <pt x="1042" y="1539" on="0"/>
        <pt x="1045" y="1528" on="1"/>
        <pt x="1048" y="1516" on="1"/>
        <pt x="998" y="1478" on="0"/>
        <pt x="957" y="1382" on="0"/>
        <pt x="957" y="1312" on="1"/>
        <pt x="957" y="1188" on="0"/>
        <pt x="1038" y="1127" on="1"/>
        <pt x="1037" y="1123" on="0"/>
        <pt x="1032" y="1110" on="0"/>
        <pt x="997" y="1088" on="0"/>
        <pt x="968" y="1088" on="1"/>
        <pt x="932" y="1088" on="0"/>
        <pt x="866" y="1116" on="0"/>
        <pt x="851" y="1130" on="1"/>
        <pt x="836" y="1145" on="1"/>
        <pt x="830" y="1139" on="0"/>
        <pt x="809" y="1120" on="0"/>
        <pt x="741" y="1088" on="0"/>
        <pt x="705" y="1088" on="1"/>
        <pt x="676" y="1088" on="0"/>
        <pt x="640" y="1108" on="0"/>
        <pt x="637" y="1118" on="1"/>
        <pt x="634" y="1127" on="1"/>
        <pt x="705" y="1191" on="0"/>
        <pt x="705" y="1277" on="1"/>
        <pt x="705" y="1372" on="0"/>
        <pt x="597" y="1372" on="1"/>
        <pt x="582" y="1372" on="0"/>
        <pt x="559" y="1370" on="0"/>
        <pt x="526" y="1362" on="0"/>
        <pt x="504" y="1349" on="0"/>
        <pt x="489" y="1322" on="0"/>
        <pt x="489" y="1303" on="1"/>
        <pt x="489" y="1299" on="0"/>
        <pt x="489" y="1294" on="1"/>
        <pt x="532" y="847" on="1"/>
        <pt x="642" y="847" on="0"/>
        <pt x="769" y="872" on="0"/>
        <pt x="817" y="905" on="1"/>
        <pt x="820" y="905" on="0"/>
        <pt x="829" y="901" on="0"/>
        <pt x="844" y="876" on="0"/>
        <pt x="844" y="855" on="1"/>
        <pt x="844" y="828" on="0"/>
        <pt x="809" y="780" on="0"/>
        <pt x="792" y="770" on="1"/>
        <pt x="774" y="759" on="1"/>
        <pt x="777" y="758" on="0"/>
        <pt x="786" y="752" on="0"/>
        <pt x="810" y="733" on="0"/>
        <pt x="829" y="711" on="0"/>
        <pt x="844" y="678" on="0"/>
        <pt x="844" y="661" on="1"/>
        <pt x="844" y="640" on="0"/>
        <pt x="830" y="614" on="0"/>
        <pt x="824" y="612" on="1"/>
        <pt x="817" y="610" on="1"/>
        <pt x="768" y="642" on="0"/>
        <pt x="640" y="669" on="0"/>
      </contour>
    </TTGlyph>
    <TTGlyph name="Eacute" xMin="58" yMin="-50" xMax="1049" yMax="2036">
      <component glyphName="acute" x="420" y="590" flags="0x1004"/>
      <component glyphName="E" x="0" y="0" flags="0x1204"/>
    </TTGlyph>
    <TTGlyph name="Ecaron" xMin="58" yMin="-50" xMax="1049" yMax="2024">
      <component glyphName="caron" x="164" y="589" flags="0x1004"/>
      <component glyphName="E" x="0" y="0" flags="0x1204"/>
    </TTGlyph>
    <TTGlyph name="Ecircumflex" xMin="58" yMin="-50" xMax="1049" yMax="2024">
      <component glyphName="circumflex" x="158" y="589" flags="0x1004"/>
      <component glyphName="E" x="0" y="0" flags="0x1204"/>
    </TTGlyph>
    <TTGlyph name="Edieresis" xMin="58" yMin="-50" xMax="1049" yMax="1936">
      <component glyphName="dieresis" x="150" y="559" flags="0x1004"/>
      <component glyphName="E" x="0" y="0" flags="0x1204"/>
    </TTGlyph>
    <TTGlyph name="Edotaccent" xMin="58" yMin="-50" xMax="1049" yMax="1936">
      <component glyphName="uni0307" x="348" y="559" flags="0x1004"/>
      <component glyphName="E" x="0" y="0" flags="0x1204"/>
    </TTGlyph>
    <TTGlyph name="Egrave" xMin="58" yMin="-50" xMax="1049" yMax="2036">
      <component glyphName="grave" x="91" y="590" flags="0x1004"/>
      <component glyphName="E" x="0" y="0" flags="0x1204"/>
    </TTGlyph>
    <TTGlyph name="Emacron" xMin="58" yMin="-50" xMax="1049" yMax="1815">
      <component glyphName="macron" x="150" y="504" flags="0x1004"/>
      <component glyphName="E" x="0" y="0" flags="0x1204"/>
    </TTGlyph>
    <TTGlyph name="Eogonek" xMin="58" yMin="-494" xMax="1049" yMax="1562">
      <component glyphName="ogonek" x="268" y="-60" flags="0x1004"/>
      <component glyphName="E" x="0" y="0" flags="0x1004"/>
    </TTGlyph>
    <TTGlyph name="Eth" xMin="1" yMin="-74" xMax="1169" yMax="1586">
      <contour>
        <pt x="26" y="663" on="1"/>
        <pt x="23" y="663" on="0"/>
        <pt x="15" y="667" on="0"/>
        <pt x="1" y="690" on="0"/>
        <pt x="1" y="709" on="1"/>
        <pt x="1" y="783" on="1"/>
        <pt x="1" y="802" on="0"/>
        <pt x="14" y="825" on="0"/>
        <pt x="20" y="827" on="1"/>
        <pt x="26" y="829" on="1"/>
        <pt x="60" y="823" on="0"/>
        <pt x="119" y="820" on="1"/>
        <pt x="180" y="912" on="0"/>
        <pt x="180" y="1163" on="1"/>
        <pt x="180" y="1295" on="0"/>
        <pt x="127" y="1439" on="0"/>
        <pt x="59" y="1503" on="1"/>
        <pt x="59" y="1505" on="0"/>
        <pt x="61" y="1513" on="0"/>
        <pt x="73" y="1534" on="0"/>
        <pt x="93" y="1549" on="0"/>
        <pt x="136" y="1562" on="0"/>
        <pt x="164" y="1562" on="1"/>
        <pt x="213" y="1562" on="0"/>
        <pt x="302" y="1512" on="0"/>
        <pt x="322" y="1487" on="1"/>
        <pt x="342" y="1462" on="1"/>
        <pt x="430" y="1586" on="0"/>
        <pt x="678" y="1586" on="1"/>
        <pt x="762" y="1586" on="0"/>
        <pt x="903" y="1547" on="0"/>
        <pt x="1017" y="1466" on="0"/>
        <pt x="1082" y="1325" on="0"/>
        <pt x="1082" y="1230" on="1"/>
        <pt x="1082" y="1126" on="1"/>
        <pt x="1082" y="1027" on="0"/>
        <pt x="1100" y="885" on="0"/>
        <pt x="1126" y="821" on="0"/>
        <pt x="1151" y="785" on="0"/>
        <pt x="1169" y="766" on="0"/>
        <pt x="1169" y="756" on="1"/>
        <pt x="1169" y="748" on="0"/>
        <pt x="1151" y="729" on="0"/>
        <pt x="1126" y="689" on="0"/>
        <pt x="1100" y="621" on="0"/>
        <pt x="1082" y="481" on="0"/>
        <pt x="1082" y="386" on="1"/>
        <pt x="1082" y="283" on="1"/>
        <pt x="1082" y="118" on="0"/>
        <pt x="865" y="-74" on="0"/>
        <pt x="686" y="-74" on="1"/>
        <pt x="440" y="-74" on="0"/>
        <pt x="342" y="41" on="1"/>
        <pt x="339" y="36" on="0"/>
        <pt x="329" y="21" on="0"/>
        <pt x="294" y="-19" on="0"/>
        <pt x="255" y="-49" on="0"/>
        <pt x="195" y="-74" on="0"/>
        <pt x="164" y="-74" on="1"/>
        <pt x="119" y="-74" on="0"/>
        <pt x="67" y="-44" on="0"/>
        <pt x="63" y="-29" on="1"/>
        <pt x="59" y="-14" on="1"/>
        <pt x="125" y="50" on="0"/>
        <pt x="180" y="240" on="0"/>
        <pt x="180" y="386" on="1"/>
        <pt x="180" y="580" on="0"/>
        <pt x="133" y="673" on="1"/>
        <pt x="99" y="672" on="0"/>
        <pt x="44" y="667" on="0"/>
      </contour>
      <contour>
        <pt x="490" y="342" on="1"/>
        <pt x="490" y="301" on="0"/>
        <pt x="492" y="256" on="0"/>
        <pt x="499" y="195" on="0"/>
        <pt x="516" y="163" on="0"/>
        <pt x="544" y="130" on="0"/>
        <pt x="590" y="117" on="0"/>
        <pt x="621" y="117" on="1"/>
        <pt x="642" y="117" on="0"/>
        <pt x="677" y="123" on="0"/>
        <pt x="703" y="133" on="0"/>
        <pt x="722" y="153" on="0"/>
        <pt x="735" y="170" on="0"/>
        <pt x="744" y="204" on="0"/>
        <pt x="749" y="229" on="0"/>
        <pt x="752" y="276" on="0"/>
        <pt x="752" y="309" on="0"/>
        <pt x="752" y="338" on="1"/>
        <pt x="752" y="340" on="0"/>
        <pt x="752" y="344" on="0"/>
        <pt x="752" y="349" on="0"/>
        <pt x="752" y="351" on="1"/>
        <pt x="752" y="478" on="0"/>
        <pt x="728" y="651" on="0"/>
        <pt x="700" y="709" on="0"/>
        <pt x="676" y="747" on="0"/>
        <pt x="676" y="756" on="1"/>
        <pt x="676" y="769" on="0"/>
        <pt x="700" y="806" on="0"/>
        <pt x="728" y="863" on="0"/>
        <pt x="752" y="1062" on="0"/>
        <pt x="752" y="1218" on="1"/>
        <pt x="752" y="1372" on="0"/>
        <pt x="630" y="1372" on="1"/>
        <pt x="590" y="1372" on="0"/>
        <pt x="535" y="1351" on="0"/>
        <pt x="507" y="1325" on="0"/>
        <pt x="492" y="1277" on="0"/>
        <pt x="490" y="1246" on="0"/>
        <pt x="490" y="1220" on="1"/>
        <pt x="490" y="925" on="0"/>
        <pt x="533" y="824" on="1"/>
        <pt x="549" y="825" on="0"/>
        <pt x="576" y="828" on="0"/>
        <pt x="586" y="829" on="1"/>
        <pt x="589" y="829" on="0"/>
        <pt x="597" y="825" on="0"/>
        <pt x="611" y="802" on="0"/>
        <pt x="611" y="783" on="1"/>
        <pt x="611" y="709" on="1"/>
        <pt x="611" y="689" on="0"/>
        <pt x="598" y="666" on="0"/>
        <pt x="592" y="664" on="1"/>
        <pt x="586" y="663" on="1"/>
        <pt x="565" y="666" on="0"/>
        <pt x="525" y="668" on="1"/>
        <pt x="490" y="565" on="0"/>
      </contour>
    </TTGlyph>
    <TTGlyph name="Euro" xMin="62" yMin="-27" xMax="1162" yMax="1341">
      <contour>
        <pt x="1132" y="354" on="1"/>
        <pt x="1162" y="165" on="1"/>
        <pt x="1128" y="82" on="0"/>
        <pt x="984" y="-12" on="0"/>
        <pt x="881" y="-12" on="1"/>
        <pt x="869" y="28" on="0"/>
        <pt x="867" y="37" on="1"/>
        <pt x="814" y="-27" on="0"/>
        <pt x="712" y="-27" on="1"/>
        <pt x="501" y="-27" on="0"/>
        <pt x="242" y="230" on="0"/>
        <pt x="206" y="470" on="1"/>
        <pt x="62" y="470" on="1"/>
        <pt x="84" y="607" on="1"/>
        <pt x="193" y="607" on="1"/>
        <pt x="193" y="662" on="1"/>
        <pt x="193" y="707" on="0"/>
        <pt x="194" y="723" on="1"/>
        <pt x="62" y="723" on="1"/>
        <pt x="84" y="860" on="1"/>
        <pt x="207" y="860" on="1"/>
        <pt x="243" y="1087" on="0"/>
        <pt x="505" y="1341" on="0"/>
        <pt x="714" y="1341" on="1"/>
        <pt x="886" y="1341" on="0"/>
        <pt x="973" y="1229" on="1"/>
        <pt x="987" y="1327" on="1"/>
        <pt x="1143" y="1327" on="1"/>
        <pt x="1143" y="938" on="1"/>
        <pt x="984" y="938" on="1"/>
        <pt x="967" y="1056" on="0"/>
        <pt x="840" y="1182" on="0"/>
        <pt x="738" y="1182" on="1"/>
        <pt x="617" y="1182" on="0"/>
        <pt x="485" y="1017" on="0"/>
        <pt x="462" y="860" on="1"/>
        <pt x="896" y="860" on="1"/>
        <pt x="874" y="723" on="1"/>
        <pt x="452" y="723" on="1"/>
        <pt x="451" y="702" on="0"/>
        <pt x="451" y="660" on="1"/>
        <pt x="451" y="607" on="1"/>
        <pt x="857" y="607" on="1"/>
        <pt x="835" y="470" on="1"/>
        <pt x="463" y="470" on="1"/>
        <pt x="486" y="311" on="0"/>
        <pt x="627" y="134" on="0"/>
        <pt x="748" y="134" on="1"/>
        <pt x="846" y="134" on="0"/>
        <pt x="982" y="271" on="0"/>
        <pt x="1003" y="381" on="1"/>
      </contour>
    </TTGlyph>
    <TTGlyph name="F" xMin="57" yMin="-50" xMax="982" yMax="1562">
      <contour>
        <pt x="488" y="385" on="1"/>
        <pt x="488" y="329" on="0"/>
        <pt x="488" y="274" on="0"/>
        <pt x="492" y="195" on="0"/>
        <pt x="498" y="158" on="0"/>
        <pt x="509" y="105" on="0"/>
        <pt x="526" y="78" on="0"/>
        <pt x="553" y="42" on="0"/>
        <pt x="586" y="15" on="0"/>
        <pt x="609" y="1" on="1"/>
        <pt x="608" y="-1" on="0"/>
        <pt x="603" y="-8" on="0"/>
        <pt x="584" y="-26" on="0"/>
        <pt x="562" y="-39" on="0"/>
        <pt x="525" y="-50" on="0"/>
        <pt x="504" y="-50" on="1"/>
        <pt x="460" y="-50" on="0"/>
        <pt x="378" y="7" on="0"/>
        <pt x="358" y="36" on="1"/>
        <pt x="339" y="64" on="1"/>
        <pt x="336" y="59" on="0"/>
        <pt x="325" y="44" on="0"/>
        <pt x="289" y="5" on="0"/>
        <pt x="251" y="-25" on="0"/>
        <pt x="192" y="-50" on="0"/>
        <pt x="162" y="-50" on="1"/>
        <pt x="141" y="-50" on="0"/>
        <pt x="105" y="-39" on="0"/>
        <pt x="82" y="-24" on="0"/>
        <pt x="65" y="-10" on="0"/>
        <pt x="62" y="-4" on="1"/>
        <pt x="58" y="1" on="1"/>
        <pt x="81" y="15" on="0"/>
        <pt x="114" y="41" on="0"/>
        <pt x="140" y="78" on="0"/>
        <pt x="157" y="104" on="0"/>
        <pt x="169" y="159" on="0"/>
        <pt x="175" y="194" on="0"/>
        <pt x="178" y="276" on="0"/>
        <pt x="178" y="327" on="0"/>
        <pt x="178" y="385" on="1"/>
        <pt x="178" y="481" on="0"/>
        <pt x="156" y="621" on="0"/>
        <pt x="124" y="689" on="0"/>
        <pt x="91" y="729" on="0"/>
        <pt x="69" y="748" on="0"/>
        <pt x="69" y="756" on="1"/>
        <pt x="69" y="767" on="0"/>
        <pt x="91" y="787" on="0"/>
        <pt x="124" y="825" on="0"/>
        <pt x="156" y="893" on="0"/>
        <pt x="178" y="1042" on="0"/>
        <pt x="178" y="1148" on="1"/>
        <pt x="178" y="1285" on="0"/>
        <pt x="125" y="1438" on="0"/>
        <pt x="57" y="1503" on="1"/>
        <pt x="57" y="1505" on="0"/>
        <pt x="59" y="1513" on="0"/>
        <pt x="71" y="1534" on="0"/>
        <pt x="91" y="1549" on="0"/>
        <pt x="134" y="1562" on="0"/>
        <pt x="162" y="1562" on="1"/>
        <pt x="196" y="1562" on="0"/>
        <pt x="263" y="1540" on="0"/>
        <pt x="308" y="1510" on="0"/>
        <pt x="344" y="1479" on="0"/>
        <pt x="352" y="1468" on="1"/>
        <pt x="361" y="1457" on="1"/>
        <pt x="368" y="1467" on="1"/>
        <pt x="376" y="1477" on="0"/>
        <pt x="407" y="1509" on="0"/>
        <pt x="447" y="1540" on="0"/>
        <pt x="507" y="1562" on="0"/>
        <pt x="539" y="1562" on="1"/>
        <pt x="594" y="1562" on="0"/>
        <pt x="709" y="1513" on="0"/>
        <pt x="744" y="1466" on="1"/>
        <pt x="746" y="1470" on="0"/>
        <pt x="756" y="1483" on="0"/>
        <pt x="787" y="1516" on="0"/>
        <pt x="822" y="1541" on="0"/>
        <pt x="875" y="1562" on="0"/>
        <pt x="902" y="1562" on="1"/>
        <pt x="923" y="1562" on="0"/>
        <pt x="955" y="1553" on="0"/>
        <pt x="971" y="1540" on="0"/>
        <pt x="980" y="1527" on="0"/>
        <pt x="981" y="1522" on="1"/>
        <pt x="982" y="1518" on="1"/>
        <pt x="931" y="1480" on="0"/>
        <pt x="890" y="1382" on="0"/>
        <pt x="890" y="1312" on="1"/>
        <pt x="890" y="1189" on="0"/>
        <pt x="972" y="1127" on="1"/>
        <pt x="971" y="1123" on="0"/>
        <pt x="966" y="1110" on="0"/>
        <pt x="930" y="1088" on="0"/>
        <pt x="901" y="1088" on="1"/>
        <pt x="868" y="1088" on="0"/>
        <pt x="808" y="1116" on="0"/>
        <pt x="794" y="1130" on="1"/>
        <pt x="780" y="1145" on="1"/>
        <pt x="775" y="1139" on="0"/>
        <pt x="756" y="1120" on="0"/>
        <pt x="693" y="1088" on="0"/>
        <pt x="660" y="1088" on="1"/>
        <pt x="631" y="1088" on="0"/>
        <pt x="596" y="1108" on="0"/>
        <pt x="593" y="1118" on="1"/>
        <pt x="590" y="1127" on="1"/>
        <pt x="625" y="1159" on="0"/>
        <pt x="660" y="1221" on="0"/>
        <pt x="660" y="1266" on="1"/>
        <pt x="660" y="1308" on="0"/>
        <pt x="620" y="1371" on="0"/>
        <pt x="575" y="1371" on="1"/>
        <pt x="561" y="1371" on="0"/>
        <pt x="536" y="1366" on="0"/>
        <pt x="506" y="1352" on="0"/>
        <pt x="488" y="1319" on="0"/>
        <pt x="488" y="1296" on="1"/>
        <pt x="488" y="1294" on="0"/>
        <pt x="488" y="1289" on="0"/>
        <pt x="488" y="1287" on="1"/>
        <pt x="521" y="833" on="1"/>
        <pt x="624" y="833" on="0"/>
        <pt x="747" y="861" on="0"/>
        <pt x="795" y="894" on="1"/>
        <pt x="798" y="894" on="0"/>
        <pt x="807" y="890" on="0"/>
        <pt x="822" y="865" on="0"/>
        <pt x="822" y="844" on="1"/>
        <pt x="822" y="816" on="0"/>
        <pt x="786" y="764" on="0"/>
        <pt x="768" y="752" on="1"/>
        <pt x="751" y="741" on="1"/>
        <pt x="754" y="739" on="0"/>
        <pt x="763" y="734" on="0"/>
        <pt x="788" y="714" on="0"/>
        <pt x="807" y="692" on="0"/>
        <pt x="822" y="657" on="0"/>
        <pt x="822" y="639" on="1"/>
        <pt x="822" y="618" on="0"/>
        <pt x="808" y="592" on="0"/>
        <pt x="802" y="590" on="1"/>
        <pt x="795" y="588" on="1"/>
        <pt x="746" y="621" on="0"/>
        <pt x="622" y="651" on="0"/>
        <pt x="521" y="651" on="1"/>
      </contour>
    </TTGlyph>
    <TTGlyph name="G" xMin="39" yMin="-94" xMax="1115" yMax="1586">
      <contour>
        <pt x="147" y="1126" on="1"/>
        <pt x="147" y="1586" on="0"/>
        <pt x="604" y="1586" on="1"/>
        <pt x="654" y="1586" on="0"/>
        <pt x="751" y="1570" on="0"/>
        <pt x="861" y="1522" on="0"/>
        <pt x="942" y="1448" on="0"/>
        <pt x="996" y="1319" on="0"/>
        <pt x="996" y="1235" on="1"/>
        <pt x="996" y="1003" on="0"/>
        <pt x="1074" y="907" on="1"/>
        <pt x="1073" y="903" on="0"/>
        <pt x="1068" y="893" on="0"/>
        <pt x="1038" y="875" on="0"/>
        <pt x="1016" y="875" on="1"/>
        <pt x="998" y="875" on="0"/>
        <pt x="962" y="882" on="0"/>
        <pt x="933" y="893" on="0"/>
        <pt x="906" y="908" on="0"/>
        <pt x="884" y="924" on="0"/>
        <pt x="865" y="940" on="0"/>
        <pt x="851" y="954" on="0"/>
        <pt x="842" y="965" on="0"/>
        <pt x="837" y="971" on="0"/>
        <pt x="837" y="970" on="1"/>
        <pt x="831" y="961" on="0"/>
        <pt x="810" y="935" on="0"/>
        <pt x="744" y="891" on="0"/>
        <pt x="710" y="891" on="1"/>
        <pt x="688" y="891" on="0"/>
        <pt x="652" y="897" on="0"/>
        <pt x="630" y="907" on="0"/>
        <pt x="613" y="920" on="0"/>
        <pt x="605" y="931" on="0"/>
        <pt x="601" y="944" on="0"/>
        <pt x="600" y="950" on="0"/>
        <pt x="600" y="952" on="1"/>
        <pt x="600" y="961" on="0"/>
        <pt x="654" y="1056" on="0"/>
        <pt x="708" y="1182" on="0"/>
        <pt x="708" y="1228" on="1"/>
        <pt x="708" y="1265" on="0"/>
        <pt x="700" y="1318" on="0"/>
        <pt x="679" y="1367" on="0"/>
        <pt x="633" y="1392" on="0"/>
        <pt x="598" y="1392" on="1"/>
        <pt x="552" y="1392" on="0"/>
        <pt x="491" y="1355" on="0"/>
        <pt x="463" y="1283" on="0"/>
        <pt x="454" y="1208" on="0"/>
        <pt x="454" y="1154" on="1"/>
        <pt x="454" y="1057" on="0"/>
        <pt x="478" y="914" on="0"/>
        <pt x="512" y="842" on="0"/>
        <pt x="545" y="799" on="0"/>
        <pt x="569" y="774" on="0"/>
        <pt x="569" y="765" on="1"/>
        <pt x="569" y="757" on="0"/>
        <pt x="547" y="738" on="0"/>
        <pt x="514" y="698" on="0"/>
        <pt x="482" y="630" on="0"/>
        <pt x="460" y="490" on="0"/>
        <pt x="460" y="395" on="1"/>
        <pt x="460" y="359" on="0"/>
        <pt x="460" y="321" on="0"/>
        <pt x="462" y="262" on="0"/>
        <pt x="465" y="231" on="0"/>
        <pt x="470" y="185" on="0"/>
        <pt x="479" y="162" on="0"/>
        <pt x="491" y="132" on="0"/>
        <pt x="507" y="117" on="0"/>
        <pt x="528" y="102" on="0"/>
        <pt x="555" y="96" on="0"/>
        <pt x="572" y="96" on="1"/>
        <pt x="604" y="96" on="0"/>
        <pt x="649" y="130" on="0"/>
        <pt x="671" y="175" on="0"/>
        <pt x="684" y="247" on="0"/>
        <pt x="686" y="293" on="0"/>
        <pt x="686" y="326" on="1"/>
        <pt x="686" y="428" on="0"/>
        <pt x="650" y="528" on="0"/>
        <pt x="595" y="573" on="1"/>
        <pt x="595" y="575" on="0"/>
        <pt x="596" y="581" on="0"/>
        <pt x="606" y="596" on="0"/>
        <pt x="621" y="607" on="0"/>
        <pt x="653" y="617" on="0"/>
        <pt x="674" y="617" on="1"/>
        <pt x="715" y="617" on="0"/>
        <pt x="790" y="585" on="0"/>
        <pt x="808" y="569" on="1"/>
        <pt x="825" y="553" on="1"/>
        <pt x="833" y="560" on="0"/>
        <pt x="860" y="581" on="0"/>
        <pt x="946" y="617" on="0"/>
        <pt x="990" y="617" on="1"/>
        <pt x="1024" y="617" on="0"/>
        <pt x="1063" y="595" on="0"/>
        <pt x="1066" y="584" on="1"/>
        <pt x="1069" y="573" on="1"/>
        <pt x="1020" y="532" on="0"/>
        <pt x="988" y="438" on="0"/>
        <pt x="988" y="345" on="1"/>
        <pt x="988" y="218" on="0"/>
        <pt x="1043" y="87" on="0"/>
        <pt x="1115" y="26" on="1"/>
        <pt x="1115" y="-8" on="0"/>
        <pt x="1039" y="-50" on="0"/>
        <pt x="984" y="-50" on="1"/>
        <pt x="948" y="-50" on="0"/>
        <pt x="860" y="6" on="0"/>
        <pt x="832" y="56" on="1"/>
        <pt x="724" y="-94" on="0"/>
        <pt x="526" y="-94" on="1"/>
        <pt x="349" y="-94" on="0"/>
        <pt x="147" y="138" on="0"/>
        <pt x="147" y="386" on="1"/>
        <pt x="147" y="481" on="0"/>
        <pt x="125" y="621" on="0"/>
        <pt x="93" y="689" on="0"/>
        <pt x="61" y="729" on="0"/>
        <pt x="39" y="748" on="0"/>
        <pt x="39" y="756" on="1"/>
        <pt x="39" y="766" on="0"/>
        <pt x="61" y="785" on="0"/>
        <pt x="93" y="821" on="0"/>
        <pt x="125" y="885" on="0"/>
        <pt x="147" y="1027" on="0"/>
      </contour>
    </TTGlyph>
    <TTGlyph name="Gbreve" xMin="39" yMin="-94" xMax="1115" yMax="1997">
      <component glyphName="breve" x="190" y="582" flags="0x1004"/>
      <component glyphName="G" x="0" y="0" flags="0x1204"/>
    </TTGlyph>
    <TTGlyph name="Gcommaaccent" xMin="39" yMin="-738" xMax="1115" yMax="1586">
      <component glyphName="uni0326" x="338" y="-385" flags="0x1004"/>
      <component glyphName="G" x="0" y="0" flags="0x1204"/>
    </TTGlyph>
    <TTGlyph name="Gdotaccent" xMin="39" yMin="-94" xMax="1115" yMax="1936">
      <component glyphName="uni0307" x="371" y="559" flags="0x1004"/>
      <component glyphName="G" x="0" y="0" flags="0x1204"/>
    </TTGlyph>
    <TTGlyph name="H" xMin="59" yMin="-50" xMax="1257" yMax="1562">
      <contour>
        <pt x="655" y="679" on="1"/>
        <pt x="625" y="679" on="0"/>
        <pt x="579" y="671" on="0"/>
        <pt x="546" y="649" on="0"/>
        <pt x="522" y="627" on="0"/>
        <pt x="507" y="580" on="0"/>
        <pt x="498" y="544" on="0"/>
        <pt x="494" y="473" on="0"/>
        <pt x="493" y="421" on="0"/>
        <pt x="493" y="374" on="1"/>
        <pt x="493" y="233" on="0"/>
        <pt x="546" y="75" on="0"/>
        <pt x="614" y="10" on="1"/>
        <pt x="614" y="8" on="0"/>
        <pt x="612" y="-1" on="0"/>
        <pt x="599" y="-21" on="0"/>
        <pt x="579" y="-37" on="0"/>
        <pt x="537" y="-50" on="0"/>
        <pt x="509" y="-50" on="1"/>
        <pt x="460" y="-50" on="0"/>
        <pt x="373" y="8" on="0"/>
        <pt x="354" y="36" on="1"/>
        <pt x="334" y="65" on="1"/>
        <pt x="332" y="60" on="0"/>
        <pt x="322" y="45" on="0"/>
        <pt x="290" y="5" on="0"/>
        <pt x="253" y="-25" on="0"/>
        <pt x="196" y="-50" on="0"/>
        <pt x="165" y="-50" on="1"/>
        <pt x="121" y="-50" on="0"/>
        <pt x="68" y="-20" on="0"/>
        <pt x="64" y="-5" on="1"/>
        <pt x="59" y="10" on="1"/>
        <pt x="127" y="75" on="0"/>
        <pt x="180" y="234" on="0"/>
        <pt x="180" y="374" on="1"/>
        <pt x="180" y="470" on="0"/>
        <pt x="158" y="612" on="0"/>
        <pt x="126" y="683" on="0"/>
        <pt x="93" y="726" on="0"/>
        <pt x="71" y="748" on="0"/>
        <pt x="71" y="756" on="1"/>
        <pt x="71" y="767" on="0"/>
        <pt x="93" y="787" on="0"/>
        <pt x="126" y="825" on="0"/>
        <pt x="158" y="893" on="0"/>
        <pt x="180" y="1042" on="0"/>
        <pt x="180" y="1148" on="1"/>
        <pt x="180" y="1285" on="0"/>
        <pt x="127" y="1438" on="0"/>
        <pt x="59" y="1503" on="1"/>
        <pt x="59" y="1505" on="0"/>
        <pt x="61" y="1513" on="0"/>
        <pt x="73" y="1534" on="0"/>
        <pt x="94" y="1549" on="0"/>
        <pt x="136" y="1562" on="0"/>
        <pt x="165" y="1562" on="1"/>
        <pt x="196" y="1562" on="0"/>
        <pt x="253" y="1540" on="0"/>
        <pt x="291" y="1510" on="0"/>
        <pt x="320" y="1479" on="0"/>
        <pt x="327" y="1468" on="1"/>
        <pt x="334" y="1457" on="1"/>
        <pt x="337" y="1461" on="0"/>
        <pt x="347" y="1475" on="0"/>
        <pt x="381" y="1512" on="0"/>
        <pt x="419" y="1539" on="0"/>
        <pt x="478" y="1562" on="0"/>
        <pt x="509" y="1562" on="1"/>
        <pt x="554" y="1562" on="0"/>
        <pt x="606" y="1532" on="0"/>
        <pt x="610" y="1518" on="1"/>
        <pt x="614" y="1503" on="1"/>
        <pt x="546" y="1438" on="0"/>
        <pt x="493" y="1285" on="0"/>
        <pt x="493" y="1148" on="1"/>
        <pt x="493" y="1143" on="0"/>
        <pt x="493" y="1122" on="0"/>
        <pt x="493" y="1117" on="1"/>
        <pt x="493" y="1083" on="0"/>
        <pt x="494" y="1043" on="0"/>
        <pt x="496" y="990" on="0"/>
        <pt x="500" y="960" on="0"/>
        <pt x="509" y="921" on="0"/>
        <pt x="521" y="901" on="0"/>
        <pt x="538" y="876" on="0"/>
        <pt x="562" y="863" on="0"/>
        <pt x="592" y="851" on="0"/>
        <pt x="630" y="847" on="0"/>
        <pt x="654" y="847" on="1"/>
        <pt x="689" y="847" on="0"/>
        <pt x="741" y="858" on="0"/>
        <pt x="777" y="875" on="0"/>
        <pt x="800" y="914" on="0"/>
        <pt x="814" y="948" on="0"/>
        <pt x="820" y="1019" on="0"/>
        <pt x="821" y="1072" on="0"/>
        <pt x="821" y="1124" on="1"/>
        <pt x="821" y="1128" on="0"/>
        <pt x="821" y="1144" on="0"/>
        <pt x="821" y="1148" on="1"/>
        <pt x="821" y="1285" on="0"/>
        <pt x="768" y="1438" on="0"/>
        <pt x="700" y="1503" on="1"/>
        <pt x="700" y="1505" on="0"/>
        <pt x="702" y="1513" on="0"/>
        <pt x="715" y="1534" on="0"/>
        <pt x="736" y="1549" on="0"/>
        <pt x="778" y="1562" on="0"/>
        <pt x="806" y="1562" on="1"/>
        <pt x="837" y="1562" on="0"/>
        <pt x="895" y="1540" on="0"/>
        <pt x="935" y="1510" on="0"/>
        <pt x="966" y="1479" on="0"/>
        <pt x="974" y="1468" on="1"/>
        <pt x="981" y="1457" on="1"/>
        <pt x="983" y="1461" on="0"/>
        <pt x="993" y="1475" on="0"/>
        <pt x="1026" y="1512" on="0"/>
        <pt x="1063" y="1539" on="0"/>
        <pt x="1121" y="1562" on="0"/>
        <pt x="1152" y="1562" on="1"/>
        <pt x="1197" y="1562" on="0"/>
        <pt x="1249" y="1532" on="0"/>
        <pt x="1253" y="1518" on="1"/>
        <pt x="1257" y="1503" on="1"/>
        <pt x="1189" y="1438" on="0"/>
        <pt x="1136" y="1285" on="0"/>
        <pt x="1136" y="1148" on="1"/>
        <pt x="1136" y="1042" on="0"/>
        <pt x="1158" y="893" on="0"/>
        <pt x="1190" y="825" on="0"/>
        <pt x="1223" y="787" on="0"/>
        <pt x="1245" y="767" on="0"/>
        <pt x="1245" y="756" on="1"/>
        <pt x="1245" y="748" on="0"/>
        <pt x="1223" y="726" on="0"/>
        <pt x="1190" y="683" on="0"/>
        <pt x="1158" y="612" on="0"/>
        <pt x="1136" y="470" on="0"/>
        <pt x="1136" y="374" on="1"/>
        <pt x="1136" y="234" on="0"/>
        <pt x="1189" y="75" on="0"/>
        <pt x="1257" y="10" on="1"/>
        <pt x="1257" y="8" on="0"/>
        <pt x="1255" y="-1" on="0"/>
        <pt x="1243" y="-21" on="0"/>
        <pt x="1223" y="-37" on="0"/>
        <pt x="1180" y="-50" on="0"/>
        <pt x="1152" y="-50" on="1"/>
        <pt x="1103" y="-50" on="0"/>
        <pt x="1018" y="8" on="0"/>
        <pt x="1000" y="36" on="1"/>
        <pt x="981" y="65" on="1"/>
        <pt x="978" y="60" on="0"/>
        <pt x="968" y="45" on="0"/>
        <pt x="934" y="5" on="0"/>
        <pt x="896" y="-25" on="0"/>
        <pt x="837" y="-50" on="0"/>
        <pt x="806" y="-50" on="1"/>
        <pt x="762" y="-50" on="0"/>
        <pt x="709" y="-20" on="0"/>
        <pt x="704" y="-5" on="1"/>
        <pt x="700" y="10" on="1"/>
        <pt x="768" y="75" on="0"/>
        <pt x="821" y="234" on="0"/>
        <pt x="821" y="374" on="1"/>
        <pt x="821" y="417" on="0"/>
        <pt x="820" y="464" on="0"/>
        <pt x="817" y="530" on="0"/>
        <pt x="811" y="564" on="0"/>
        <pt x="800" y="610" on="0"/>
        <pt x="783" y="633" on="0"/>
        <pt x="758" y="659" on="0"/>
        <pt x="725" y="671" on="0"/>
        <pt x="682" y="679" on="0"/>
      </contour>
    </TTGlyph>
    <TTGlyph name="I" xMin="59" yMin="-50" xMax="600" yMax="1562">
      <contour>
        <pt x="180" y="389" on="1"/>
        <pt x="180" y="484" on="0"/>
        <pt x="158" y="622" on="0"/>
        <pt x="126" y="689" on="0"/>
        <pt x="93" y="729" on="0"/>
        <pt x="71" y="749" on="0"/>
        <pt x="71" y="756" on="1"/>
        <pt x="71" y="767" on="0"/>
        <pt x="93" y="787" on="0"/>
        <pt x="126" y="825" on="0"/>
        <pt x="158" y="893" on="0"/>
        <pt x="180" y="1042" on="0"/>
        <pt x="180" y="1148" on="1"/>
        <pt x="180" y="1288" on="0"/>
        <pt x="128" y="1436" on="0"/>
        <pt x="59" y="1503" on="1"/>
        <pt x="59" y="1505" on="0"/>
        <pt x="61" y="1513" on="0"/>
        <pt x="73" y="1534" on="0"/>
        <pt x="93" y="1549" on="0"/>
        <pt x="136" y="1562" on="0"/>
        <pt x="164" y="1562" on="1"/>
        <pt x="193" y="1562" on="0"/>
        <pt x="249" y="1540" on="0"/>
        <pt x="286" y="1510" on="0"/>
        <pt x="315" y="1479" on="0"/>
        <pt x="322" y="1468" on="1"/>
        <pt x="329" y="1457" on="1"/>
        <pt x="332" y="1461" on="0"/>
        <pt x="341" y="1475" on="0"/>
        <pt x="374" y="1512" on="0"/>
        <pt x="409" y="1539" on="0"/>
        <pt x="465" y="1562" on="0"/>
        <pt x="494" y="1562" on="1"/>
        <pt x="539" y="1562" on="0"/>
        <pt x="592" y="1532" on="0"/>
        <pt x="596" y="1518" on="1"/>
        <pt x="600" y="1503" on="1"/>
        <pt x="531" y="1436" on="0"/>
        <pt x="479" y="1288" on="0"/>
        <pt x="479" y="1148" on="1"/>
        <pt x="479" y="1059" on="0"/>
        <pt x="495" y="924" on="0"/>
        <pt x="519" y="852" on="0"/>
        <pt x="548" y="803" on="0"/>
        <pt x="572" y="784" on="0"/>
        <pt x="588" y="766" on="0"/>
        <pt x="588" y="756" on="1"/>
        <pt x="588" y="749" on="0"/>
        <pt x="566" y="729" on="0"/>
        <pt x="534" y="689" on="0"/>
        <pt x="501" y="622" on="0"/>
        <pt x="479" y="484" on="0"/>
        <pt x="479" y="389" on="1"/>
        <pt x="479" y="241" on="0"/>
        <pt x="531" y="80" on="0"/>
        <pt x="600" y="10" on="1"/>
        <pt x="600" y="8" on="0"/>
        <pt x="598" y="-1" on="0"/>
        <pt x="586" y="-21" on="0"/>
        <pt x="565" y="-37" on="0"/>
        <pt x="523" y="-50" on="0"/>
        <pt x="494" y="-50" on="1"/>
        <pt x="448" y="-50" on="0"/>
        <pt x="366" y="8" on="0"/>
        <pt x="348" y="36" on="1"/>
        <pt x="329" y="65" on="1"/>
        <pt x="327" y="60" on="0"/>
        <pt x="317" y="45" on="0"/>
        <pt x="285" y="5" on="0"/>
        <pt x="249" y="-25" on="0"/>
        <pt x="193" y="-50" on="0"/>
        <pt x="164" y="-50" on="1"/>
        <pt x="136" y="-50" on="0"/>
        <pt x="94" y="-38" on="0"/>
        <pt x="74" y="-20" on="0"/>
        <pt x="61" y="-2" on="0"/>
        <pt x="60" y="4" on="1"/>
        <pt x="59" y="10" on="1"/>
        <pt x="128" y="80" on="0"/>
        <pt x="180" y="241" on="0"/>
      </contour>
    </TTGlyph>
    <TTGlyph name="IJ" xMin="59" yMin="-207" xMax="1453" yMax="1562">
      <contour>
        <pt x="180" y="375" on="1"/>
        <pt x="180" y="473" on="0"/>
        <pt x="158" y="617" on="0"/>
        <pt x="126" y="687" on="0"/>
        <pt x="93" y="728" on="0"/>
        <pt x="71" y="748" on="0"/>
        <pt x="71" y="756" on="1"/>
        <pt x="71" y="767" on="0"/>
        <pt x="93" y="787" on="0"/>
        <pt x="126" y="825" on="0"/>
        <pt x="158" y="893" on="0"/>
        <pt x="180" y="1042" on="0"/>
        <pt x="180" y="1148" on="1"/>
        <pt x="180" y="1288" on="0"/>
        <pt x="128" y="1436" on="0"/>
        <pt x="59" y="1503" on="1"/>
        <pt x="59" y="1505" on="0"/>
        <pt x="61" y="1513" on="0"/>
        <pt x="73" y="1534" on="0"/>
        <pt x="93" y="1549" on="0"/>
        <pt x="136" y="1562" on="0"/>
        <pt x="164" y="1562" on="1"/>
        <pt x="193" y="1562" on="0"/>
        <pt x="249" y="1540" on="0"/>
        <pt x="286" y="1510" on="0"/>
        <pt x="315" y="1479" on="0"/>
        <pt x="322" y="1468" on="1"/>
        <pt x="329" y="1457" on="1"/>
        <pt x="332" y="1461" on="0"/>
        <pt x="341" y="1475" on="0"/>
        <pt x="374" y="1512" on="0"/>
        <pt x="409" y="1539" on="0"/>
        <pt x="465" y="1562" on="0"/>
        <pt x="494" y="1562" on="1"/>
        <pt x="539" y="1562" on="0"/>
        <pt x="592" y="1532" on="0"/>
        <pt x="596" y="1518" on="1"/>
        <pt x="600" y="1503" on="1"/>
        <pt x="531" y="1436" on="0"/>
        <pt x="479" y="1288" on="0"/>
        <pt x="479" y="1148" on="1"/>
        <pt x="479" y="1059" on="0"/>
        <pt x="495" y="924" on="0"/>
        <pt x="519" y="852" on="0"/>
        <pt x="548" y="803" on="0"/>
        <pt x="572" y="784" on="0"/>
        <pt x="588" y="766" on="0"/>
        <pt x="588" y="756" on="1"/>
        <pt x="588" y="748" on="0"/>
        <pt x="566" y="728" on="0"/>
        <pt x="534" y="687" on="0"/>
        <pt x="501" y="617" on="0"/>
        <pt x="479" y="473" on="0"/>
        <pt x="479" y="375" on="1"/>
        <pt x="479" y="223" on="0"/>
        <pt x="531" y="58" on="0"/>
        <pt x="600" y="-14" on="1"/>
        <pt x="600" y="-16" on="0"/>
        <pt x="598" y="-25" on="0"/>
        <pt x="586" y="-45" on="0"/>
        <pt x="565" y="-61" on="0"/>
        <pt x="523" y="-74" on="0"/>
        <pt x="494" y="-74" on="1"/>
        <pt x="448" y="-74" on="0"/>
        <pt x="366" y="-16" on="0"/>
        <pt x="348" y="12" on="1"/>
        <pt x="329" y="41" on="1"/>
        <pt x="327" y="36" on="0"/>
        <pt x="317" y="21" on="0"/>
        <pt x="285" y="-19" on="0"/>
        <pt x="249" y="-49" on="0"/>
        <pt x="193" y="-74" on="0"/>
        <pt x="164" y="-74" on="1"/>
        <pt x="136" y="-74" on="0"/>
        <pt x="94" y="-62" on="0"/>
        <pt x="73" y="-44" on="0"/>
        <pt x="61" y="-26" on="0"/>
        <pt x="60" y="-20" on="1"/>
        <pt x="59" y="-14" on="1"/>
        <pt x="128" y="58" on="0"/>
        <pt x="180" y="223" on="0"/>
      </contour>
      <contour>
        <pt x="953" y="-147" on="1"/>
        <pt x="865" y="-147" on="0"/>
        <pt x="767" y="-207" on="1"/>
        <pt x="763" y="-206" on="0"/>
        <pt x="749" y="-201" on="0"/>
        <pt x="727" y="-165" on="0"/>
        <pt x="727" y="-136" on="1"/>
        <pt x="727" y="-106" on="0"/>
        <pt x="756" y="-52" on="0"/>
        <pt x="770" y="-40" on="1"/>
        <pt x="784" y="-27" on="1"/>
        <pt x="778" y="-22" on="0"/>
        <pt x="759" y="-3" on="0"/>
        <pt x="727" y="58" on="0"/>
        <pt x="727" y="91" on="1"/>
        <pt x="727" y="109" on="0"/>
        <pt x="735" y="138" on="0"/>
        <pt x="747" y="152" on="0"/>
        <pt x="759" y="160" on="0"/>
        <pt x="763" y="161" on="1"/>
        <pt x="767" y="162" on="1"/>
        <pt x="796" y="126" on="0"/>
        <pt x="867" y="93" on="0"/>
        <pt x="922" y="93" on="1"/>
        <pt x="938" y="93" on="0"/>
        <pt x="965" y="99" on="0"/>
        <pt x="986" y="113" on="0"/>
        <pt x="1003" y="128" on="0"/>
        <pt x="1015" y="158" on="0"/>
        <pt x="1023" y="181" on="0"/>
        <pt x="1028" y="225" on="0"/>
        <pt x="1031" y="256" on="0"/>
        <pt x="1033" y="314" on="0"/>
        <pt x="1033" y="352" on="0"/>
        <pt x="1033" y="387" on="1"/>
        <pt x="1033" y="485" on="0"/>
        <pt x="1011" y="627" on="0"/>
        <pt x="979" y="694" on="0"/>
        <pt x="947" y="733" on="0"/>
        <pt x="925" y="752" on="0"/>
        <pt x="925" y="759" on="1"/>
        <pt x="925" y="770" on="0"/>
        <pt x="947" y="789" on="0"/>
        <pt x="979" y="826" on="0"/>
        <pt x="1011" y="893" on="0"/>
        <pt x="1033" y="1042" on="0"/>
        <pt x="1033" y="1148" on="1"/>
        <pt x="1033" y="1280" on="0"/>
        <pt x="979" y="1442" on="0"/>
        <pt x="912" y="1503" on="1"/>
        <pt x="912" y="1505" on="0"/>
        <pt x="914" y="1513" on="0"/>
        <pt x="927" y="1534" on="0"/>
        <pt x="947" y="1549" on="0"/>
        <pt x="989" y="1562" on="0"/>
        <pt x="1017" y="1562" on="1"/>
        <pt x="1046" y="1562" on="0"/>
        <pt x="1100" y="1540" on="0"/>
        <pt x="1137" y="1510" on="0"/>
        <pt x="1166" y="1479" on="0"/>
        <pt x="1173" y="1468" on="1"/>
        <pt x="1180" y="1457" on="1"/>
        <pt x="1182" y="1461" on="0"/>
        <pt x="1192" y="1475" on="0"/>
        <pt x="1224" y="1512" on="0"/>
        <pt x="1260" y="1539" on="0"/>
        <pt x="1317" y="1562" on="0"/>
        <pt x="1347" y="1562" on="1"/>
        <pt x="1375" y="1562" on="0"/>
        <pt x="1418" y="1550" on="0"/>
        <pt x="1438" y="1532" on="0"/>
        <pt x="1451" y="1515" on="0"/>
        <pt x="1452" y="1509" on="1"/>
        <pt x="1453" y="1503" on="1"/>
        <pt x="1385" y="1443" on="0"/>
        <pt x="1332" y="1281" on="0"/>
        <pt x="1332" y="1148" on="1"/>
        <pt x="1332" y="1042" on="0"/>
        <pt x="1354" y="893" on="0"/>
        <pt x="1386" y="825" on="0"/>
        <pt x="1417" y="787" on="0"/>
        <pt x="1439" y="767" on="0"/>
        <pt x="1439" y="756" on="1"/>
        <pt x="1439" y="748" on="0"/>
        <pt x="1417" y="729" on="0"/>
        <pt x="1386" y="689" on="0"/>
        <pt x="1354" y="621" on="0"/>
        <pt x="1332" y="481" on="0"/>
        <pt x="1332" y="386" on="1"/>
        <pt x="1332" y="102" on="0"/>
        <pt x="1155" y="-147" on="0"/>
      </contour>
    </TTGlyph>
    <TTGlyph name="Iacute" xMin="59" yMin="-50" xMax="687" yMax="2036">
      <component glyphName="acute" x="163" y="590" flags="0x1004"/>
      <component glyphName="I" x="0" y="0" flags="0x1204"/>
    </TTGlyph>
    <TTGlyph name="Ibreve" xMin="20" yMin="-50" xMax="639" yMax="1997">
      <component glyphName="breve" x="-58" y="582" flags="0x1004"/>
      <component glyphName="I" x="0" y="0" flags="0x1204"/>
    </TTGlyph>
    <TTGlyph name="Icircumflex" xMin="-29" yMin="-50" xMax="619" yMax="2024">
      <component glyphName="circumflex" x="-100" y="589" flags="0x1004"/>
      <component glyphName="I" x="0" y="0" flags="0x1204"/>
    </TTGlyph>
    <TTGlyph name="Idieresis" xMin="-32" yMin="-50" xMax="612" yMax="1936">
      <component glyphName="dieresis" x="-114" y="559" flags="0x1004"/>
      <component glyphName="I" x="0" y="0" flags="0x1204"/>
    </TTGlyph>
    <TTGlyph name="Idotaccent" xMin="59" yMin="-50" xMax="600" yMax="1936">
      <component glyphName="uni0307" x="124" y="559" flags="0x1004"/>
      <component glyphName="I" x="0" y="0" flags="0x1204"/>
    </TTGlyph>
    <TTGlyph name="Igrave" xMin="-62" yMin="-50" xMax="600" yMax="2036">
      <component glyphName="grave" x="-133" y="590" flags="0x1004"/>
      <component glyphName="I" x="0" y="0" flags="0x1204"/>
    </TTGlyph>
    <TTGlyph name="Imacron" xMin="14" yMin="-50" xMax="645" yMax="1815">
      <component glyphName="macron" x="-74" y="504" flags="0x1004"/>
      <component glyphName="I" x="0" y="0" flags="0x1204"/>
    </TTGlyph>
    <TTGlyph name="Iogonek" xMin="59" yMin="-494" xMax="600" yMax="1562">
      <component glyphName="ogonek" x="-23" y="-60" flags="0x1004"/>
      <component glyphName="I" x="0" y="0" flags="0x1204"/>
    </TTGlyph>
    <TTGlyph name="Itilde" xMin="-23" yMin="-50" xMax="682" yMax="1959">
      <component glyphName="tilde" x="-103" y="561" flags="0x1004"/>
      <component glyphName="I" x="0" y="0" flags="0x1204"/>
    </TTGlyph>
    <TTGlyph name="J" xMin="21" yMin="-207" xMax="747" yMax="1562">
      <contour>
        <pt x="247" y="-147" on="1"/>
        <pt x="159" y="-147" on="0"/>
        <pt x="61" y="-207" on="1"/>
        <pt x="57" y="-206" on="0"/>
        <pt x="43" y="-201" on="0"/>
        <pt x="21" y="-165" on="0"/>
        <pt x="21" y="-136" on="1"/>
        <pt x="21" y="-106" on="0"/>
        <pt x="49" y="-52" on="0"/>
        <pt x="64" y="-40" on="1"/>
        <pt x="78" y="-27" on="1"/>
        <pt x="72" y="-22" on="0"/>
        <pt x="53" y="-3" on="0"/>
        <pt x="21" y="58" on="0"/>
        <pt x="21" y="91" on="1"/>
        <pt x="21" y="109" on="0"/>
        <pt x="29" y="138" on="0"/>
        <pt x="41" y="152" on="0"/>
        <pt x="53" y="160" on="0"/>
        <pt x="57" y="161" on="1"/>
        <pt x="61" y="162" on="1"/>
        <pt x="90" y="126" on="0"/>
        <pt x="161" y="93" on="0"/>
        <pt x="216" y="93" on="1"/>
        <pt x="232" y="93" on="0"/>
        <pt x="259" y="99" on="0"/>
        <pt x="280" y="113" on="0"/>
        <pt x="297" y="128" on="0"/>
        <pt x="309" y="158" on="0"/>
        <pt x="317" y="181" on="0"/>
        <pt x="322" y="225" on="0"/>
        <pt x="325" y="256" on="0"/>
        <pt x="327" y="314" on="0"/>
        <pt x="327" y="352" on="0"/>
        <pt x="327" y="387" on="1"/>
        <pt x="327" y="485" on="0"/>
        <pt x="305" y="627" on="0"/>
        <pt x="273" y="694" on="0"/>
        <pt x="241" y="733" on="0"/>
        <pt x="219" y="752" on="0"/>
        <pt x="219" y="759" on="1"/>
        <pt x="219" y="770" on="0"/>
        <pt x="241" y="789" on="0"/>
        <pt x="273" y="826" on="0"/>
        <pt x="305" y="893" on="0"/>
        <pt x="327" y="1042" on="0"/>
        <pt x="327" y="1148" on="1"/>
        <pt x="327" y="1280" on="0"/>
        <pt x="273" y="1442" on="0"/>
        <pt x="206" y="1503" on="1"/>
        <pt x="206" y="1505" on="0"/>
        <pt x="208" y="1513" on="0"/>
        <pt x="221" y="1534" on="0"/>
        <pt x="241" y="1549" on="0"/>
        <pt x="283" y="1562" on="0"/>
        <pt x="311" y="1562" on="1"/>
        <pt x="340" y="1562" on="0"/>
        <pt x="394" y="1540" on="0"/>
        <pt x="431" y="1510" on="0"/>
        <pt x="460" y="1479" on="0"/>
        <pt x="467" y="1468" on="1"/>
        <pt x="474" y="1457" on="1"/>
        <pt x="476" y="1461" on="0"/>
        <pt x="486" y="1475" on="0"/>
        <pt x="518" y="1512" on="0"/>
        <pt x="554" y="1539" on="0"/>
        <pt x="611" y="1562" on="0"/>
        <pt x="641" y="1562" on="1"/>
        <pt x="669" y="1562" on="0"/>
        <pt x="712" y="1550" on="0"/>
        <pt x="732" y="1532" on="0"/>
        <pt x="745" y="1515" on="0"/>
        <pt x="746" y="1509" on="1"/>
        <pt x="747" y="1503" on="1"/>
        <pt x="679" y="1443" on="0"/>
        <pt x="626" y="1281" on="0"/>
        <pt x="626" y="1148" on="1"/>
        <pt x="626" y="1042" on="0"/>
        <pt x="648" y="893" on="0"/>
        <pt x="680" y="825" on="0"/>
        <pt x="711" y="787" on="0"/>
        <pt x="733" y="767" on="0"/>
        <pt x="733" y="756" on="1"/>
        <pt x="733" y="748" on="0"/>
        <pt x="711" y="729" on="0"/>
        <pt x="680" y="689" on="0"/>
        <pt x="648" y="621" on="0"/>
        <pt x="626" y="481" on="0"/>
        <pt x="626" y="386" on="1"/>
        <pt x="626" y="102" on="0"/>
        <pt x="449" y="-147" on="0"/>
      </contour>
    </TTGlyph>
    <TTGlyph name="Jcircumflex" xMin="21" yMin="-207" xMax="747" yMax="2024">
      <component glyphName="circumflex" x="-11" y="589" flags="0x1004"/>
      <component glyphName="J" x="0" y="0" flags="0x1204"/>
    </TTGlyph>
    <TTGlyph name="K" xMin="55" yMin="-92" xMax="1378" yMax="1562">
      <contour>
        <pt x="969" y="-92" on="1"/>
        <pt x="913" y="-92" on="0"/>
        <pt x="805" y="188" on="0"/>
        <pt x="747" y="523" on="0"/>
        <pt x="747" y="635" on="1"/>
        <pt x="747" y="649" on="1"/>
        <pt x="732" y="662" on="0"/>
        <pt x="687" y="662" on="1"/>
        <pt x="680" y="662" on="0"/>
        <pt x="652" y="661" on="0"/>
        <pt x="645" y="661" on="1"/>
        <pt x="577" y="661" on="1"/>
        <pt x="541" y="661" on="0"/>
        <pt x="515" y="665" on="1"/>
        <pt x="504" y="406" on="1"/>
        <pt x="504" y="236" on="0"/>
        <pt x="569" y="51" on="0"/>
        <pt x="654" y="-33" on="1"/>
        <pt x="653" y="-35" on="0"/>
        <pt x="649" y="-43" on="0"/>
        <pt x="631" y="-64" on="0"/>
        <pt x="607" y="-79" on="0"/>
        <pt x="563" y="-92" on="0"/>
        <pt x="536" y="-92" on="1"/>
        <pt x="506" y="-92" on="0"/>
        <pt x="447" y="-64" on="0"/>
        <pt x="405" y="-24" on="0"/>
        <pt x="372" y="17" on="0"/>
        <pt x="364" y="31" on="1"/>
        <pt x="355" y="45" on="1"/>
        <pt x="352" y="39" on="0"/>
        <pt x="341" y="21" on="0"/>
        <pt x="303" y="-26" on="0"/>
        <pt x="264" y="-62" on="0"/>
        <pt x="204" y="-92" on="0"/>
        <pt x="174" y="-92" on="1"/>
        <pt x="141" y="-92" on="0"/>
        <pt x="91" y="-78" on="0"/>
        <pt x="68" y="-56" on="0"/>
        <pt x="58" y="-40" on="0"/>
        <pt x="56" y="-33" on="1"/>
        <pt x="133" y="51" on="0"/>
        <pt x="194" y="237" on="0"/>
        <pt x="194" y="406" on="1"/>
        <pt x="194" y="501" on="0"/>
        <pt x="168" y="643" on="0"/>
        <pt x="132" y="715" on="0"/>
        <pt x="96" y="759" on="0"/>
        <pt x="70" y="781" on="0"/>
        <pt x="70" y="788" on="1"/>
        <pt x="70" y="798" on="0"/>
        <pt x="88" y="816" on="0"/>
        <pt x="116" y="833" on="0"/>
        <pt x="148" y="874" on="0"/>
        <pt x="176" y="929" on="0"/>
        <pt x="194" y="1034" on="0"/>
        <pt x="194" y="1102" on="1"/>
        <pt x="194" y="1258" on="0"/>
        <pt x="134" y="1424" on="0"/>
        <pt x="55" y="1499" on="1"/>
        <pt x="56" y="1502" on="0"/>
        <pt x="60" y="1510" on="0"/>
        <pt x="78" y="1531" on="0"/>
        <pt x="103" y="1548" on="0"/>
        <pt x="147" y="1561" on="0"/>
        <pt x="174" y="1561" on="1"/>
        <pt x="204" y="1561" on="0"/>
        <pt x="263" y="1536" on="0"/>
        <pt x="305" y="1502" on="0"/>
        <pt x="338" y="1467" on="0"/>
        <pt x="346" y="1454" on="1"/>
        <pt x="355" y="1442" on="1"/>
        <pt x="358" y="1447" on="0"/>
        <pt x="369" y="1463" on="0"/>
        <pt x="406" y="1504" on="0"/>
        <pt x="446" y="1535" on="0"/>
        <pt x="506" y="1561" on="0"/>
        <pt x="536" y="1561" on="1"/>
        <pt x="570" y="1561" on="0"/>
        <pt x="620" y="1547" on="0"/>
        <pt x="643" y="1524" on="0"/>
        <pt x="652" y="1508" on="0"/>
        <pt x="654" y="1500" on="1"/>
        <pt x="569" y="1427" on="0"/>
        <pt x="504" y="1263" on="0"/>
        <pt x="504" y="1113" on="1"/>
        <pt x="504" y="962" on="0"/>
        <pt x="513" y="849" on="1"/>
        <pt x="539" y="843" on="0"/>
        <pt x="579" y="843" on="1"/>
        <pt x="611" y="843" on="0"/>
        <pt x="695" y="850" on="0"/>
        <pt x="720" y="853" on="1"/>
        <pt x="746" y="856" on="1"/>
        <pt x="754" y="907" on="0"/>
        <pt x="780" y="1113" on="0"/>
        <pt x="799" y="1242" on="0"/>
        <pt x="850" y="1419" on="0"/>
        <pt x="888" y="1491" on="1"/>
        <pt x="889" y="1494" on="0"/>
        <pt x="893" y="1503" on="0"/>
        <pt x="907" y="1528" on="0"/>
        <pt x="924" y="1547" on="0"/>
        <pt x="953" y="1562" on="0"/>
        <pt x="969" y="1562" on="1"/>
        <pt x="997" y="1562" on="0"/>
        <pt x="1043" y="1509" on="0"/>
        <pt x="1052" y="1482" on="1"/>
        <pt x="1061" y="1456" on="1"/>
        <pt x="1065" y="1460" on="0"/>
        <pt x="1079" y="1475" on="0"/>
        <pt x="1122" y="1511" on="0"/>
        <pt x="1164" y="1539" on="0"/>
        <pt x="1221" y="1562" on="0"/>
        <pt x="1246" y="1562" on="1"/>
        <pt x="1287" y="1562" on="0"/>
        <pt x="1343" y="1550" on="0"/>
        <pt x="1368" y="1529" on="0"/>
        <pt x="1378" y="1513" on="0"/>
        <pt x="1378" y="1505" on="1"/>
        <pt x="1257" y="1450" on="0"/>
        <pt x="1130" y="1262" on="0"/>
        <pt x="1130" y="1146" on="1"/>
        <pt x="1130" y="1062" on="0"/>
        <pt x="1105" y="932" on="0"/>
        <pt x="1065" y="858" on="0"/>
        <pt x="1018" y="806" on="0"/>
        <pt x="970" y="784" on="0"/>
        <pt x="930" y="769" on="0"/>
        <pt x="905" y="757" on="0"/>
        <pt x="905" y="737" on="0"/>
        <pt x="938" y="720" on="0"/>
        <pt x="988" y="705" on="0"/>
        <pt x="1047" y="659" on="0"/>
        <pt x="1097" y="591" on="0"/>
        <pt x="1130" y="455" on="0"/>
        <pt x="1130" y="364" on="1"/>
        <pt x="1130" y="239" on="0"/>
        <pt x="1257" y="27" on="0"/>
        <pt x="1378" y="-35" on="1"/>
        <pt x="1371" y="-92" on="0"/>
        <pt x="1246" y="-92" on="1"/>
        <pt x="1209" y="-92" on="0"/>
        <pt x="1121" y="-24" on="0"/>
        <pt x="1096" y="10" on="1"/>
        <pt x="1071" y="43" on="1"/>
        <pt x="1070" y="38" on="0"/>
        <pt x="1064" y="19" on="0"/>
        <pt x="1045" y="-27" on="0"/>
        <pt x="1023" y="-63" on="0"/>
        <pt x="988" y="-92" on="0"/>
      </contour>
    </TTGlyph>
    <TTGlyph name="Kcommaaccent" xMin="55" yMin="-736" xMax="1378" yMax="1562">
      <component glyphName="uni0326" x="477" y="-383" flags="0x1004"/>
      <component glyphName="K" x="0" y="0" flags="0x1204"/>
    </TTGlyph>
    <TTGlyph name="L" xMin="58" yMin="-50" xMax="818" yMax="1562">
      <contour>
        <pt x="478" y="395" on="1"/>
        <pt x="478" y="384" on="0"/>
        <pt x="478" y="360" on="0"/>
        <pt x="478" y="341" on="0"/>
        <pt x="477" y="321" on="0"/>
        <pt x="477" y="305" on="0"/>
        <pt x="477" y="289" on="0"/>
        <pt x="477" y="283" on="1"/>
        <pt x="477" y="239" on="0"/>
        <pt x="489" y="213" on="0"/>
        <pt x="510" y="213" on="1"/>
        <pt x="516" y="213" on="0"/>
        <pt x="582" y="219" on="0"/>
        <pt x="610" y="219" on="1"/>
        <pt x="675" y="219" on="0"/>
        <pt x="739" y="249" on="0"/>
        <pt x="778" y="288" on="1"/>
        <pt x="780" y="288" on="0"/>
        <pt x="785" y="287" on="0"/>
        <pt x="799" y="278" on="0"/>
        <pt x="809" y="265" on="0"/>
        <pt x="818" y="236" on="0"/>
        <pt x="818" y="218" on="1"/>
        <pt x="818" y="192" on="0"/>
        <pt x="789" y="143" on="0"/>
        <pt x="768" y="124" on="0"/>
        <pt x="761" y="120" on="1"/>
        <pt x="764" y="118" on="1"/>
        <pt x="767" y="115" on="0"/>
        <pt x="775" y="109" on="0"/>
        <pt x="785" y="98" on="0"/>
        <pt x="795" y="86" on="0"/>
        <pt x="806" y="70" on="0"/>
        <pt x="813" y="53" on="0"/>
        <pt x="818" y="32" on="0"/>
        <pt x="818" y="21" on="1"/>
        <pt x="818" y="3" on="0"/>
        <pt x="810" y="-26" on="0"/>
        <pt x="798" y="-40" on="0"/>
        <pt x="786" y="-48" on="0"/>
        <pt x="782" y="-49" on="1"/>
        <pt x="778" y="-50" on="1"/>
        <pt x="725" y="-16" on="0"/>
        <pt x="658" y="10" on="0"/>
        <pt x="619" y="10" on="1"/>
        <pt x="584" y="10" on="0"/>
        <pt x="490" y="-50" on="0"/>
        <pt x="463" y="-50" on="1"/>
        <pt x="398" y="-50" on="0"/>
        <pt x="320" y="64" on="1"/>
        <pt x="318" y="59" on="0"/>
        <pt x="309" y="44" on="0"/>
        <pt x="278" y="5" on="0"/>
        <pt x="244" y="-25" on="0"/>
        <pt x="191" y="-50" on="0"/>
        <pt x="164" y="-50" on="1"/>
        <pt x="119" y="-50" on="0"/>
        <pt x="67" y="-20" on="0"/>
        <pt x="63" y="-5" on="1"/>
        <pt x="59" y="10" on="1"/>
        <pt x="79" y="23" on="0"/>
        <pt x="110" y="49" on="0"/>
        <pt x="135" y="72" on="0"/>
        <pt x="152" y="109" on="0"/>
        <pt x="165" y="134" on="0"/>
        <pt x="172" y="188" on="0"/>
        <pt x="177" y="221" on="0"/>
        <pt x="179" y="297" on="0"/>
        <pt x="179" y="344" on="0"/>
        <pt x="179" y="395" on="1"/>
        <pt x="179" y="488" on="0"/>
        <pt x="157" y="624" on="0"/>
        <pt x="125" y="690" on="0"/>
        <pt x="92" y="729" on="0"/>
        <pt x="70" y="749" on="0"/>
        <pt x="70" y="756" on="1"/>
        <pt x="70" y="767" on="0"/>
        <pt x="92" y="787" on="0"/>
        <pt x="125" y="825" on="0"/>
        <pt x="157" y="893" on="0"/>
        <pt x="179" y="1042" on="0"/>
        <pt x="179" y="1148" on="1"/>
        <pt x="179" y="1285" on="0"/>
        <pt x="126" y="1438" on="0"/>
        <pt x="58" y="1503" on="1"/>
        <pt x="58" y="1505" on="0"/>
        <pt x="60" y="1513" on="0"/>
        <pt x="72" y="1534" on="0"/>
        <pt x="92" y="1549" on="0"/>
        <pt x="135" y="1562" on="0"/>
        <pt x="163" y="1562" on="1"/>
        <pt x="196" y="1562" on="0"/>
        <pt x="255" y="1540" on="0"/>
        <pt x="291" y="1510" on="0"/>
        <pt x="318" y="1479" on="0"/>
        <pt x="324" y="1468" on="1"/>
        <pt x="329" y="1457" on="1"/>
        <pt x="331" y="1461" on="0"/>
        <pt x="341" y="1475" on="0"/>
        <pt x="373" y="1512" on="0"/>
        <pt x="409" y="1539" on="0"/>
        <pt x="464" y="1562" on="0"/>
        <pt x="493" y="1562" on="1"/>
        <pt x="521" y="1562" on="0"/>
        <pt x="564" y="1550" on="0"/>
        <pt x="584" y="1532" on="0"/>
        <pt x="597" y="1515" on="0"/>
        <pt x="598" y="1509" on="1"/>
        <pt x="599" y="1503" on="1"/>
        <pt x="531" y="1438" on="0"/>
        <pt x="478" y="1285" on="0"/>
        <pt x="478" y="1148" on="1"/>
        <pt x="478" y="1042" on="0"/>
        <pt x="500" y="893" on="0"/>
        <pt x="532" y="825" on="0"/>
        <pt x="565" y="787" on="0"/>
        <pt x="587" y="767" on="0"/>
        <pt x="587" y="756" on="1"/>
        <pt x="587" y="749" on="0"/>
        <pt x="565" y="729" on="0"/>
        <pt x="532" y="690" on="0"/>
        <pt x="500" y="624" on="0"/>
        <pt x="478" y="488" on="0"/>
      </contour>
    </TTGlyph>
    <TTGlyph name="Lacute" xMin="58" yMin="-50" xMax="818" yMax="2036">
      <component glyphName="acute" x="292" y="590" flags="0x1004"/>
      <component glyphName="L" x="0" y="0" flags="0x1204"/>
    </TTGlyph>
    <TTGlyph name="Lcaron" xMin="60" yMin="-50" xMax="1309" yMax="1586">
      <component glyphName="comma" x="924" y="1327" flags="0x1004"/>
      <component glyphName="L" x="2" y="0" flags="0x1004"/>
    </TTGlyph>
    <TTGlyph name="Lcommaaccent" xMin="58" yMin="-694" xMax="818" yMax="1562">
      <component glyphName="uni0326" x="198" y="-341" flags="0x1004"/>
      <component glyphName="L" x="0" y="0" flags="0x1204"/>
    </TTGlyph>
    <TTGlyph name="Ldot" xMin="58" yMin="-50" xMax="818" yMax="1562">
      <component glyphName="periodcentered" x="156" y="72" flags="0x1004"/>
      <component glyphName="L" x="0" y="0" flags="0x1204"/>
    </TTGlyph>
    <TTGlyph name="Lslash" xMin="46" yMin="-74" xMax="1082" yMax="1562">
      <contour>
        <pt x="776" y="195" on="1"/>
        <pt x="843" y="195" on="0"/>
        <pt x="927" y="227" on="0"/>
        <pt x="964" y="264" on="1"/>
        <pt x="966" y="264" on="0"/>
        <pt x="971" y="263" on="0"/>
        <pt x="985" y="254" on="0"/>
        <pt x="995" y="241" on="0"/>
        <pt x="1004" y="212" on="0"/>
        <pt x="1004" y="194" on="1"/>
        <pt x="1004" y="168" on="0"/>
        <pt x="975" y="119" on="0"/>
        <pt x="954" y="100" on="0"/>
        <pt x="947" y="96" on="1"/>
        <pt x="950" y="94" on="1"/>
        <pt x="953" y="91" on="0"/>
        <pt x="961" y="85" on="0"/>
        <pt x="971" y="74" on="0"/>
        <pt x="981" y="62" on="0"/>
        <pt x="992" y="46" on="0"/>
        <pt x="999" y="29" on="0"/>
        <pt x="1004" y="8" on="0"/>
        <pt x="1004" y="-3" on="1"/>
        <pt x="1004" y="-21" on="0"/>
        <pt x="996" y="-50" on="0"/>
        <pt x="984" y="-64" on="0"/>
        <pt x="972" y="-72" on="0"/>
        <pt x="968" y="-73" on="1"/>
        <pt x="964" y="-74" on="1"/>
        <pt x="870" y="-14" on="0"/>
        <pt x="785" y="-14" on="1"/>
        <pt x="750" y="-14" on="0"/>
        <pt x="636" y="-73" on="0"/>
        <pt x="609" y="-73" on="1"/>
        <pt x="544" y="-73" on="0"/>
        <pt x="466" y="40" on="1"/>
        <pt x="464" y="35" on="0"/>
        <pt x="455" y="20" on="0"/>
        <pt x="424" y="-19" on="0"/>
        <pt x="390" y="-49" on="0"/>
        <pt x="337" y="-74" on="0"/>
        <pt x="310" y="-74" on="1"/>
        <pt x="265" y="-74" on="0"/>
        <pt x="213" y="-44" on="0"/>
        <pt x="209" y="-29" on="1"/>
        <pt x="205" y="-14" on="1"/>
        <pt x="228" y="0" on="0"/>
        <pt x="261" y="27" on="0"/>
        <pt x="287" y="64" on="0"/>
        <pt x="304" y="91" on="0"/>
        <pt x="316" y="147" on="0"/>
        <pt x="322" y="182" on="0"/>
        <pt x="325" y="265" on="0"/>
        <pt x="325" y="317" on="0"/>
        <pt x="325" y="375" on="1"/>
        <pt x="325" y="473" on="0"/>
        <pt x="303" y="617" on="0"/>
        <pt x="270" y="687" on="0"/>
        <pt x="238" y="728" on="0"/>
        <pt x="216" y="748" on="0"/>
        <pt x="216" y="756" on="1"/>
        <pt x="216" y="766" on="0"/>
        <pt x="232" y="784" on="0"/>
        <pt x="256" y="803" on="0"/>
        <pt x="285" y="852" on="0"/>
        <pt x="309" y="924" on="0"/>
        <pt x="325" y="1059" on="0"/>
        <pt x="325" y="1148" on="1"/>
        <pt x="325" y="1285" on="0"/>
        <pt x="272" y="1438" on="0"/>
        <pt x="204" y="1503" on="1"/>
        <pt x="204" y="1505" on="0"/>
        <pt x="206" y="1513" on="0"/>
        <pt x="218" y="1534" on="0"/>
        <pt x="238" y="1549" on="0"/>
        <pt x="281" y="1562" on="0"/>
        <pt x="309" y="1562" on="1"/>
        <pt x="342" y="1562" on="0"/>
        <pt x="401" y="1540" on="0"/>
        <pt x="437" y="1510" on="0"/>
        <pt x="464" y="1479" on="0"/>
        <pt x="470" y="1468" on="1"/>
        <pt x="475" y="1457" on="1"/>
        <pt x="477" y="1461" on="0"/>
        <pt x="487" y="1475" on="0"/>
        <pt x="519" y="1512" on="0"/>
        <pt x="555" y="1539" on="0"/>
        <pt x="610" y="1562" on="0"/>
        <pt x="639" y="1562" on="1"/>
        <pt x="667" y="1562" on="0"/>
        <pt x="710" y="1550" on="0"/>
        <pt x="730" y="1532" on="0"/>
        <pt x="743" y="1515" on="0"/>
        <pt x="744" y="1509" on="1"/>
        <pt x="745" y="1503" on="1"/>
        <pt x="677" y="1438" on="0"/>
        <pt x="624" y="1285" on="0"/>
        <pt x="624" y="1148" on="1"/>
        <pt x="624" y="1042" on="0"/>
        <pt x="646" y="893" on="0"/>
        <pt x="678" y="825" on="0"/>
        <pt x="711" y="787" on="0"/>
        <pt x="733" y="767" on="0"/>
        <pt x="733" y="756" on="1"/>
        <pt x="733" y="748" on="0"/>
        <pt x="711" y="728" on="0"/>
        <pt x="678" y="687" on="0"/>
        <pt x="646" y="617" on="0"/>
        <pt x="624" y="473" on="0"/>
        <pt x="624" y="375" on="1"/>
        <pt x="624" y="303" on="0"/>
        <pt x="630" y="216" on="0"/>
        <pt x="633" y="208" on="1"/>
        <pt x="636" y="200" on="1"/>
        <pt x="636" y="195" on="0"/>
      </contour>
      <contour>
        <pt x="1082" y="659" on="1"/>
        <pt x="46" y="659" on="1"/>
        <pt x="46" y="828" on="1"/>
        <pt x="1082" y="828" on="1"/>
      </contour>
    </TTGlyph>
    <TTGlyph name="M" xMin="49" yMin="-50" xMax="1442" yMax="1562">
      <contour>
        <pt x="969" y="701" on="1"/>
        <pt x="1030" y="811" on="1"/>
        <pt x="1033" y="661" on="0"/>
        <pt x="1033" y="375" on="1"/>
        <pt x="1033" y="232" on="0"/>
        <pt x="980" y="77" on="0"/>
        <pt x="912" y="10" on="1"/>
        <pt x="912" y="8" on="0"/>
        <pt x="914" y="-1" on="0"/>
        <pt x="927" y="-21" on="0"/>
        <pt x="948" y="-37" on="0"/>
        <pt x="990" y="-50" on="0"/>
        <pt x="1018" y="-50" on="1"/>
        <pt x="1064" y="-50" on="0"/>
        <pt x="1146" y="8" on="0"/>
        <pt x="1164" y="36" on="1"/>
        <pt x="1183" y="65" on="1"/>
        <pt x="1185" y="60" on="0"/>
        <pt x="1194" y="45" on="0"/>
        <pt x="1224" y="5" on="0"/>
        <pt x="1258" y="-25" on="0"/>
        <pt x="1310" y="-50" on="0"/>
        <pt x="1337" y="-50" on="1"/>
        <pt x="1382" y="-50" on="0"/>
        <pt x="1434" y="-20" on="0"/>
        <pt x="1438" y="-5" on="1"/>
        <pt x="1442" y="10" on="1"/>
        <pt x="1373" y="77" on="0"/>
        <pt x="1321" y="232" on="0"/>
        <pt x="1321" y="375" on="1"/>
        <pt x="1321" y="473" on="0"/>
        <pt x="1343" y="617" on="0"/>
        <pt x="1376" y="687" on="0"/>
        <pt x="1408" y="728" on="0"/>
        <pt x="1430" y="748" on="0"/>
        <pt x="1430" y="756" on="1"/>
        <pt x="1430" y="766" on="0"/>
        <pt x="1414" y="784" on="0"/>
        <pt x="1390" y="803" on="0"/>
        <pt x="1361" y="852" on="0"/>
        <pt x="1337" y="924" on="0"/>
        <pt x="1321" y="1059" on="0"/>
        <pt x="1321" y="1148" on="1"/>
        <pt x="1321" y="1288" on="0"/>
        <pt x="1373" y="1436" on="0"/>
        <pt x="1442" y="1503" on="1"/>
        <pt x="1442" y="1505" on="0"/>
        <pt x="1440" y="1513" on="0"/>
        <pt x="1428" y="1534" on="0"/>
        <pt x="1408" y="1549" on="0"/>
        <pt x="1365" y="1562" on="0"/>
        <pt x="1337" y="1562" on="1"/>
        <pt x="1310" y="1562" on="0"/>
        <pt x="1258" y="1540" on="0"/>
        <pt x="1223" y="1510" on="0"/>
        <pt x="1196" y="1479" on="0"/>
        <pt x="1190" y="1468" on="1"/>
        <pt x="1183" y="1457" on="1"/>
        <pt x="1180" y="1461" on="0"/>
        <pt x="1171" y="1475" on="0"/>
        <pt x="1138" y="1512" on="0"/>
        <pt x="1103" y="1539" on="0"/>
        <pt x="1047" y="1562" on="0"/>
        <pt x="1018" y="1562" on="1"/>
        <pt x="990" y="1562" on="0"/>
        <pt x="947" y="1550" on="0"/>
        <pt x="927" y="1532" on="0"/>
        <pt x="914" y="1515" on="0"/>
        <pt x="913" y="1509" on="1"/>
        <pt x="912" y="1503" on="1"/>
        <pt x="959" y="1453" on="0"/>
        <pt x="1011" y="1356" on="0"/>
        <pt x="1022" y="1288" on="1"/>
        <pt x="751" y="748" on="1"/>
        <pt x="473" y="1310" on="1"/>
        <pt x="496" y="1417" on="0"/>
        <pt x="579" y="1503" on="1"/>
        <pt x="579" y="1505" on="0"/>
        <pt x="577" y="1513" on="0"/>
        <pt x="565" y="1534" on="0"/>
        <pt x="545" y="1549" on="0"/>
        <pt x="502" y="1562" on="0"/>
        <pt x="474" y="1562" on="1"/>
        <pt x="445" y="1562" on="0"/>
        <pt x="389" y="1540" on="0"/>
        <pt x="352" y="1510" on="0"/>
        <pt x="323" y="1479" on="0"/>
        <pt x="316" y="1468" on="1"/>
        <pt x="309" y="1457" on="1"/>
        <pt x="307" y="1461" on="0"/>
        <pt x="298" y="1475" on="0"/>
        <pt x="267" y="1512" on="0"/>
        <pt x="234" y="1539" on="0"/>
        <pt x="182" y="1562" on="0"/>
        <pt x="155" y="1562" on="1"/>
        <pt x="110" y="1562" on="0"/>
        <pt x="57" y="1532" on="0"/>
        <pt x="53" y="1518" on="1"/>
        <pt x="49" y="1503" on="1"/>
        <pt x="118" y="1436" on="0"/>
        <pt x="170" y="1288" on="0"/>
        <pt x="170" y="1148" on="1"/>
        <pt x="170" y="1042" on="0"/>
        <pt x="148" y="893" on="0"/>
        <pt x="116" y="825" on="0"/>
        <pt x="83" y="787" on="0"/>
        <pt x="61" y="767" on="0"/>
        <pt x="61" y="756" on="1"/>
        <pt x="61" y="748" on="0"/>
        <pt x="83" y="728" on="0"/>
        <pt x="116" y="687" on="0"/>
        <pt x="148" y="617" on="0"/>
        <pt x="170" y="473" on="0"/>
        <pt x="170" y="375" on="1"/>
        <pt x="170" y="232" on="0"/>
        <pt x="117" y="77" on="0"/>
        <pt x="49" y="10" on="1"/>
        <pt x="49" y="8" on="0"/>
        <pt x="51" y="-1" on="0"/>
        <pt x="63" y="-21" on="0"/>
        <pt x="84" y="-37" on="0"/>
        <pt x="126" y="-50" on="0"/>
        <pt x="155" y="-50" on="1"/>
        <pt x="182" y="-50" on="0"/>
        <pt x="233" y="-26" on="0"/>
        <pt x="268" y="7" on="0"/>
        <pt x="296" y="41" on="0"/>
        <pt x="302" y="53" on="1"/>
        <pt x="309" y="65" on="1"/>
        <pt x="311" y="60" on="0"/>
        <pt x="321" y="45" on="0"/>
        <pt x="353" y="5" on="0"/>
        <pt x="389" y="-25" on="0"/>
        <pt x="445" y="-50" on="0"/>
        <pt x="474" y="-50" on="1"/>
        <pt x="519" y="-50" on="0"/>
        <pt x="571" y="-20" on="0"/>
        <pt x="575" y="-5" on="1"/>
        <pt x="579" y="10" on="1"/>
        <pt x="511" y="77" on="0"/>
        <pt x="458" y="232" on="0"/>
        <pt x="458" y="375" on="1"/>
        <pt x="458" y="701" on="0"/>
        <pt x="462" y="840" on="1"/>
        <pt x="543" y="701" on="1"/>
        <pt x="619" y="570" on="0"/>
        <pt x="619" y="466" on="1"/>
        <pt x="619" y="411" on="0"/>
        <pt x="597" y="378" on="1"/>
        <pt x="597" y="377" on="0"/>
        <pt x="597" y="375" on="0"/>
        <pt x="600" y="370" on="0"/>
        <pt x="604" y="365" on="0"/>
        <pt x="612" y="358" on="0"/>
        <pt x="622" y="354" on="0"/>
        <pt x="638" y="351" on="0"/>
        <pt x="648" y="351" on="1"/>
        <pt x="665" y="351" on="0"/>
        <pt x="698" y="365" on="0"/>
        <pt x="720" y="386" on="0"/>
        <pt x="738" y="406" on="0"/>
        <pt x="742" y="414" on="1"/>
        <pt x="746" y="421" on="1"/>
        <pt x="747" y="418" on="0"/>
        <pt x="753" y="409" on="0"/>
        <pt x="772" y="384" on="0"/>
        <pt x="793" y="366" on="0"/>
        <pt x="825" y="351" on="0"/>
        <pt x="842" y="351" on="1"/>
        <pt x="852" y="351" on="0"/>
        <pt x="867" y="354" on="0"/>
        <pt x="878" y="359" on="0"/>
        <pt x="885" y="364" on="0"/>
        <pt x="889" y="370" on="0"/>
        <pt x="891" y="375" on="0"/>
        <pt x="892" y="376" on="1"/>
        <pt x="892" y="378" on="1"/>
        <pt x="874" y="405" on="0"/>
        <pt x="874" y="449" on="1"/>
        <pt x="874" y="497" on="0"/>
        <pt x="924" y="619" on="0"/>
      </contour>
    </TTGlyph>
    <TTGlyph name="N" xMin="59" yMin="-50" xMax="1257" yMax="1562">
      <contour>
        <pt x="180" y="375" on="1"/>
        <pt x="180" y="473" on="0"/>
        <pt x="158" y="617" on="0"/>
        <pt x="126" y="687" on="0"/>
        <pt x="93" y="728" on="0"/>
        <pt x="71" y="748" on="0"/>
        <pt x="71" y="756" on="1"/>
        <pt x="71" y="767" on="0"/>
        <pt x="93" y="787" on="0"/>
        <pt x="126" y="825" on="0"/>
        <pt x="158" y="893" on="0"/>
        <pt x="180" y="1042" on="0"/>
        <pt x="180" y="1148" on="1"/>
        <pt x="180" y="1288" on="0"/>
        <pt x="128" y="1436" on="0"/>
        <pt x="59" y="1503" on="1"/>
        <pt x="59" y="1505" on="0"/>
        <pt x="61" y="1513" on="0"/>
        <pt x="73" y="1534" on="0"/>
        <pt x="94" y="1549" on="0"/>
        <pt x="136" y="1562" on="0"/>
        <pt x="194" y="1562" on="0"/>
        <pt x="249" y="1540" on="0"/>
        <pt x="287" y="1510" on="0"/>
        <pt x="316" y="1479" on="0"/>
        <pt x="323" y="1468" on="1"/>
        <pt x="330" y="1457" on="1"/>
        <pt x="332" y="1461" on="0"/>
        <pt x="342" y="1475" on="0"/>
        <pt x="374" y="1512" on="0"/>
        <pt x="410" y="1539" on="0"/>
        <pt x="466" y="1562" on="0"/>
        <pt x="495" y="1562" on="1"/>
        <pt x="540" y="1562" on="0"/>
        <pt x="592" y="1532" on="0"/>
        <pt x="596" y="1518" on="1"/>
        <pt x="600" y="1503" on="1"/>
        <pt x="539" y="1454" on="0"/>
        <pt x="486" y="1343" on="0"/>
        <pt x="480" y="1251" on="1"/>
        <pt x="805" y="741" on="1"/>
        <pt x="837" y="838" on="0"/>
        <pt x="837" y="1148" on="1"/>
        <pt x="837" y="1288" on="0"/>
        <pt x="785" y="1436" on="0"/>
        <pt x="716" y="1503" on="1"/>
        <pt x="716" y="1505" on="0"/>
        <pt x="718" y="1513" on="0"/>
        <pt x="730" y="1534" on="0"/>
        <pt x="750" y="1549" on="0"/>
        <pt x="793" y="1562" on="0"/>
        <pt x="821" y="1562" on="1"/>
        <pt x="850" y="1562" on="0"/>
        <pt x="906" y="1540" on="0"/>
        <pt x="943" y="1510" on="0"/>
        <pt x="972" y="1479" on="0"/>
        <pt x="979" y="1468" on="1"/>
        <pt x="986" y="1457" on="1"/>
        <pt x="989" y="1461" on="0"/>
        <pt x="998" y="1475" on="0"/>
        <pt x="1031" y="1512" on="0"/>
        <pt x="1066" y="1539" on="0"/>
        <pt x="1122" y="1562" on="0"/>
        <pt x="1151" y="1562" on="1"/>
        <pt x="1196" y="1562" on="0"/>
        <pt x="1249" y="1532" on="0"/>
        <pt x="1253" y="1518" on="1"/>
        <pt x="1257" y="1503" on="1"/>
        <pt x="1188" y="1436" on="0"/>
        <pt x="1136" y="1288" on="0"/>
        <pt x="1136" y="1148" on="1"/>
        <pt x="1136" y="1042" on="0"/>
        <pt x="1158" y="893" on="0"/>
        <pt x="1190" y="825" on="0"/>
        <pt x="1223" y="787" on="0"/>
        <pt x="1245" y="767" on="0"/>
        <pt x="1245" y="756" on="1"/>
        <pt x="1245" y="748" on="0"/>
        <pt x="1223" y="728" on="0"/>
        <pt x="1190" y="687" on="0"/>
        <pt x="1158" y="617" on="0"/>
        <pt x="1136" y="473" on="0"/>
        <pt x="1136" y="375" on="1"/>
        <pt x="1136" y="231" on="0"/>
        <pt x="1188" y="77" on="0"/>
        <pt x="1257" y="10" on="1"/>
        <pt x="1257" y="8" on="0"/>
        <pt x="1255" y="-1" on="0"/>
        <pt x="1243" y="-21" on="0"/>
        <pt x="1222" y="-37" on="0"/>
        <pt x="1180" y="-50" on="0"/>
        <pt x="1151" y="-50" on="1"/>
        <pt x="1105" y="-50" on="0"/>
        <pt x="1023" y="8" on="0"/>
        <pt x="1004" y="36" on="1"/>
        <pt x="986" y="65" on="1"/>
        <pt x="984" y="60" on="0"/>
        <pt x="974" y="45" on="0"/>
        <pt x="942" y="5" on="0"/>
        <pt x="906" y="-25" on="0"/>
        <pt x="850" y="-50" on="0"/>
        <pt x="821" y="-50" on="1"/>
        <pt x="793" y="-50" on="0"/>
        <pt x="751" y="-38" on="0"/>
        <pt x="730" y="-20" on="0"/>
        <pt x="718" y="-2" on="0"/>
        <pt x="717" y="4" on="1"/>
        <pt x="716" y="10" on="1"/>
        <pt x="775" y="63" on="0"/>
        <pt x="828" y="185" on="0"/>
        <pt x="835" y="284" on="1"/>
        <pt x="485" y="781" on="1"/>
        <pt x="479" y="658" on="0"/>
        <pt x="479" y="375" on="1"/>
        <pt x="479" y="232" on="0"/>
        <pt x="531" y="77" on="0"/>
        <pt x="600" y="10" on="1"/>
        <pt x="600" y="8" on="0"/>
        <pt x="598" y="-1" on="0"/>
        <pt x="586" y="-21" on="0"/>
        <pt x="566" y="-37" on="0"/>
        <pt x="523" y="-50" on="0"/>
        <pt x="495" y="-50" on="1"/>
        <pt x="466" y="-50" on="0"/>
        <pt x="410" y="-26" on="0"/>
        <pt x="373" y="7" on="0"/>
        <pt x="344" y="41" on="0"/>
        <pt x="337" y="53" on="1"/>
        <pt x="330" y="65" on="1"/>
        <pt x="327" y="60" on="0"/>
        <pt x="318" y="45" on="0"/>
        <pt x="285" y="5" on="0"/>
        <pt x="250" y="-25" on="0"/>
        <pt x="194" y="-50" on="0"/>
        <pt x="165" y="-50" on="1"/>
        <pt x="120" y="-50" on="0"/>
        <pt x="67" y="-20" on="0"/>
        <pt x="63" y="-5" on="1"/>
        <pt x="59" y="10" on="1"/>
        <pt x="128" y="77" on="0"/>
        <pt x="180" y="232" on="0"/>
      </contour>
    </TTGlyph>
    <TTGlyph name="Nacute" xMin="59" yMin="-50" xMax="1257" yMax="2036">
      <component glyphName="acute" x="492" y="590" flags="0x1004"/>
      <component glyphName="N" x="0" y="0" flags="0x1204"/>
    </TTGlyph>
    <TTGlyph name="Ncaron" xMin="59" yMin="-50" xMax="1257" yMax="2024">
      <component glyphName="caron" x="268" y="589" flags="0x1004"/>
      <component glyphName="N" x="0" y="0" flags="0x1204"/>
    </TTGlyph>
    <TTGlyph name="Ncommaaccent" xMin="59" yMin="-694" xMax="1257" yMax="1562">
      <component glyphName="uni0326" x="418" y="-341" flags="0x1004"/>
      <component glyphName="N" x="0" y="0" flags="0x1204"/>
    </TTGlyph>
    <TTGlyph name="Ntilde" xMin="59" yMin="-50" xMax="1257" yMax="1959">
      <component glyphName="tilde" x="226" y="561" flags="0x1004"/>
      <component glyphName="N" x="0" y="0" flags="0x1204"/>
    </TTGlyph>
    <TTGlyph name="O" xMin="38" yMin="-93" xMax="1202" yMax="1586">
      <contour>
        <pt x="497" y="421" on="1"/>
        <pt x="497" y="383" on="0"/>
        <pt x="497" y="347" on="0"/>
        <pt x="499" y="286" on="0"/>
        <pt x="502" y="257" on="0"/>
        <pt x="508" y="212" on="0"/>
        <pt x="518" y="191" on="0"/>
        <pt x="532" y="161" on="0"/>
        <pt x="551" y="148" on="0"/>
        <pt x="576" y="133" on="0"/>
        <pt x="608" y="128" on="0"/>
        <pt x="627" y="128" on="1"/>
        <pt x="647" y="128" on="0"/>
        <pt x="679" y="134" on="0"/>
        <pt x="704" y="149" on="0"/>
        <pt x="723" y="164" on="0"/>
        <pt x="737" y="194" on="0"/>
        <pt x="747" y="218" on="0"/>
        <pt x="753" y="264" on="0"/>
        <pt x="757" y="295" on="0"/>
        <pt x="759" y="356" on="0"/>
        <pt x="759" y="395" on="0"/>
        <pt x="759" y="432" on="1"/>
        <pt x="759" y="508" on="0"/>
        <pt x="741" y="627" on="0"/>
        <pt x="716" y="689" on="0"/>
        <pt x="692" y="728" on="0"/>
        <pt x="674" y="745" on="0"/>
        <pt x="674" y="748" on="1"/>
        <pt x="674" y="755" on="0"/>
        <pt x="701" y="785" on="0"/>
        <pt x="732" y="834" on="0"/>
        <pt x="759" y="980" on="0"/>
        <pt x="759" y="1088" on="1"/>
        <pt x="759" y="1138" on="0"/>
        <pt x="758" y="1190" on="0"/>
        <pt x="755" y="1262" on="0"/>
        <pt x="748" y="1298" on="0"/>
        <pt x="735" y="1344" on="0"/>
        <pt x="716" y="1364" on="0"/>
        <pt x="689" y="1385" on="0"/>
        <pt x="651" y="1392" on="0"/>
        <pt x="627" y="1392" on="1"/>
        <pt x="595" y="1392" on="0"/>
        <pt x="550" y="1379" on="0"/>
        <pt x="521" y="1341" on="0"/>
        <pt x="505" y="1304" on="0"/>
        <pt x="497" y="1220" on="0"/>
        <pt x="496" y="1154" on="0"/>
        <pt x="496" y="1088" on="1"/>
        <pt x="496" y="1000" on="0"/>
        <pt x="513" y="870" on="0"/>
        <pt x="538" y="808" on="0"/>
        <pt x="563" y="772" on="0"/>
        <pt x="580" y="755" on="0"/>
        <pt x="580" y="748" on="1"/>
        <pt x="580" y="744" on="0"/>
        <pt x="563" y="724" on="0"/>
        <pt x="538" y="682" on="0"/>
        <pt x="514" y="618" on="0"/>
        <pt x="497" y="498" on="0"/>
      </contour>
      <contour>
        <pt x="1092" y="421" on="1"/>
        <pt x="1092" y="279" on="0"/>
        <pt x="1032" y="79" on="0"/>
        <pt x="910" y="-40" on="0"/>
        <pt x="742" y="-93" on="0"/>
        <pt x="512" y="-93" on="0"/>
        <pt x="344" y="-40" on="0"/>
        <pt x="222" y="79" on="0"/>
        <pt x="162" y="279" on="0"/>
        <pt x="162" y="421" on="1"/>
        <pt x="162" y="501" on="0"/>
        <pt x="136" y="625" on="0"/>
        <pt x="100" y="689" on="0"/>
        <pt x="64" y="728" on="0"/>
        <pt x="38" y="746" on="0"/>
        <pt x="38" y="748" on="1"/>
        <pt x="38" y="754" on="0"/>
        <pt x="64" y="771" on="0"/>
        <pt x="100" y="808" on="0"/>
        <pt x="136" y="870" on="0"/>
        <pt x="162" y="994" on="0"/>
        <pt x="162" y="1077" on="1"/>
        <pt x="162" y="1183" on="0"/>
        <pt x="189" y="1344" on="0"/>
        <pt x="245" y="1455" on="0"/>
        <pt x="320" y="1529" on="0"/>
        <pt x="430" y="1570" on="0"/>
        <pt x="549" y="1586" on="0"/>
        <pt x="707" y="1586" on="0"/>
        <pt x="825" y="1570" on="0"/>
        <pt x="935" y="1529" on="0"/>
        <pt x="1009" y="1455" on="0"/>
        <pt x="1065" y="1344" on="0"/>
        <pt x="1092" y="1183" on="0"/>
        <pt x="1092" y="1077" on="1"/>
        <pt x="1092" y="995" on="0"/>
        <pt x="1115" y="872" on="0"/>
        <pt x="1147" y="810" on="0"/>
        <pt x="1179" y="772" on="0"/>
        <pt x="1202" y="753" on="0"/>
        <pt x="1202" y="748" on="1"/>
        <pt x="1202" y="746" on="0"/>
        <pt x="1193" y="739" on="1"/>
        <pt x="1175" y="725" on="0"/>
        <pt x="1150" y="696" on="0"/>
        <pt x="1112" y="627" on="0"/>
        <pt x="1092" y="504" on="0"/>
      </contour>
    </TTGlyph>
    <TTGlyph name="OE" xMin="38" yMin="-92" xMax="1630" yMax="1586">
      <contour>
        <pt x="1113" y="669" on="1"/>
        <pt x="1069" y="206" on="1"/>
        <pt x="1069" y="176" on="0"/>
        <pt x="1088" y="137" on="0"/>
        <pt x="1124" y="121" on="0"/>
        <pt x="1150" y="117" on="0"/>
        <pt x="1168" y="117" on="1"/>
        <pt x="1229" y="117" on="0"/>
        <pt x="1287" y="186" on="0"/>
        <pt x="1287" y="237" on="1"/>
        <pt x="1287" y="326" on="0"/>
        <pt x="1216" y="395" on="1"/>
        <pt x="1217" y="399" on="0"/>
        <pt x="1222" y="413" on="0"/>
        <pt x="1258" y="435" on="0"/>
        <pt x="1287" y="435" on="1"/>
        <pt x="1323" y="435" on="0"/>
        <pt x="1388" y="406" on="0"/>
        <pt x="1403" y="392" on="1"/>
        <pt x="1418" y="377" on="1"/>
        <pt x="1424" y="383" on="0"/>
        <pt x="1445" y="403" on="0"/>
        <pt x="1514" y="435" on="0"/>
        <pt x="1550" y="435" on="1"/>
        <pt x="1579" y="435" on="0"/>
        <pt x="1614" y="415" on="0"/>
        <pt x="1617" y="405" on="1"/>
        <pt x="1620" y="395" on="1"/>
        <pt x="1539" y="331" on="0"/>
        <pt x="1539" y="199" on="1"/>
        <pt x="1539" y="121" on="0"/>
        <pt x="1580" y="12" on="0"/>
        <pt x="1630" y="-30" on="1"/>
        <pt x="1630" y="-32" on="0"/>
        <pt x="1629" y="-38" on="0"/>
        <pt x="1619" y="-53" on="0"/>
        <pt x="1604" y="-64" on="0"/>
        <pt x="1572" y="-74" on="0"/>
        <pt x="1551" y="-74" on="1"/>
        <pt x="1522" y="-74" on="0"/>
        <pt x="1465" y="-54" on="0"/>
        <pt x="1426" y="-26" on="0"/>
        <pt x="1396" y="1" on="0"/>
        <pt x="1388" y="11" on="1"/>
        <pt x="1381" y="21" on="1"/>
        <pt x="1342" y="-26" on="0"/>
        <pt x="1208" y="-74" on="0"/>
        <pt x="1144" y="-74" on="1"/>
        <pt x="1121" y="-74" on="0"/>
        <pt x="1075" y="-66" on="0"/>
        <pt x="1037" y="-53" on="0"/>
        <pt x="1002" y="-36" on="0"/>
        <pt x="974" y="-17" on="0"/>
        <pt x="950" y="2" on="0"/>
        <pt x="932" y="19" on="0"/>
        <pt x="920" y="32" on="0"/>
        <pt x="913" y="40" on="0"/>
        <pt x="913" y="40" on="1"/>
        <pt x="899" y="40" on="0"/>
        <pt x="828" y="-1" on="0"/>
        <pt x="754" y="-51" on="0"/>
        <pt x="661" y="-92" on="0"/>
        <pt x="627" y="-92" on="1"/>
        <pt x="393" y="-92" on="0"/>
        <pt x="162" y="143" on="0"/>
        <pt x="162" y="421" on="1"/>
        <pt x="162" y="501" on="0"/>
        <pt x="136" y="625" on="0"/>
        <pt x="100" y="689" on="0"/>
        <pt x="64" y="728" on="0"/>
        <pt x="38" y="746" on="0"/>
        <pt x="38" y="748" on="1"/>
        <pt x="38" y="754" on="0"/>
        <pt x="64" y="771" on="0"/>
        <pt x="100" y="808" on="0"/>
        <pt x="136" y="870" on="0"/>
        <pt x="162" y="994" on="0"/>
        <pt x="162" y="1077" on="1"/>
        <pt x="162" y="1183" on="0"/>
        <pt x="189" y="1344" on="0"/>
        <pt x="245" y="1455" on="0"/>
        <pt x="320" y="1529" on="0"/>
        <pt x="430" y="1570" on="0"/>
        <pt x="549" y="1586" on="0"/>
        <pt x="628" y="1586" on="1"/>
        <pt x="828" y="1586" on="0"/>
        <pt x="911" y="1447" on="1"/>
        <pt x="916" y="1452" on="1"/>
        <pt x="921" y="1458" on="0"/>
        <pt x="942" y="1479" on="0"/>
        <pt x="970" y="1503" on="0"/>
        <pt x="1010" y="1528" on="0"/>
        <pt x="1055" y="1549" on="0"/>
        <pt x="1113" y="1562" on="0"/>
        <pt x="1143" y="1562" on="1"/>
        <pt x="1206" y="1562" on="0"/>
        <pt x="1341" y="1513" on="0"/>
        <pt x="1380" y="1466" on="1"/>
        <pt x="1383" y="1470" on="0"/>
        <pt x="1393" y="1483" on="0"/>
        <pt x="1426" y="1516" on="0"/>
        <pt x="1463" y="1541" on="0"/>
        <pt x="1521" y="1562" on="0"/>
        <pt x="1550" y="1562" on="1"/>
        <pt x="1583" y="1562" on="0"/>
        <pt x="1623" y="1539" on="0"/>
        <pt x="1626" y="1528" on="1"/>
        <pt x="1629" y="1516" on="1"/>
        <pt x="1579" y="1478" on="0"/>
        <pt x="1538" y="1382" on="0"/>
        <pt x="1538" y="1312" on="1"/>
        <pt x="1538" y="1188" on="0"/>
        <pt x="1619" y="1127" on="1"/>
        <pt x="1618" y="1123" on="0"/>
        <pt x="1613" y="1110" on="0"/>
        <pt x="1578" y="1088" on="0"/>
        <pt x="1549" y="1088" on="1"/>
        <pt x="1513" y="1088" on="0"/>
        <pt x="1447" y="1116" on="0"/>
        <pt x="1432" y="1130" on="1"/>
        <pt x="1417" y="1145" on="1"/>
        <pt x="1411" y="1139" on="0"/>
        <pt x="1390" y="1120" on="0"/>
        <pt x="1322" y="1088" on="0"/>
        <pt x="1286" y="1088" on="1"/>
        <pt x="1257" y="1088" on="0"/>
        <pt x="1221" y="1108" on="0"/>
        <pt x="1218" y="1118" on="1"/>
        <pt x="1215" y="1127" on="1"/>
        <pt x="1286" y="1191" on="0"/>
        <pt x="1286" y="1277" on="1"/>
        <pt x="1286" y="1372" on="0"/>
        <pt x="1070" y="1372" on="0"/>
        <pt x="1070" y="1294" on="1"/>
        <pt x="1113" y="847" on="1"/>
        <pt x="1223" y="847" on="0"/>
        <pt x="1350" y="872" on="0"/>
        <pt x="1398" y="905" on="1"/>
        <pt x="1401" y="905" on="0"/>
        <pt x="1410" y="901" on="0"/>
        <pt x="1425" y="876" on="0"/>
        <pt x="1425" y="855" on="1"/>
        <pt x="1425" y="827" on="0"/>
        <pt x="1405" y="775" on="0"/>
        <pt x="1395" y="764" on="1"/>
        <pt x="1385" y="752" on="1"/>
        <pt x="1389" y="748" on="0"/>
        <pt x="1403" y="734" on="0"/>
        <pt x="1425" y="686" on="0"/>
        <pt x="1425" y="661" on="1"/>
        <pt x="1425" y="648" on="0"/>
        <pt x="1419" y="627" on="0"/>
        <pt x="1412" y="617" on="0"/>
        <pt x="1404" y="611" on="0"/>
        <pt x="1401" y="610" on="1"/>
        <pt x="1398" y="610" on="1"/>
        <pt x="1349" y="642" on="0"/>
        <pt x="1221" y="669" on="0"/>
      </contour>
      <contour>
        <pt x="497" y="421" on="1"/>
        <pt x="497" y="352" on="0"/>
        <pt x="498" y="290" on="0"/>
        <pt x="505" y="197" on="0"/>
        <pt x="521" y="158" on="0"/>
        <pt x="550" y="113" on="0"/>
        <pt x="595" y="98" on="0"/>
        <pt x="627" y="98" on="1"/>
        <pt x="651" y="98" on="0"/>
        <pt x="689" y="108" on="0"/>
        <pt x="717" y="134" on="0"/>
        <pt x="736" y="159" on="0"/>
        <pt x="748" y="212" on="0"/>
        <pt x="755" y="251" on="0"/>
        <pt x="758" y="330" on="0"/>
        <pt x="759" y="381" on="0"/>
        <pt x="759" y="432" on="1"/>
        <pt x="756" y="514" on="0"/>
        <pt x="731" y="635" on="0"/>
        <pt x="701" y="694" on="0"/>
        <pt x="671" y="730" on="0"/>
        <pt x="651" y="748" on="0"/>
        <pt x="651" y="756" on="1"/>
        <pt x="651" y="766" on="0"/>
        <pt x="671" y="785" on="0"/>
        <pt x="700" y="818" on="0"/>
        <pt x="731" y="875" on="0"/>
        <pt x="756" y="999" on="0"/>
        <pt x="759" y="1086" on="1"/>
        <pt x="759" y="1088" on="1"/>
        <pt x="759" y="1129" on="0"/>
        <pt x="758" y="1174" on="0"/>
        <pt x="756" y="1236" on="0"/>
        <pt x="751" y="1268" on="0"/>
        <pt x="742" y="1310" on="0"/>
        <pt x="729" y="1331" on="0"/>
        <pt x="709" y="1355" on="0"/>
        <pt x="683" y="1365" on="0"/>
        <pt x="649" y="1372" on="0"/>
        <pt x="605" y="1372" on="0"/>
        <pt x="572" y="1365" on="0"/>
        <pt x="545" y="1355" on="0"/>
        <pt x="526" y="1331" on="0"/>
        <pt x="512" y="1310" on="0"/>
        <pt x="504" y="1268" on="0"/>
        <pt x="499" y="1236" on="0"/>
        <pt x="497" y="1174" on="0"/>
        <pt x="496" y="1129" on="0"/>
        <pt x="496" y="1088" on="1"/>
        <pt x="496" y="1000" on="0"/>
        <pt x="513" y="870" on="0"/>
        <pt x="538" y="808" on="0"/>
        <pt x="563" y="772" on="0"/>
        <pt x="580" y="755" on="0"/>
        <pt x="580" y="748" on="1"/>
        <pt x="580" y="744" on="0"/>
        <pt x="563" y="724" on="0"/>
        <pt x="538" y="682" on="0"/>
        <pt x="514" y="618" on="0"/>
        <pt x="497" y="498" on="0"/>
      </contour>
    </TTGlyph>
    <TTGlyph name="Oacute" xMin="38" yMin="-93" xMax="1202" yMax="2036">
      <component glyphName="acute" x="486" y="590" flags="0x1004"/>
      <component glyphName="O" x="0" y="0" flags="0x1204"/>
    </TTGlyph>
    <TTGlyph name="Obreve" xMin="38" yMin="-93" xMax="1202" yMax="1997">
      <component glyphName="breve" x="233" y="582" flags="0x1004"/>
      <component glyphName="O" x="0" y="0" flags="0x1204"/>
    </TTGlyph>
    <TTGlyph name="Ocircumflex" xMin="38" yMin="-93" xMax="1202" yMax="2024">
      <component glyphName="circumflex" x="225" y="589" flags="0x1004"/>
      <component glyphName="O" x="0" y="0" flags="0x1204"/>
    </TTGlyph>
    <TTGlyph name="Odieresis" xMin="38" yMin="-93" xMax="1202" yMax="1936">
      <component glyphName="dieresis" x="216" y="559" flags="0x1004"/>
      <component glyphName="O" x="0" y="0" flags="0x1204"/>
    </TTGlyph>
    <TTGlyph name="Ograve" xMin="38" yMin="-93" xMax="1202" yMax="2036">
      <component glyphName="grave" x="158" y="590" flags="0x1004"/>
      <component glyphName="O" x="0" y="0" flags="0x1204"/>
    </TTGlyph>
    <TTGlyph name="Ohungarumlaut" xMin="38" yMin="-93" xMax="1202" yMax="2031">
      <component glyphName="hungarumlaut" x="305" y="585" flags="0x1004"/>
      <component glyphName="O" x="0" y="0" flags="0x1204"/>
    </TTGlyph>
    <TTGlyph name="Omacron" xMin="38" yMin="-93" xMax="1202" yMax="1815">
      <component glyphName="macron" x="216" y="504" flags="0x1004"/>
      <component glyphName="O" x="0" y="0" flags="0x1204"/>
    </TTGlyph>
    <TTGlyph name="Omega" xMin="66" yMin="0" xMax="1429" yMax="1338">
      <contour>
        <pt x="1429" y="233" on="1"/>
        <pt x="1398" y="0" on="1"/>
        <pt x="868" y="0" on="1"/>
        <pt x="858" y="76" on="1"/>
        <pt x="906" y="123" on="0"/>
        <pt x="993" y="239" on="0"/>
        <pt x="1079" y="398" on="0"/>
        <pt x="1130" y="599" on="0"/>
        <pt x="1130" y="705" on="1"/>
        <pt x="1130" y="938" on="0"/>
        <pt x="923" y="1227" on="0"/>
        <pt x="748" y="1227" on="1"/>
        <pt x="570" y="1227" on="0"/>
        <pt x="364" y="949" on="0"/>
        <pt x="364" y="702" on="1"/>
        <pt x="364" y="602" on="0"/>
        <pt x="412" y="408" on="0"/>
        <pt x="493" y="249" on="0"/>
        <pt x="582" y="125" on="0"/>
        <pt x="632" y="77" on="1"/>
        <pt x="625" y="0" on="1"/>
        <pt x="92" y="0" on="1"/>
        <pt x="66" y="233" on="1"/>
        <pt x="245" y="233" on="1"/>
        <pt x="263" y="192" on="0"/>
        <pt x="294" y="166" on="0"/>
        <pt x="327" y="166" on="1"/>
        <pt x="329" y="166" on="0"/>
        <pt x="332" y="166" on="1"/>
        <pt x="434" y="168" on="1"/>
        <pt x="119" y="402" on="0"/>
        <pt x="119" y="725" on="1"/>
        <pt x="119" y="996" on="0"/>
        <pt x="475" y="1338" on="0"/>
        <pt x="752" y="1338" on="1"/>
        <pt x="891" y="1338" on="0"/>
        <pt x="1125" y="1245" on="0"/>
        <pt x="1284" y="1084" on="0"/>
        <pt x="1373" y="862" on="0"/>
        <pt x="1373" y="736" on="1"/>
        <pt x="1373" y="643" on="0"/>
        <pt x="1317" y="468" on="0"/>
        <pt x="1219" y="326" on="0"/>
        <pt x="1114" y="216" on="0"/>
        <pt x="1051" y="168" on="1"/>
        <pt x="1163" y="166" on="1"/>
        <pt x="1166" y="166" on="0"/>
        <pt x="1169" y="166" on="1"/>
        <pt x="1200" y="166" on="0"/>
        <pt x="1229" y="191" on="0"/>
        <pt x="1246" y="233" on="1"/>
      </contour>
    </TTGlyph>
    <TTGlyph name="Oslash" xMin="37" yMin="-269" xMax="1201" yMax="1750">
      <contour>
        <pt x="165" y="-229" on="1"/>
        <pt x="983" y="1750" on="1"/>
        <pt x="1067" y="1710" on="1"/>
        <pt x="249" y="-269" on="1"/>
      </contour>
      <contour>
        <pt x="496" y="421" on="1"/>
        <pt x="496" y="352" on="0"/>
        <pt x="497" y="290" on="0"/>
        <pt x="504" y="197" on="0"/>
        <pt x="520" y="158" on="0"/>
        <pt x="549" y="113" on="0"/>
        <pt x="594" y="98" on="0"/>
        <pt x="626" y="98" on="1"/>
        <pt x="650" y="98" on="0"/>
        <pt x="688" y="108" on="0"/>
        <pt x="716" y="134" on="0"/>
        <pt x="735" y="159" on="0"/>
        <pt x="747" y="212" on="0"/>
        <pt x="754" y="251" on="0"/>
        <pt x="757" y="330" on="0"/>
        <pt x="758" y="381" on="0"/>
        <pt x="758" y="432" on="1"/>
        <pt x="758" y="1088" on="1"/>
        <pt x="758" y="1129" on="0"/>
        <pt x="757" y="1174" on="0"/>
        <pt x="755" y="1236" on="0"/>
        <pt x="750" y="1268" on="0"/>
        <pt x="741" y="1310" on="0"/>
        <pt x="728" y="1331" on="0"/>
        <pt x="708" y="1355" on="0"/>
        <pt x="682" y="1365" on="0"/>
        <pt x="648" y="1372" on="0"/>
        <pt x="604" y="1372" on="0"/>
        <pt x="571" y="1365" on="0"/>
        <pt x="544" y="1355" on="0"/>
        <pt x="525" y="1331" on="0"/>
        <pt x="511" y="1310" on="0"/>
        <pt x="503" y="1268" on="0"/>
        <pt x="498" y="1236" on="0"/>
        <pt x="496" y="1174" on="0"/>
        <pt x="495" y="1129" on="0"/>
        <pt x="495" y="1088" on="1"/>
        <pt x="495" y="789" on="0"/>
        <pt x="496" y="707" on="0"/>
      </contour>
      <contour>
        <pt x="1091" y="421" on="1"/>
        <pt x="1091" y="143" on="0"/>
        <pt x="860" y="-92" on="0"/>
        <pt x="392" y="-92" on="0"/>
        <pt x="161" y="143" on="0"/>
        <pt x="161" y="421" on="1"/>
        <pt x="161" y="501" on="0"/>
        <pt x="135" y="625" on="0"/>
        <pt x="99" y="689" on="0"/>
        <pt x="63" y="728" on="0"/>
        <pt x="37" y="746" on="0"/>
        <pt x="37" y="748" on="1"/>
        <pt x="37" y="754" on="0"/>
        <pt x="63" y="771" on="0"/>
        <pt x="99" y="808" on="0"/>
        <pt x="135" y="870" on="0"/>
        <pt x="161" y="994" on="0"/>
        <pt x="161" y="1077" on="1"/>
        <pt x="161" y="1183" on="0"/>
        <pt x="188" y="1344" on="0"/>
        <pt x="244" y="1455" on="0"/>
        <pt x="319" y="1529" on="0"/>
        <pt x="429" y="1570" on="0"/>
        <pt x="548" y="1586" on="0"/>
        <pt x="706" y="1586" on="0"/>
        <pt x="824" y="1570" on="0"/>
        <pt x="934" y="1529" on="0"/>
        <pt x="1008" y="1455" on="0"/>
        <pt x="1064" y="1344" on="0"/>
        <pt x="1091" y="1183" on="0"/>
        <pt x="1091" y="1077" on="1"/>
        <pt x="1091" y="995" on="0"/>
        <pt x="1114" y="872" on="0"/>
        <pt x="1146" y="810" on="0"/>
        <pt x="1178" y="772" on="0"/>
        <pt x="1201" y="753" on="0"/>
        <pt x="1201" y="748" on="1"/>
        <pt x="1201" y="746" on="0"/>
        <pt x="1192" y="739" on="1"/>
        <pt x="1174" y="725" on="0"/>
        <pt x="1149" y="696" on="0"/>
        <pt x="1111" y="627" on="0"/>
        <pt x="1091" y="504" on="0"/>
      </contour>
    </TTGlyph>
    <TTGlyph name="Otilde" xMin="38" yMin="-93" xMax="1202" yMax="1959">
      <component glyphName="tilde" x="188" y="561" flags="0x1004"/>
      <component glyphName="O" x="0" y="0" flags="0x1204"/>
    </TTGlyph>
    <TTGlyph name="P" xMin="59" yMin="-50" xMax="1092" yMax="1563">
      <contour>
        <pt x="490" y="586" on="1"/>
        <pt x="490" y="396" on="1"/>
        <pt x="490" y="245" on="0"/>
        <pt x="543" y="80" on="0"/>
        <pt x="611" y="10" on="1"/>
        <pt x="611" y="8" on="0"/>
        <pt x="609" y="-1" on="0"/>
        <pt x="596" y="-21" on="0"/>
        <pt x="576" y="-37" on="0"/>
        <pt x="533" y="-50" on="0"/>
        <pt x="505" y="-50" on="1"/>
        <pt x="474" y="-50" on="0"/>
        <pt x="415" y="-26" on="0"/>
        <pt x="375" y="7" on="0"/>
        <pt x="344" y="41" on="0"/>
        <pt x="336" y="53" on="1"/>
        <pt x="329" y="65" on="1"/>
        <pt x="327" y="60" on="0"/>
        <pt x="317" y="45" on="0"/>
        <pt x="285" y="5" on="0"/>
        <pt x="249" y="-25" on="0"/>
        <pt x="193" y="-50" on="0"/>
        <pt x="164" y="-50" on="1"/>
        <pt x="136" y="-50" on="0"/>
        <pt x="94" y="-38" on="0"/>
        <pt x="74" y="-20" on="0"/>
        <pt x="61" y="-2" on="0"/>
        <pt x="60" y="4" on="1"/>
        <pt x="59" y="10" on="1"/>
        <pt x="127" y="78" on="0"/>
        <pt x="180" y="247" on="0"/>
        <pt x="180" y="396" on="1"/>
        <pt x="180" y="489" on="0"/>
        <pt x="158" y="625" on="0"/>
        <pt x="126" y="691" on="0"/>
        <pt x="93" y="729" on="0"/>
        <pt x="71" y="749" on="0"/>
        <pt x="71" y="756" on="1"/>
        <pt x="71" y="766" on="0"/>
        <pt x="93" y="786" on="0"/>
        <pt x="126" y="823" on="0"/>
        <pt x="158" y="889" on="0"/>
        <pt x="180" y="1034" on="0"/>
        <pt x="180" y="1137" on="1"/>
        <pt x="180" y="1278" on="0"/>
        <pt x="127" y="1436" on="0"/>
        <pt x="59" y="1503" on="1"/>
        <pt x="59" y="1505" on="0"/>
        <pt x="61" y="1513" on="0"/>
        <pt x="73" y="1534" on="0"/>
        <pt x="93" y="1549" on="0"/>
        <pt x="136" y="1562" on="0"/>
        <pt x="164" y="1562" on="1"/>
        <pt x="197" y="1562" on="0"/>
        <pt x="260" y="1542" on="0"/>
        <pt x="303" y="1514" on="0"/>
        <pt x="338" y="1486" on="0"/>
        <pt x="346" y="1476" on="1"/>
        <pt x="354" y="1466" on="1"/>
        <pt x="356" y="1470" on="0"/>
        <pt x="366" y="1483" on="0"/>
        <pt x="410" y="1516" on="0"/>
        <pt x="469" y="1541" on="0"/>
        <pt x="578" y="1562" on="0"/>
        <pt x="644" y="1562" on="1"/>
        <pt x="711" y="1562" on="0"/>
        <pt x="832" y="1528" on="0"/>
        <pt x="932" y="1463" on="0"/>
        <pt x="1002" y="1362" on="0"/>
        <pt x="1016" y="1299" on="1"/>
        <pt x="1027" y="1247" on="0"/>
        <pt x="1056" y="1176" on="0"/>
        <pt x="1077" y="1152" on="0"/>
        <pt x="1092" y="1136" on="0"/>
        <pt x="1092" y="1130" on="1"/>
        <pt x="1092" y="1127" on="0"/>
        <pt x="1083" y="1116" on="0"/>
        <pt x="1067" y="1093" on="0"/>
        <pt x="1048" y="1055" on="0"/>
        <pt x="1025" y="979" on="0"/>
        <pt x="1016" y="928" on="1"/>
        <pt x="1002" y="849" on="0"/>
        <pt x="920" y="726" on="0"/>
        <pt x="814" y="652" on="0"/>
        <pt x="680" y="604" on="0"/>
        <pt x="555" y="586" on="0"/>
      </contour>
      <contour>
        <pt x="605" y="1372" on="1"/>
        <pt x="565" y="1372" on="0"/>
        <pt x="490" y="1340" on="0"/>
        <pt x="490" y="1322" on="1"/>
        <pt x="490" y="748" on="1"/>
        <pt x="589" y="755" on="0"/>
        <pt x="706" y="821" on="0"/>
        <pt x="706" y="871" on="1"/>
        <pt x="706" y="1302" on="1"/>
        <pt x="706" y="1328" on="0"/>
        <pt x="647" y="1372" on="0"/>
      </contour>
    </TTGlyph>
    <TTGlyph name="Q" xMin="37" yMin="-462" xMax="1201" yMax="1586">
      <contour>
        <pt x="496" y="421" on="1"/>
        <pt x="496" y="383" on="0"/>
        <pt x="496" y="347" on="0"/>
        <pt x="498" y="286" on="0"/>
        <pt x="501" y="257" on="0"/>
        <pt x="507" y="212" on="0"/>
        <pt x="517" y="191" on="0"/>
        <pt x="531" y="161" on="0"/>
        <pt x="550" y="148" on="0"/>
        <pt x="575" y="133" on="0"/>
        <pt x="607" y="128" on="0"/>
        <pt x="626" y="128" on="1"/>
        <pt x="646" y="128" on="0"/>
        <pt x="678" y="134" on="0"/>
        <pt x="703" y="149" on="0"/>
        <pt x="722" y="164" on="0"/>
        <pt x="736" y="194" on="0"/>
        <pt x="746" y="218" on="0"/>
        <pt x="752" y="264" on="0"/>
        <pt x="756" y="295" on="0"/>
        <pt x="758" y="356" on="0"/>
        <pt x="758" y="395" on="0"/>
        <pt x="758" y="432" on="1"/>
        <pt x="758" y="508" on="0"/>
        <pt x="740" y="627" on="0"/>
        <pt x="716" y="689" on="0"/>
        <pt x="691" y="728" on="0"/>
        <pt x="673" y="745" on="0"/>
        <pt x="673" y="748" on="1"/>
        <pt x="673" y="755" on="0"/>
        <pt x="700" y="785" on="0"/>
        <pt x="731" y="834" on="0"/>
        <pt x="758" y="980" on="0"/>
        <pt x="758" y="1088" on="1"/>
        <pt x="758" y="1138" on="0"/>
        <pt x="757" y="1190" on="0"/>
        <pt x="754" y="1262" on="0"/>
        <pt x="747" y="1298" on="0"/>
        <pt x="734" y="1344" on="0"/>
        <pt x="715" y="1364" on="0"/>
        <pt x="688" y="1385" on="0"/>
        <pt x="650" y="1392" on="0"/>
        <pt x="626" y="1392" on="1"/>
        <pt x="594" y="1392" on="0"/>
        <pt x="549" y="1379" on="0"/>
        <pt x="520" y="1341" on="0"/>
        <pt x="504" y="1304" on="0"/>
        <pt x="496" y="1220" on="0"/>
        <pt x="495" y="1154" on="0"/>
        <pt x="495" y="1088" on="1"/>
        <pt x="495" y="1000" on="0"/>
        <pt x="512" y="870" on="0"/>
        <pt x="537" y="808" on="0"/>
        <pt x="562" y="772" on="0"/>
        <pt x="579" y="755" on="0"/>
        <pt x="579" y="748" on="1"/>
        <pt x="579" y="744" on="0"/>
        <pt x="562" y="724" on="0"/>
        <pt x="538" y="682" on="0"/>
        <pt x="513" y="618" on="0"/>
        <pt x="496" y="498" on="0"/>
      </contour>
      <contour>
        <pt x="973" y="-154" on="1"/>
        <pt x="973" y="-136" on="0"/>
        <pt x="988" y="-83" on="0"/>
        <pt x="1017" y="-23" on="0"/>
        <pt x="1076" y="19" on="0"/>
        <pt x="1114" y="19" on="1"/>
        <pt x="1132" y="19" on="0"/>
        <pt x="1146" y="12" on="1"/>
        <pt x="1122" y="-22" on="0"/>
        <pt x="1122" y="-65" on="1"/>
        <pt x="1122" y="-85" on="0"/>
        <pt x="1138" y="-167" on="0"/>
        <pt x="1138" y="-189" on="1"/>
        <pt x="1138" y="-315" on="0"/>
        <pt x="959" y="-462" on="0"/>
        <pt x="837" y="-462" on="1"/>
        <pt x="782" y="-462" on="0"/>
        <pt x="682" y="-419" on="0"/>
        <pt x="599" y="-336" on="0"/>
        <pt x="550" y="-200" on="0"/>
        <pt x="550" y="-115" on="1"/>
        <pt x="550" y="-104" on="0"/>
        <pt x="551" y="-89" on="1"/>
        <pt x="455" y="-81" on="0"/>
        <pt x="313" y="-18" on="0"/>
        <pt x="212" y="102" on="0"/>
        <pt x="161" y="291" on="0"/>
        <pt x="161" y="421" on="1"/>
        <pt x="161" y="501" on="0"/>
        <pt x="135" y="625" on="0"/>
        <pt x="99" y="689" on="0"/>
        <pt x="63" y="728" on="0"/>
        <pt x="37" y="746" on="0"/>
        <pt x="37" y="748" on="1"/>
        <pt x="37" y="754" on="0"/>
        <pt x="63" y="771" on="0"/>
        <pt x="99" y="808" on="0"/>
        <pt x="135" y="870" on="0"/>
        <pt x="161" y="994" on="0"/>
        <pt x="161" y="1077" on="1"/>
        <pt x="161" y="1183" on="0"/>
        <pt x="188" y="1344" on="0"/>
        <pt x="244" y="1455" on="0"/>
        <pt x="319" y="1529" on="0"/>
        <pt x="429" y="1570" on="0"/>
        <pt x="548" y="1586" on="0"/>
        <pt x="706" y="1586" on="0"/>
        <pt x="824" y="1570" on="0"/>
        <pt x="934" y="1529" on="0"/>
        <pt x="1008" y="1455" on="0"/>
        <pt x="1064" y="1344" on="0"/>
        <pt x="1091" y="1183" on="0"/>
        <pt x="1091" y="1077" on="1"/>
        <pt x="1091" y="995" on="0"/>
        <pt x="1114" y="872" on="0"/>
        <pt x="1146" y="810" on="0"/>
        <pt x="1178" y="772" on="0"/>
        <pt x="1201" y="753" on="0"/>
        <pt x="1201" y="748" on="1"/>
        <pt x="1201" y="746" on="0"/>
        <pt x="1192" y="739" on="1"/>
        <pt x="1174" y="725" on="0"/>
        <pt x="1149" y="696" on="0"/>
        <pt x="1111" y="627" on="0"/>
        <pt x="1091" y="504" on="0"/>
        <pt x="1091" y="421" on="1"/>
        <pt x="1091" y="86" on="0"/>
        <pt x="912" y="-26" on="1"/>
        <pt x="817" y="-85" on="0"/>
        <pt x="664" y="-91" on="1"/>
        <pt x="660" y="-117" on="0"/>
        <pt x="660" y="-142" on="1"/>
        <pt x="660" y="-233" on="0"/>
        <pt x="747" y="-329" on="0"/>
        <pt x="801" y="-329" on="1"/>
        <pt x="837" y="-329" on="0"/>
        <pt x="878" y="-293" on="0"/>
        <pt x="878" y="-269" on="1"/>
        <pt x="878" y="-246" on="0"/>
        <pt x="839" y="-214" on="0"/>
        <pt x="802" y="-214" on="1"/>
        <pt x="794" y="-214" on="0"/>
        <pt x="776" y="-216" on="1"/>
        <pt x="775" y="-216" on="0"/>
        <pt x="775" y="-209" on="1"/>
        <pt x="775" y="-197" on="0"/>
        <pt x="786" y="-163" on="0"/>
        <pt x="828" y="-125" on="0"/>
        <pt x="861" y="-125" on="1"/>
        <pt x="885" y="-125" on="0"/>
        <pt x="941" y="-140" on="0"/>
        <pt x="957" y="-147" on="1"/>
      </contour>
    </TTGlyph>
    <TTGlyph name="R" xMin="59" yMin="-64" xMax="1224" yMax="1563">
      <contour>
        <pt x="329" y="55" on="1"/>
        <pt x="327" y="51" on="0"/>
        <pt x="317" y="37" on="0"/>
        <pt x="285" y="0" on="0"/>
        <pt x="249" y="-27" on="0"/>
        <pt x="193" y="-50" on="0"/>
        <pt x="164" y="-50" on="1"/>
        <pt x="119" y="-50" on="0"/>
        <pt x="67" y="-20" on="0"/>
        <pt x="63" y="-5" on="1"/>
        <pt x="59" y="10" on="1"/>
        <pt x="125" y="70" on="0"/>
        <pt x="180" y="248" on="0"/>
        <pt x="180" y="385" on="1"/>
        <pt x="180" y="481" on="0"/>
        <pt x="158" y="621" on="0"/>
        <pt x="126" y="689" on="0"/>
        <pt x="93" y="729" on="0"/>
        <pt x="71" y="748" on="0"/>
        <pt x="71" y="756" on="1"/>
        <pt x="71" y="767" on="0"/>
        <pt x="93" y="788" on="0"/>
        <pt x="126" y="828" on="0"/>
        <pt x="158" y="899" on="0"/>
        <pt x="180" y="1054" on="0"/>
        <pt x="180" y="1163" on="1"/>
        <pt x="180" y="1295" on="0"/>
        <pt x="127" y="1439" on="0"/>
        <pt x="59" y="1503" on="1"/>
        <pt x="59" y="1505" on="0"/>
        <pt x="61" y="1513" on="0"/>
        <pt x="73" y="1534" on="0"/>
        <pt x="93" y="1549" on="0"/>
        <pt x="136" y="1562" on="0"/>
        <pt x="164" y="1562" on="1"/>
        <pt x="199" y="1562" on="0"/>
        <pt x="265" y="1541" on="0"/>
        <pt x="310" y="1512" on="0"/>
        <pt x="345" y="1483" on="0"/>
        <pt x="354" y="1472" on="1"/>
        <pt x="362" y="1462" on="1"/>
        <pt x="363" y="1466" on="0"/>
        <pt x="371" y="1480" on="0"/>
        <pt x="407" y="1514" on="0"/>
        <pt x="458" y="1540" on="0"/>
        <pt x="557" y="1562" on="0"/>
        <pt x="619" y="1562" on="1"/>
        <pt x="670" y="1562" on="0"/>
        <pt x="755" y="1556" on="0"/>
        <pt x="839" y="1541" on="0"/>
        <pt x="907" y="1516" on="0"/>
        <pt x="967" y="1476" on="0"/>
        <pt x="1009" y="1423" on="0"/>
        <pt x="1038" y="1351" on="0"/>
        <pt x="1043" y="1307" on="1"/>
        <pt x="1048" y="1266" on="0"/>
        <pt x="1074" y="1203" on="0"/>
        <pt x="1099" y="1175" on="0"/>
        <pt x="1119" y="1152" on="0"/>
        <pt x="1119" y="1146" on="1"/>
        <pt x="1119" y="1142" on="0"/>
        <pt x="1099" y="1118" on="0"/>
        <pt x="1074" y="1083" on="0"/>
        <pt x="1048" y="1004" on="0"/>
        <pt x="1043" y="953" on="1"/>
        <pt x="1038" y="897" on="0"/>
        <pt x="952" y="795" on="0"/>
        <pt x="887" y="789" on="1"/>
        <pt x="948" y="769" on="0"/>
        <pt x="1025" y="680" on="0"/>
        <pt x="1058" y="563" on="0"/>
        <pt x="1074" y="429" on="0"/>
        <pt x="1088" y="289" on="0"/>
        <pt x="1112" y="164" on="0"/>
        <pt x="1174" y="55" on="0"/>
        <pt x="1224" y="23" on="1"/>
        <pt x="1138" y="-64" on="0"/>
        <pt x="999" y="-64" on="1"/>
        <pt x="922" y="-64" on="0"/>
        <pt x="818" y="20" on="0"/>
        <pt x="771" y="154" on="0"/>
        <pt x="746" y="315" on="0"/>
        <pt x="735" y="477" on="0"/>
        <pt x="716" y="611" on="0"/>
        <pt x="667" y="695" on="0"/>
        <pt x="624" y="695" on="1"/>
        <pt x="490" y="695" on="1"/>
        <pt x="490" y="385" on="1"/>
        <pt x="490" y="238" on="0"/>
        <pt x="538" y="79" on="0"/>
        <pt x="601" y="10" on="1"/>
        <pt x="601" y="8" on="0"/>
        <pt x="599" y="-1" on="0"/>
        <pt x="587" y="-21" on="0"/>
        <pt x="567" y="-37" on="0"/>
        <pt x="524" y="-50" on="0"/>
        <pt x="496" y="-50" on="1"/>
        <pt x="467" y="-50" on="0"/>
        <pt x="411" y="-28" on="0"/>
        <pt x="373" y="2" on="0"/>
        <pt x="343" y="33" on="0"/>
        <pt x="336" y="44" on="1"/>
      </contour>
      <contour>
        <pt x="620" y="1372" on="1"/>
        <pt x="577" y="1372" on="0"/>
        <pt x="490" y="1340" on="0"/>
        <pt x="490" y="1322" on="1"/>
        <pt x="490" y="851" on="1"/>
        <pt x="608" y="851" on="0"/>
        <pt x="720" y="904" on="0"/>
        <pt x="720" y="963" on="1"/>
        <pt x="720" y="1302" on="1"/>
        <pt x="720" y="1328" on="0"/>
        <pt x="662" y="1372" on="0"/>
      </contour>
    </TTGlyph>
    <TTGlyph name="Racute" xMin="59" yMin="-64" xMax="1224" yMax="2036">
      <component glyphName="acute" x="508" y="590" flags="0x1004"/>
      <component glyphName="R" x="0" y="0" flags="0x1204"/>
    </TTGlyph>
    <TTGlyph name="Rcaron" xMin="59" yMin="-64" xMax="1224" yMax="2024">
      <component glyphName="caron" x="252" y="589" flags="0x1004"/>
      <component glyphName="R" x="0" y="0" flags="0x1204"/>
    </TTGlyph>
    <TTGlyph name="Rcommaaccent" xMin="59" yMin="-718" xMax="1224" yMax="1563">
      <component glyphName="uni0326" x="402" y="-365" flags="0x1004"/>
      <component glyphName="R" x="0" y="0" flags="0x1204"/>
    </TTGlyph>
    <TTGlyph name="S" xMin="26" yMin="-93" xMax="1017" yMax="1586">
      <contour>
        <pt x="670" y="305" on="1"/>
        <pt x="670" y="436" on="0"/>
        <pt x="540" y="605" on="0"/>
        <pt x="432" y="605" on="1"/>
        <pt x="403" y="605" on="0"/>
        <pt x="331" y="587" on="0"/>
        <pt x="326" y="587" on="1"/>
        <pt x="318" y="589" on="1"/>
        <pt x="308" y="594" on="0"/>
        <pt x="293" y="643" on="0"/>
        <pt x="254" y="714" on="0"/>
        <pt x="218" y="743" on="1"/>
        <pt x="26" y="898" on="0"/>
        <pt x="26" y="1155" on="1"/>
        <pt x="26" y="1362" on="0"/>
        <pt x="297" y="1586" on="0"/>
        <pt x="537" y="1586" on="1"/>
        <pt x="586" y="1586" on="0"/>
        <pt x="692" y="1561" on="0"/>
        <pt x="801" y="1506" on="0"/>
        <pt x="887" y="1429" on="0"/>
        <pt x="941" y="1311" on="0"/>
        <pt x="941" y="1242" on="1"/>
        <pt x="941" y="1196" on="0"/>
        <pt x="893" y="1042" on="0"/>
        <pt x="893" y="1026" on="1"/>
        <pt x="893" y="966" on="0"/>
        <pt x="943" y="911" on="1"/>
        <pt x="925" y="917" on="0"/>
        <pt x="894" y="917" on="1"/>
        <pt x="859" y="917" on="0"/>
        <pt x="800" y="951" on="0"/>
        <pt x="766" y="1000" on="0"/>
        <pt x="743" y="1049" on="0"/>
        <pt x="738" y="1066" on="1"/>
        <pt x="734" y="1083" on="1"/>
        <pt x="732" y="1080" on="0"/>
        <pt x="699" y="1065" on="0"/>
        <pt x="639" y="1049" on="0"/>
        <pt x="611" y="1049" on="1"/>
        <pt x="578" y="1049" on="0"/>
        <pt x="532" y="1066" on="0"/>
        <pt x="511" y="1085" on="0"/>
        <pt x="500" y="1114" on="0"/>
        <pt x="499" y="1124" on="0"/>
        <pt x="499" y="1130" on="1"/>
        <pt x="561" y="1133" on="0"/>
        <pt x="654" y="1191" on="0"/>
        <pt x="654" y="1253" on="1"/>
        <pt x="654" y="1320" on="0"/>
        <pt x="577" y="1392" on="0"/>
        <pt x="529" y="1392" on="1"/>
        <pt x="372" y="1392" on="0"/>
        <pt x="372" y="1204" on="1"/>
        <pt x="372" y="1131" on="0"/>
        <pt x="410" y="1008" on="0"/>
        <pt x="495" y="926" on="0"/>
        <pt x="554" y="926" on="1"/>
        <pt x="583" y="926" on="0"/>
        <pt x="679" y="953" on="0"/>
        <pt x="685" y="953" on="1"/>
        <pt x="694" y="953" on="0"/>
        <pt x="712" y="901" on="0"/>
        <pt x="750" y="827" on="0"/>
        <pt x="780" y="807" on="1"/>
        <pt x="889" y="735" on="0"/>
        <pt x="1017" y="509" on="0"/>
        <pt x="1017" y="362" on="1"/>
        <pt x="1017" y="253" on="0"/>
        <pt x="927" y="75" on="0"/>
        <pt x="779" y="-35" on="0"/>
        <pt x="598" y="-93" on="0"/>
        <pt x="501" y="-93" on="1"/>
        <pt x="412" y="-93" on="0"/>
        <pt x="249" y="-43" on="0"/>
        <pt x="120" y="53" on="0"/>
        <pt x="43" y="206" on="0"/>
        <pt x="43" y="302" on="1"/>
        <pt x="43" y="344" on="0"/>
        <pt x="96" y="495" on="0"/>
        <pt x="96" y="529" on="1"/>
        <pt x="96" y="578" on="0"/>
        <pt x="62" y="624" on="1"/>
        <pt x="76" y="634" on="0"/>
        <pt x="99" y="634" on="1"/>
        <pt x="161" y="634" on="0"/>
        <pt x="256" y="511" on="0"/>
        <pt x="257" y="447" on="1"/>
        <pt x="323" y="482" on="0"/>
        <pt x="387" y="482" on="1"/>
        <pt x="421" y="482" on="0"/>
        <pt x="469" y="463" on="0"/>
        <pt x="489" y="434" on="0"/>
        <pt x="496" y="413" on="0"/>
        <pt x="496" y="404" on="1"/>
        <pt x="496" y="396" on="1"/>
        <pt x="438" y="389" on="0"/>
        <pt x="351" y="306" on="0"/>
        <pt x="351" y="245" on="1"/>
        <pt x="351" y="178" on="0"/>
        <pt x="433" y="116" on="0"/>
        <pt x="483" y="116" on="1"/>
        <pt x="558" y="116" on="0"/>
        <pt x="670" y="215" on="0"/>
      </contour>
    </TTGlyph>
    <TTGlyph name="Sacute" xMin="26" yMin="-93" xMax="1017" yMax="2036">
      <component glyphName="acute" x="388" y="590" flags="0x1004"/>
      <component glyphName="S" x="0" y="0" flags="0x1204"/>
    </TTGlyph>
    <TTGlyph name="Scaron" xMin="26" yMin="-93" xMax="1017" yMax="2024">
      <component glyphName="caron" x="132" y="589" flags="0x1004"/>
      <component glyphName="S" x="0" y="0" flags="0x1204"/>
    </TTGlyph>
    <TTGlyph name="Scedilla" xMin="26" yMin="-491" xMax="1017" yMax="1586">
      <component glyphName="cedilla" x="256" y="-67" flags="0x1004"/>
      <component glyphName="S" x="0" y="0" flags="0x1204"/>
    </TTGlyph>
    <TTGlyph name="Scommaaccent" xMin="26" yMin="-737" xMax="1017" yMax="1586">
      <component glyphName="uni0326" x="282" y="-384" flags="0x1004"/>
      <component glyphName="S" x="0" y="0" flags="0x1204"/>
    </TTGlyph>
    <TTGlyph name="T" xMin="8" yMin="-50" xMax="947" yMax="1562">
      <contour>
        <pt x="479" y="1480" on="1"/>
        <pt x="526" y="1562" on="0"/>
        <pt x="589" y="1562" on="1"/>
        <pt x="615" y="1562" on="0"/>
        <pt x="720" y="1514" on="0"/>
        <pt x="751" y="1514" on="1"/>
        <pt x="827" y="1514" on="0"/>
        <pt x="908" y="1562" on="1"/>
        <pt x="910" y="1562" on="0"/>
        <pt x="915" y="1561" on="0"/>
        <pt x="928" y="1552" on="0"/>
        <pt x="939" y="1539" on="0"/>
        <pt x="947" y="1510" on="0"/>
        <pt x="947" y="1492" on="1"/>
        <pt x="947" y="1465" on="0"/>
        <pt x="917" y="1415" on="0"/>
        <pt x="895" y="1395" on="0"/>
        <pt x="890" y="1393" on="1"/>
        <pt x="898" y="1388" on="0"/>
        <pt x="918" y="1370" on="0"/>
        <pt x="947" y="1321" on="0"/>
        <pt x="947" y="1295" on="1"/>
        <pt x="947" y="1277" on="0"/>
        <pt x="939" y="1248" on="0"/>
        <pt x="928" y="1234" on="0"/>
        <pt x="916" y="1226" on="0"/>
        <pt x="912" y="1225" on="1"/>
        <pt x="908" y="1224" on="1"/>
        <pt x="876" y="1261" on="0"/>
        <pt x="799" y="1294" on="0"/>
        <pt x="740" y="1294" on="1"/>
        <pt x="637" y="1290" on="1"/>
        <pt x="625" y="1278" on="0"/>
        <pt x="625" y="1136" on="1"/>
        <pt x="625" y="1038" on="0"/>
        <pt x="647" y="894" on="0"/>
        <pt x="680" y="825" on="0"/>
        <pt x="712" y="785" on="0"/>
        <pt x="734" y="765" on="0"/>
        <pt x="734" y="757" on="1"/>
        <pt x="734" y="748" on="0"/>
        <pt x="718" y="730" on="0"/>
        <pt x="694" y="712" on="0"/>
        <pt x="665" y="663" on="0"/>
        <pt x="641" y="593" on="0"/>
        <pt x="625" y="461" on="0"/>
        <pt x="625" y="374" on="1"/>
        <pt x="625" y="233" on="0"/>
        <pt x="678" y="75" on="0"/>
        <pt x="746" y="10" on="1"/>
        <pt x="746" y="8" on="0"/>
        <pt x="744" y="-1" on="0"/>
        <pt x="732" y="-21" on="0"/>
        <pt x="711" y="-37" on="0"/>
        <pt x="669" y="-50" on="0"/>
        <pt x="640" y="-50" on="1"/>
        <pt x="594" y="-50" on="0"/>
        <pt x="514" y="8" on="0"/>
        <pt x="496" y="36" on="1"/>
        <pt x="479" y="65" on="1"/>
        <pt x="477" y="60" on="0"/>
        <pt x="469" y="45" on="0"/>
        <pt x="440" y="5" on="0"/>
        <pt x="406" y="-25" on="0"/>
        <pt x="346" y="-50" on="0"/>
        <pt x="313" y="-50" on="1"/>
        <pt x="285" y="-50" on="0"/>
        <pt x="242" y="-38" on="0"/>
        <pt x="222" y="-20" on="0"/>
        <pt x="209" y="-2" on="0"/>
        <pt x="208" y="4" on="1"/>
        <pt x="207" y="10" on="1"/>
        <pt x="275" y="75" on="0"/>
        <pt x="328" y="234" on="0"/>
        <pt x="328" y="374" on="1"/>
        <pt x="328" y="477" on="0"/>
        <pt x="306" y="624" on="0"/>
        <pt x="274" y="690" on="0"/>
        <pt x="241" y="727" on="0"/>
        <pt x="219" y="747" on="0"/>
        <pt x="219" y="757" on="1"/>
        <pt x="219" y="765" on="0"/>
        <pt x="241" y="785" on="0"/>
        <pt x="274" y="825" on="0"/>
        <pt x="306" y="894" on="0"/>
        <pt x="328" y="1038" on="0"/>
        <pt x="328" y="1136" on="1"/>
        <pt x="328" y="1199" on="0"/>
        <pt x="322" y="1276" on="0"/>
        <pt x="319" y="1283" on="1"/>
        <pt x="316" y="1290" on="1"/>
        <pt x="316" y="1294" on="0"/>
        <pt x="192" y="1294" on="1"/>
        <pt x="140" y="1294" on="0"/>
        <pt x="76" y="1261" on="0"/>
        <pt x="48" y="1224" on="1"/>
        <pt x="44" y="1225" on="0"/>
        <pt x="30" y="1230" on="0"/>
        <pt x="8" y="1266" on="0"/>
        <pt x="8" y="1295" on="1"/>
        <pt x="8" y="1312" on="0"/>
        <pt x="19" y="1343" on="0"/>
        <pt x="35" y="1366" on="0"/>
        <pt x="51" y="1382" on="0"/>
        <pt x="58" y="1388" on="1"/>
        <pt x="64" y="1393" on="1"/>
        <pt x="57" y="1398" on="0"/>
        <pt x="38" y="1414" on="0"/>
        <pt x="8" y="1465" on="0"/>
        <pt x="8" y="1492" on="1"/>
        <pt x="8" y="1521" on="0"/>
        <pt x="28" y="1556" on="0"/>
        <pt x="38" y="1559" on="1"/>
        <pt x="48" y="1562" on="1"/>
        <pt x="126" y="1514" on="0"/>
        <pt x="205" y="1514" on="1"/>
        <pt x="236" y="1514" on="0"/>
        <pt x="341" y="1562" on="0"/>
        <pt x="367" y="1562" on="1"/>
        <pt x="431" y="1562" on="0"/>
      </contour>
    </TTGlyph>
    <TTGlyph name="Tcaron" xMin="8" yMin="-50" xMax="947" yMax="2024">
      <component glyphName="caron" x="82" y="589" flags="0x1004"/>
      <component glyphName="T" x="0" y="0" flags="0x1204"/>
    </TTGlyph>
    <TTGlyph name="Tcommaaccent" xMin="8" yMin="-491" xMax="947" yMax="1562">
      <component glyphName="cedilla" x="206" y="-67" flags="0x1004"/>
      <component glyphName="T" x="0" y="0" flags="0x1204"/>
    </TTGlyph>
    <TTGlyph name="Thorn" xMin="50" yMin="-74" xMax="1083" yMax="1712">
      <contour>
        <pt x="62" y="756" on="1"/>
        <pt x="62" y="766" on="0"/>
        <pt x="84" y="783" on="0"/>
        <pt x="117" y="817" on="0"/>
        <pt x="149" y="876" on="0"/>
        <pt x="171" y="1006" on="0"/>
        <pt x="171" y="1097" on="1"/>
        <pt x="171" y="1282" on="1"/>
        <pt x="171" y="1419" on="0"/>
        <pt x="116" y="1583" on="0"/>
        <pt x="51" y="1652" on="1"/>
        <pt x="51" y="1654" on="0"/>
        <pt x="53" y="1663" on="0"/>
        <pt x="66" y="1683" on="0"/>
        <pt x="86" y="1699" on="0"/>
        <pt x="128" y="1712" on="0"/>
        <pt x="156" y="1712" on="1"/>
        <pt x="185" y="1712" on="0"/>
        <pt x="241" y="1688" on="0"/>
        <pt x="278" y="1654" on="0"/>
        <pt x="307" y="1621" on="0"/>
        <pt x="314" y="1609" on="1"/>
        <pt x="321" y="1597" on="1"/>
        <pt x="324" y="1602" on="0"/>
        <pt x="334" y="1617" on="0"/>
        <pt x="369" y="1657" on="0"/>
        <pt x="407" y="1687" on="0"/>
        <pt x="466" y="1712" on="0"/>
        <pt x="497" y="1712" on="1"/>
        <pt x="525" y="1712" on="0"/>
        <pt x="568" y="1700" on="0"/>
        <pt x="588" y="1682" on="0"/>
        <pt x="601" y="1664" on="0"/>
        <pt x="602" y="1658" on="1"/>
        <pt x="603" y="1652" on="1"/>
        <pt x="549" y="1593" on="0"/>
        <pt x="492" y="1467" on="0"/>
        <pt x="480" y="1379" on="1"/>
        <pt x="549" y="1436" on="0"/>
        <pt x="635" y="1436" on="1"/>
        <pt x="771" y="1436" on="0"/>
        <pt x="976" y="1306" on="0"/>
        <pt x="1007" y="1189" on="1"/>
        <pt x="1017" y="1136" on="0"/>
        <pt x="1045" y="1065" on="0"/>
        <pt x="1067" y="1042" on="0"/>
        <pt x="1083" y="1026" on="0"/>
        <pt x="1083" y="1020" on="1"/>
        <pt x="1083" y="1017" on="0"/>
        <pt x="1074" y="1006" on="0"/>
        <pt x="1057" y="983" on="0"/>
        <pt x="1038" y="946" on="0"/>
        <pt x="1016" y="869" on="0"/>
        <pt x="1007" y="818" on="1"/>
        <pt x="992" y="739" on="0"/>
        <pt x="910" y="616" on="0"/>
        <pt x="805" y="542" on="0"/>
        <pt x="670" y="494" on="0"/>
        <pt x="546" y="476" on="0"/>
        <pt x="481" y="476" on="1"/>
        <pt x="481" y="386" on="1"/>
        <pt x="481" y="230" on="0"/>
        <pt x="534" y="59" on="0"/>
        <pt x="602" y="-14" on="1"/>
        <pt x="602" y="-16" on="0"/>
        <pt x="600" y="-25" on="0"/>
        <pt x="587" y="-45" on="0"/>
        <pt x="567" y="-61" on="0"/>
        <pt x="524" y="-74" on="0"/>
        <pt x="496" y="-74" on="1"/>
        <pt x="465" y="-74" on="0"/>
        <pt x="406" y="-50" on="0"/>
        <pt x="366" y="-17" on="0"/>
        <pt x="335" y="17" on="0"/>
        <pt x="328" y="29" on="1"/>
        <pt x="320" y="41" on="1"/>
        <pt x="318" y="36" on="0"/>
        <pt x="308" y="21" on="0"/>
        <pt x="276" y="-19" on="0"/>
        <pt x="240" y="-49" on="0"/>
        <pt x="184" y="-74" on="0"/>
        <pt x="155" y="-74" on="1"/>
        <pt x="127" y="-74" on="0"/>
        <pt x="85" y="-62" on="0"/>
        <pt x="64" y="-44" on="0"/>
        <pt x="52" y="-26" on="0"/>
        <pt x="51" y="-20" on="1"/>
        <pt x="50" y="-14" on="1"/>
        <pt x="118" y="57" on="0"/>
        <pt x="171" y="232" on="0"/>
        <pt x="171" y="386" on="1"/>
        <pt x="171" y="481" on="0"/>
        <pt x="149" y="621" on="0"/>
        <pt x="117" y="689" on="0"/>
        <pt x="84" y="729" on="0"/>
        <pt x="62" y="748" on="0"/>
      </contour>
      <contour>
        <pt x="596" y="1222" on="1"/>
        <pt x="556" y="1222" on="0"/>
        <pt x="481" y="1190" on="0"/>
        <pt x="481" y="1172" on="1"/>
        <pt x="481" y="658" on="1"/>
        <pt x="593" y="669" on="0"/>
        <pt x="697" y="735" on="0"/>
        <pt x="697" y="821" on="1"/>
        <pt x="697" y="1152" on="1"/>
        <pt x="697" y="1177" on="0"/>
        <pt x="638" y="1222" on="0"/>
      </contour>
    </TTGlyph>
    <TTGlyph name="U" xMin="35" yMin="-93" xMax="1257" yMax="1562">
      <contour>
        <pt x="652" y="-93" on="1"/>
        <pt x="531" y="-93" on="0"/>
        <pt x="353" y="-41" on="0"/>
        <pt x="222" y="75" on="0"/>
        <pt x="156" y="269" on="0"/>
        <pt x="156" y="407" on="1"/>
        <pt x="156" y="497" on="0"/>
        <pt x="138" y="629" on="0"/>
        <pt x="112" y="692" on="0"/>
        <pt x="87" y="730" on="0"/>
        <pt x="69" y="749" on="0"/>
        <pt x="69" y="756" on="1"/>
        <pt x="69" y="767" on="0"/>
        <pt x="87" y="787" on="0"/>
        <pt x="112" y="825" on="0"/>
        <pt x="138" y="893" on="0"/>
        <pt x="156" y="1042" on="0"/>
        <pt x="156" y="1148" on="1"/>
        <pt x="156" y="1285" on="0"/>
        <pt x="103" y="1438" on="0"/>
        <pt x="35" y="1503" on="1"/>
        <pt x="35" y="1505" on="0"/>
        <pt x="37" y="1513" on="0"/>
        <pt x="49" y="1534" on="0"/>
        <pt x="69" y="1549" on="0"/>
        <pt x="112" y="1562" on="0"/>
        <pt x="140" y="1562" on="1"/>
        <pt x="174" y="1562" on="0"/>
        <pt x="242" y="1540" on="0"/>
        <pt x="288" y="1510" on="0"/>
        <pt x="325" y="1479" on="0"/>
        <pt x="334" y="1468" on="1"/>
        <pt x="343" y="1457" on="1"/>
        <pt x="346" y="1461" on="0"/>
        <pt x="357" y="1475" on="0"/>
        <pt x="394" y="1512" on="0"/>
        <pt x="434" y="1539" on="0"/>
        <pt x="498" y="1562" on="0"/>
        <pt x="530" y="1562" on="1"/>
        <pt x="575" y="1562" on="0"/>
        <pt x="628" y="1532" on="0"/>
        <pt x="632" y="1518" on="1"/>
        <pt x="636" y="1503" on="1"/>
        <pt x="568" y="1438" on="0"/>
        <pt x="515" y="1285" on="0"/>
        <pt x="515" y="1148" on="1"/>
        <pt x="515" y="1019" on="0"/>
        <pt x="539" y="854" on="0"/>
        <pt x="567" y="807" on="0"/>
        <pt x="591" y="777" on="0"/>
        <pt x="591" y="765" on="1"/>
        <pt x="591" y="759" on="0"/>
        <pt x="567" y="731" on="0"/>
        <pt x="539" y="687" on="0"/>
        <pt x="515" y="556" on="0"/>
        <pt x="515" y="460" on="1"/>
        <pt x="515" y="456" on="0"/>
        <pt x="515" y="448" on="0"/>
        <pt x="515" y="441" on="0"/>
        <pt x="515" y="434" on="0"/>
        <pt x="515" y="426" on="0"/>
        <pt x="515" y="423" on="1"/>
        <pt x="515" y="389" on="0"/>
        <pt x="516" y="348" on="0"/>
        <pt x="518" y="292" on="0"/>
        <pt x="522" y="259" on="0"/>
        <pt x="530" y="217" on="0"/>
        <pt x="541" y="192" on="0"/>
        <pt x="557" y="163" on="0"/>
        <pt x="579" y="147" on="0"/>
        <pt x="608" y="133" on="0"/>
        <pt x="643" y="127" on="0"/>
        <pt x="665" y="127" on="1"/>
        <pt x="689" y="127" on="0"/>
        <pt x="727" y="136" on="0"/>
        <pt x="757" y="149" on="0"/>
        <pt x="779" y="176" on="0"/>
        <pt x="794" y="200" on="0"/>
        <pt x="804" y="244" on="0"/>
        <pt x="810" y="279" on="0"/>
        <pt x="812" y="339" on="0"/>
        <pt x="813" y="383" on="0"/>
        <pt x="813" y="421" on="1"/>
        <pt x="813" y="426" on="0"/>
        <pt x="813" y="446" on="0"/>
        <pt x="813" y="451" on="1"/>
        <pt x="813" y="550" on="0"/>
        <pt x="789" y="685" on="0"/>
        <pt x="761" y="730" on="0"/>
        <pt x="737" y="759" on="0"/>
        <pt x="737" y="765" on="1"/>
        <pt x="737" y="777" on="0"/>
        <pt x="761" y="807" on="0"/>
        <pt x="789" y="854" on="0"/>
        <pt x="813" y="1019" on="0"/>
        <pt x="813" y="1148" on="1"/>
        <pt x="813" y="1286" on="0"/>
        <pt x="767" y="1439" on="0"/>
        <pt x="706" y="1503" on="1"/>
        <pt x="706" y="1505" on="0"/>
        <pt x="708" y="1513" on="0"/>
        <pt x="720" y="1534" on="0"/>
        <pt x="741" y="1549" on="0"/>
        <pt x="783" y="1562" on="0"/>
        <pt x="841" y="1562" on="0"/>
        <pt x="896" y="1540" on="0"/>
        <pt x="934" y="1510" on="0"/>
        <pt x="963" y="1479" on="0"/>
        <pt x="970" y="1468" on="1"/>
        <pt x="977" y="1457" on="1"/>
        <pt x="980" y="1461" on="0"/>
        <pt x="990" y="1475" on="0"/>
        <pt x="1024" y="1512" on="0"/>
        <pt x="1062" y="1539" on="0"/>
        <pt x="1120" y="1562" on="0"/>
        <pt x="1151" y="1562" on="1"/>
        <pt x="1196" y="1562" on="0"/>
        <pt x="1249" y="1532" on="0"/>
        <pt x="1253" y="1518" on="1"/>
        <pt x="1257" y="1503" on="1"/>
        <pt x="1189" y="1438" on="0"/>
        <pt x="1136" y="1285" on="0"/>
        <pt x="1136" y="1148" on="1"/>
        <pt x="1136" y="1042" on="0"/>
        <pt x="1154" y="893" on="0"/>
        <pt x="1180" y="825" on="0"/>
        <pt x="1205" y="787" on="0"/>
        <pt x="1223" y="767" on="0"/>
        <pt x="1223" y="756" on="1"/>
        <pt x="1223" y="749" on="0"/>
        <pt x="1205" y="730" on="0"/>
        <pt x="1180" y="692" on="0"/>
        <pt x="1154" y="629" on="0"/>
        <pt x="1136" y="497" on="0"/>
        <pt x="1136" y="407" on="1"/>
        <pt x="1136" y="269" on="0"/>
        <pt x="1072" y="75" on="0"/>
        <pt x="944" y="-41" on="0"/>
        <pt x="770" y="-93" on="0"/>
      </contour>
    </TTGlyph>
    <TTGlyph name="Uacute" xMin="35" yMin="-93" xMax="1257" yMax="2036">
      <component glyphName="acute" x="512" y="590" flags="0x1004"/>
      <component glyphName="U" x="0" y="0" flags="0x1204"/>
    </TTGlyph>
    <TTGlyph name="Ubreve" xMin="35" yMin="-93" xMax="1257" yMax="1997">
      <component glyphName="breve" x="259" y="582" flags="0x1004"/>
      <component glyphName="U" x="0" y="0" flags="0x1204"/>
    </TTGlyph>
    <TTGlyph name="Ucircumflex" xMin="35" yMin="-93" xMax="1257" yMax="2024">
      <component glyphName="circumflex" x="251" y="589" flags="0x1004"/>
      <component glyphName="U" x="0" y="0" flags="0x1204"/>
    </TTGlyph>
    <TTGlyph name="Udieresis" xMin="35" yMin="-93" xMax="1257" yMax="1936">
      <component glyphName="dieresis" x="242" y="559" flags="0x1004"/>
      <component glyphName="U" x="0" y="0" flags="0x1204"/>
    </TTGlyph>
    <TTGlyph name="Ugrave" xMin="35" yMin="-93" xMax="1257" yMax="2036">
      <component glyphName="grave" x="184" y="590" flags="0x1004"/>
      <component glyphName="U" x="0" y="0" flags="0x1204"/>
    </TTGlyph>
    <TTGlyph name="Uhungarumlaut" xMin="35" yMin="-93" xMax="1257" yMax="2031">
      <component glyphName="hungarumlaut" x="331" y="585" flags="0x1004"/>
      <component glyphName="U" x="0" y="0" flags="0x1204"/>
    </TTGlyph>
    <TTGlyph name="Umacron" xMin="35" yMin="-93" xMax="1257" yMax="1815">
      <component glyphName="macron" x="242" y="504" flags="0x1004"/>
      <component glyphName="U" x="0" y="0" flags="0x1204"/>
    </TTGlyph>
    <TTGlyph name="Uogonek" xMin="35" yMin="-512" xMax="1257" yMax="1562">
      <component glyphName="ogonek" x="294" y="-78" flags="0x1004"/>
      <component glyphName="U" x="0" y="0" flags="0x1204"/>
    </TTGlyph>
    <TTGlyph name="Uring" xMin="35" yMin="-93" xMax="1257" yMax="2104">
      <component glyphName="ring" x="358" y="614" flags="0x1004"/>
      <component glyphName="U" x="0" y="0" flags="0x1204"/>
    </TTGlyph>
    <TTGlyph name="Utilde" xMin="35" yMin="-93" xMax="1257" yMax="1959">
      <component glyphName="tilde" x="214" y="561" flags="0x1004"/>
      <component glyphName="U" x="0" y="0" flags="0x1204"/>
    </TTGlyph>
    <TTGlyph name="V" xMin="-7" yMin="-50" xMax="1290" yMax="1562">
      <contour>
        <pt x="1065" y="762" on="1"/>
        <pt x="1056" y="748" on="0"/>
        <pt x="1027" y="700" on="0"/>
        <pt x="953" y="558" on="0"/>
        <pt x="896" y="425" on="0"/>
        <pt x="850" y="254" on="0"/>
        <pt x="850" y="187" on="1"/>
        <pt x="850" y="93" on="0"/>
        <pt x="903" y="10" on="1"/>
        <pt x="903" y="6" on="1"/>
        <pt x="903" y="1" on="0"/>
        <pt x="900" y="-10" on="0"/>
        <pt x="887" y="-28" on="0"/>
        <pt x="865" y="-41" on="0"/>
        <pt x="820" y="-50" on="0"/>
        <pt x="790" y="-50" on="1"/>
        <pt x="765" y="-50" on="0"/>
        <pt x="714" y="-26" on="0"/>
        <pt x="676" y="7" on="0"/>
        <pt x="645" y="41" on="0"/>
        <pt x="637" y="53" on="1"/>
        <pt x="629" y="65" on="1"/>
        <pt x="627" y="60" on="0"/>
        <pt x="619" y="45" on="0"/>
        <pt x="588" y="5" on="0"/>
        <pt x="549" y="-25" on="0"/>
        <pt x="480" y="-50" on="0"/>
        <pt x="440" y="-50" on="1"/>
        <pt x="406" y="-50" on="0"/>
        <pt x="362" y="-20" on="0"/>
        <pt x="357" y="-5" on="1"/>
        <pt x="352" y="10" on="1"/>
        <pt x="412" y="94" on="0"/>
        <pt x="412" y="199" on="1"/>
        <pt x="412" y="259" on="0"/>
        <pt x="383" y="375" on="1"/>
        <pt x="358" y="477" on="0"/>
        <pt x="296" y="624" on="0"/>
        <pt x="244" y="691" on="0"/>
        <pt x="199" y="731" on="0"/>
        <pt x="174" y="750" on="0"/>
        <pt x="174" y="760" on="1"/>
        <pt x="174" y="768" on="0"/>
        <pt x="190" y="789" on="0"/>
        <pt x="210" y="812" on="0"/>
        <pt x="226" y="875" on="0"/>
        <pt x="226" y="920" on="1"/>
        <pt x="226" y="1099" on="0"/>
        <pt x="92" y="1423" on="0"/>
        <pt x="-7" y="1503" on="1"/>
        <pt x="-7" y="1507" on="1"/>
        <pt x="-7" y="1511" on="0"/>
        <pt x="-4" y="1521" on="0"/>
        <pt x="1" y="1534" on="0"/>
        <pt x="14" y="1546" on="0"/>
        <pt x="33" y="1556" on="0"/>
        <pt x="65" y="1562" on="0"/>
        <pt x="85" y="1562" on="1"/>
        <pt x="116" y="1562" on="0"/>
        <pt x="182" y="1540" on="0"/>
        <pt x="231" y="1510" on="0"/>
        <pt x="271" y="1479" on="0"/>
        <pt x="282" y="1468" on="1"/>
        <pt x="292" y="1457" on="1"/>
        <pt x="294" y="1461" on="0"/>
        <pt x="301" y="1475" on="0"/>
        <pt x="329" y="1512" on="0"/>
        <pt x="363" y="1539" on="0"/>
        <pt x="420" y="1562" on="0"/>
        <pt x="453" y="1562" on="1"/>
        <pt x="482" y="1562" on="0"/>
        <pt x="527" y="1550" on="0"/>
        <pt x="551" y="1532" on="0"/>
        <pt x="567" y="1515" on="0"/>
        <pt x="570" y="1509" on="1"/>
        <pt x="572" y="1503" on="1"/>
        <pt x="509" y="1427" on="0"/>
        <pt x="509" y="1310" on="1"/>
        <pt x="509" y="1221" on="0"/>
        <pt x="676" y="402" on="0"/>
        <pt x="681" y="368" on="1"/>
        <pt x="733" y="534" on="0"/>
        <pt x="733" y="604" on="1"/>
        <pt x="733" y="659" on="0"/>
        <pt x="720" y="723" on="0"/>
        <pt x="706" y="748" on="0"/>
        <pt x="706" y="753" on="1"/>
        <pt x="712" y="763" on="0"/>
        <pt x="731" y="799" on="0"/>
        <pt x="781" y="914" on="0"/>
        <pt x="820" y="1034" on="0"/>
        <pt x="851" y="1209" on="0"/>
        <pt x="851" y="1292" on="1"/>
        <pt x="851" y="1421" on="0"/>
        <pt x="788" y="1503" on="1"/>
        <pt x="789" y="1505" on="0"/>
        <pt x="791" y="1513" on="0"/>
        <pt x="804" y="1534" on="0"/>
        <pt x="820" y="1549" on="0"/>
        <pt x="851" y="1562" on="0"/>
        <pt x="869" y="1562" on="1"/>
        <pt x="901" y="1562" on="0"/>
        <pt x="956" y="1540" on="0"/>
        <pt x="987" y="1510" on="0"/>
        <pt x="1010" y="1479" on="0"/>
        <pt x="1014" y="1468" on="1"/>
        <pt x="1018" y="1457" on="1"/>
        <pt x="1030" y="1469" on="0"/>
        <pt x="1070" y="1504" on="0"/>
        <pt x="1177" y="1562" on="0"/>
        <pt x="1220" y="1562" on="1"/>
        <pt x="1249" y="1562" on="0"/>
        <pt x="1283" y="1541" on="0"/>
        <pt x="1290" y="1521" on="0"/>
        <pt x="1290" y="1510" on="1"/>
        <pt x="1290" y="1503" on="1"/>
        <pt x="1190" y="1423" on="0"/>
        <pt x="1045" y="1086" on="0"/>
        <pt x="1045" y="910" on="1"/>
        <pt x="1045" y="838" on="0"/>
        <pt x="1065" y="763" on="0"/>
      </contour>
    </TTGlyph>
    <TTGlyph name="W" xMin="6" yMin="-50" xMax="1881" yMax="1562">
      <contour>
        <pt x="1716" y="762" on="1"/>
        <pt x="1708" y="748" on="0"/>
        <pt x="1682" y="698" on="0"/>
        <pt x="1615" y="552" on="0"/>
        <pt x="1563" y="417" on="0"/>
        <pt x="1521" y="247" on="0"/>
        <pt x="1521" y="183" on="1"/>
        <pt x="1521" y="92" on="0"/>
        <pt x="1574" y="10" on="1"/>
        <pt x="1574" y="6" on="1"/>
        <pt x="1574" y="1" on="0"/>
        <pt x="1571" y="-10" on="0"/>
        <pt x="1558" y="-28" on="0"/>
        <pt x="1536" y="-41" on="0"/>
        <pt x="1491" y="-50" on="0"/>
        <pt x="1461" y="-50" on="1"/>
        <pt x="1436" y="-50" on="0"/>
        <pt x="1385" y="-26" on="0"/>
        <pt x="1347" y="7" on="0"/>
        <pt x="1316" y="41" on="0"/>
        <pt x="1308" y="53" on="1"/>
        <pt x="1300" y="65" on="1"/>
        <pt x="1298" y="60" on="0"/>
        <pt x="1290" y="45" on="0"/>
        <pt x="1259" y="5" on="0"/>
        <pt x="1220" y="-25" on="0"/>
        <pt x="1151" y="-50" on="0"/>
        <pt x="1111" y="-50" on="1"/>
        <pt x="1077" y="-50" on="0"/>
        <pt x="1033" y="-20" on="0"/>
        <pt x="1028" y="-5" on="1"/>
        <pt x="1023" y="10" on="1"/>
        <pt x="1083" y="92" on="0"/>
        <pt x="1083" y="195" on="1"/>
        <pt x="1083" y="211" on="0"/>
        <pt x="1077" y="255" on="0"/>
        <pt x="1071" y="289" on="0"/>
        <pt x="1057" y="357" on="0"/>
        <pt x="1054" y="375" on="1"/>
        <pt x="1035" y="473" on="0"/>
        <pt x="987" y="688" on="0"/>
        <pt x="972" y="746" on="1"/>
        <pt x="957" y="805" on="1"/>
        <pt x="940" y="754" on="0"/>
        <pt x="889" y="592" on="0"/>
        <pt x="803" y="255" on="0"/>
        <pt x="803" y="183" on="1"/>
        <pt x="803" y="92" on="0"/>
        <pt x="856" y="10" on="1"/>
        <pt x="856" y="6" on="1"/>
        <pt x="856" y="1" on="0"/>
        <pt x="853" y="-10" on="0"/>
        <pt x="840" y="-28" on="0"/>
        <pt x="818" y="-41" on="0"/>
        <pt x="773" y="-50" on="0"/>
        <pt x="743" y="-50" on="1"/>
        <pt x="718" y="-50" on="0"/>
        <pt x="667" y="-26" on="0"/>
        <pt x="629" y="7" on="0"/>
        <pt x="598" y="41" on="0"/>
        <pt x="590" y="53" on="1"/>
        <pt x="582" y="65" on="1"/>
        <pt x="580" y="60" on="0"/>
        <pt x="572" y="45" on="0"/>
        <pt x="541" y="5" on="0"/>
        <pt x="502" y="-25" on="0"/>
        <pt x="433" y="-50" on="0"/>
        <pt x="393" y="-50" on="1"/>
        <pt x="359" y="-50" on="0"/>
        <pt x="315" y="-20" on="0"/>
        <pt x="310" y="-5" on="1"/>
        <pt x="305" y="10" on="1"/>
        <pt x="365" y="92" on="0"/>
        <pt x="365" y="195" on="1"/>
        <pt x="365" y="249" on="0"/>
        <pt x="336" y="375" on="1"/>
        <pt x="313" y="476" on="0"/>
        <pt x="256" y="624" on="0"/>
        <pt x="210" y="691" on="0"/>
        <pt x="170" y="731" on="0"/>
        <pt x="147" y="750" on="0"/>
        <pt x="147" y="760" on="1"/>
        <pt x="147" y="768" on="0"/>
        <pt x="163" y="789" on="0"/>
        <pt x="183" y="812" on="0"/>
        <pt x="199" y="875" on="0"/>
        <pt x="199" y="920" on="1"/>
        <pt x="199" y="1102" on="0"/>
        <pt x="92" y="1422" on="0"/>
        <pt x="6" y="1503" on="1"/>
        <pt x="6" y="1507" on="1"/>
        <pt x="6" y="1511" on="0"/>
        <pt x="9" y="1521" on="0"/>
        <pt x="14" y="1534" on="0"/>
        <pt x="27" y="1546" on="0"/>
        <pt x="46" y="1556" on="0"/>
        <pt x="78" y="1562" on="0"/>
        <pt x="98" y="1562" on="1"/>
        <pt x="125" y="1562" on="0"/>
        <pt x="182" y="1540" on="0"/>
        <pt x="223" y="1510" on="0"/>
        <pt x="257" y="1479" on="0"/>
        <pt x="266" y="1468" on="1"/>
        <pt x="275" y="1457" on="1"/>
        <pt x="277" y="1461" on="0"/>
        <pt x="284" y="1475" on="0"/>
        <pt x="312" y="1512" on="0"/>
        <pt x="346" y="1539" on="0"/>
        <pt x="403" y="1562" on="0"/>
        <pt x="436" y="1562" on="1"/>
        <pt x="465" y="1562" on="0"/>
        <pt x="510" y="1550" on="0"/>
        <pt x="534" y="1532" on="0"/>
        <pt x="550" y="1515" on="0"/>
        <pt x="552" y="1509" on="1"/>
        <pt x="555" y="1503" on="1"/>
        <pt x="522" y="1460" on="0"/>
        <pt x="495" y="1366" on="0"/>
        <pt x="495" y="1313" on="1"/>
        <pt x="495" y="1256" on="0"/>
        <pt x="516" y="1148" on="1"/>
        <pt x="523" y="1110" on="0"/>
        <pt x="629" y="410" on="0"/>
        <pt x="634" y="368" on="1"/>
        <pt x="686" y="534" on="0"/>
        <pt x="686" y="604" on="1"/>
        <pt x="686" y="650" on="0"/>
        <pt x="670" y="713" on="0"/>
        <pt x="655" y="741" on="0"/>
        <pt x="655" y="749" on="0"/>
        <pt x="659" y="753" on="1"/>
        <pt x="729" y="834" on="0"/>
        <pt x="812" y="1101" on="0"/>
        <pt x="812" y="1277" on="1"/>
        <pt x="812" y="1327" on="0"/>
        <pt x="778" y="1423" on="0"/>
        <pt x="750" y="1467" on="0"/>
        <pt x="724" y="1503" on="1"/>
        <pt x="724" y="1504" on="1"/>
        <pt x="724" y="1507" on="0"/>
        <pt x="729" y="1518" on="0"/>
        <pt x="745" y="1536" on="0"/>
        <pt x="768" y="1551" on="0"/>
        <pt x="810" y="1562" on="0"/>
        <pt x="836" y="1562" on="1"/>
        <pt x="864" y="1562" on="0"/>
        <pt x="914" y="1540" on="0"/>
        <pt x="947" y="1510" on="0"/>
        <pt x="972" y="1479" on="0"/>
        <pt x="978" y="1468" on="1"/>
        <pt x="983" y="1457" on="1"/>
        <pt x="985" y="1461" on="0"/>
        <pt x="991" y="1475" on="0"/>
        <pt x="1015" y="1512" on="0"/>
        <pt x="1045" y="1539" on="0"/>
        <pt x="1095" y="1562" on="0"/>
        <pt x="1153" y="1562" on="0"/>
        <pt x="1198" y="1550" on="0"/>
        <pt x="1222" y="1532" on="0"/>
        <pt x="1238" y="1515" on="0"/>
        <pt x="1240" y="1509" on="1"/>
        <pt x="1243" y="1503" on="1"/>
        <pt x="1180" y="1427" on="0"/>
        <pt x="1180" y="1310" on="1"/>
        <pt x="1180" y="1243" on="0"/>
        <pt x="1252" y="854" on="0"/>
        <pt x="1344" y="418" on="0"/>
        <pt x="1352" y="368" on="1"/>
        <pt x="1384" y="535" on="0"/>
        <pt x="1384" y="604" on="1"/>
        <pt x="1384" y="659" on="0"/>
        <pt x="1370" y="723" on="0"/>
        <pt x="1357" y="748" on="0"/>
        <pt x="1357" y="753" on="1"/>
        <pt x="1359" y="759" on="0"/>
        <pt x="1368" y="782" on="0"/>
        <pt x="1392" y="854" on="0"/>
        <pt x="1414" y="927" on="0"/>
        <pt x="1440" y="1032" on="0"/>
        <pt x="1459" y="1131" on="0"/>
        <pt x="1472" y="1243" on="0"/>
        <pt x="1472" y="1292" on="1"/>
        <pt x="1472" y="1432" on="0"/>
        <pt x="1419" y="1503" on="1"/>
        <pt x="1420" y="1505" on="0"/>
        <pt x="1422" y="1513" on="0"/>
        <pt x="1435" y="1534" on="0"/>
        <pt x="1451" y="1549" on="0"/>
        <pt x="1482" y="1562" on="0"/>
        <pt x="1500" y="1562" on="1"/>
        <pt x="1532" y="1562" on="0"/>
        <pt x="1587" y="1540" on="0"/>
        <pt x="1618" y="1510" on="0"/>
        <pt x="1641" y="1479" on="0"/>
        <pt x="1645" y="1468" on="1"/>
        <pt x="1649" y="1457" on="1"/>
        <pt x="1659" y="1469" on="0"/>
        <pt x="1691" y="1504" on="0"/>
        <pt x="1777" y="1562" on="0"/>
        <pt x="1811" y="1562" on="1"/>
        <pt x="1840" y="1562" on="0"/>
        <pt x="1874" y="1541" on="0"/>
        <pt x="1881" y="1521" on="0"/>
        <pt x="1881" y="1510" on="1"/>
        <pt x="1881" y="1503" on="1"/>
        <pt x="1795" y="1420" on="0"/>
        <pt x="1696" y="1099" on="0"/>
        <pt x="1696" y="910" on="1"/>
        <pt x="1696" y="838" on="0"/>
        <pt x="1716" y="763" on="0"/>
      </contour>
    </TTGlyph>
    <TTGlyph name="X" xMin="8" yMin="-50" xMax="1188" yMax="1562">
      <contour>
        <pt x="593" y="519" on="1"/>
        <pt x="523" y="311" on="1"/>
        <pt x="469" y="176" on="0"/>
        <pt x="469" y="95" on="1"/>
        <pt x="469" y="53" on="0"/>
        <pt x="477" y="10" on="1"/>
        <pt x="473" y="3" on="0"/>
        <pt x="458" y="-17" on="0"/>
        <pt x="398" y="-50" on="0"/>
        <pt x="361" y="-50" on="1"/>
        <pt x="325" y="-50" on="0"/>
        <pt x="283" y="2" on="0"/>
        <pt x="280" y="28" on="1"/>
        <pt x="277" y="55" on="1"/>
        <pt x="273" y="51" on="0"/>
        <pt x="260" y="37" on="0"/>
        <pt x="221" y="0" on="0"/>
        <pt x="182" y="-27" on="0"/>
        <pt x="130" y="-50" on="0"/>
        <pt x="108" y="-50" on="1"/>
        <pt x="9" y="-50" on="0"/>
        <pt x="9" y="-9" on="1"/>
        <pt x="14" y="10" on="1"/>
        <pt x="88" y="76" on="0"/>
        <pt x="187" y="230" on="0"/>
        <pt x="248" y="375" on="1"/>
        <pt x="360" y="641" on="1"/>
        <pt x="344" y="669" on="0"/>
        <pt x="303" y="721" on="0"/>
        <pt x="282" y="748" on="0"/>
        <pt x="282" y="756" on="1"/>
        <pt x="282" y="768" on="0"/>
        <pt x="300" y="790" on="0"/>
        <pt x="342" y="837" on="0"/>
        <pt x="360" y="868" on="1"/>
        <pt x="242" y="1148" on="1"/>
        <pt x="181" y="1290" on="0"/>
        <pt x="86" y="1437" on="0"/>
        <pt x="13" y="1503" on="1"/>
        <pt x="8" y="1510" on="0"/>
        <pt x="8" y="1520" on="1"/>
        <pt x="8" y="1562" on="0"/>
        <pt x="106" y="1562" on="1"/>
        <pt x="130" y="1562" on="0"/>
        <pt x="184" y="1540" on="0"/>
        <pt x="227" y="1510" on="0"/>
        <pt x="264" y="1479" on="0"/>
        <pt x="274" y="1468" on="1"/>
        <pt x="285" y="1457" on="1"/>
        <pt x="285" y="1461" on="0"/>
        <pt x="287" y="1475" on="0"/>
        <pt x="298" y="1512" on="0"/>
        <pt x="316" y="1539" on="0"/>
        <pt x="355" y="1562" on="0"/>
        <pt x="381" y="1562" on="1"/>
        <pt x="412" y="1562" on="0"/>
        <pt x="459" y="1532" on="0"/>
        <pt x="467" y="1518" on="1"/>
        <pt x="475" y="1503" on="1"/>
        <pt x="465" y="1447" on="0"/>
        <pt x="465" y="1417" on="1"/>
        <pt x="465" y="1358" on="0"/>
        <pt x="516" y="1212" on="1"/>
        <pt x="593" y="991" on="1"/>
        <pt x="681" y="1212" on="1"/>
        <pt x="732" y="1327" on="0"/>
        <pt x="732" y="1409" on="1"/>
        <pt x="732" y="1448" on="0"/>
        <pt x="721" y="1503" on="1"/>
        <pt x="722" y="1505" on="0"/>
        <pt x="726" y="1513" on="0"/>
        <pt x="743" y="1534" on="0"/>
        <pt x="763" y="1549" on="0"/>
        <pt x="797" y="1562" on="0"/>
        <pt x="816" y="1562" on="1"/>
        <pt x="841" y="1562" on="0"/>
        <pt x="879" y="1540" on="0"/>
        <pt x="897" y="1510" on="0"/>
        <pt x="909" y="1479" on="0"/>
        <pt x="910" y="1468" on="1"/>
        <pt x="911" y="1457" on="1"/>
        <pt x="922" y="1469" on="0"/>
        <pt x="958" y="1504" on="0"/>
        <pt x="1053" y="1562" on="0"/>
        <pt x="1090" y="1562" on="1"/>
        <pt x="1188" y="1562" on="0"/>
        <pt x="1188" y="1520" on="1"/>
        <pt x="1183" y="1503" on="1"/>
        <pt x="1114" y="1442" on="0"/>
        <pt x="1028" y="1303" on="0"/>
        <pt x="953" y="1148" on="1"/>
        <pt x="814" y="862" on="1"/>
        <pt x="832" y="833" on="0"/>
        <pt x="872" y="789" on="0"/>
        <pt x="890" y="768" on="0"/>
        <pt x="890" y="756" on="1"/>
        <pt x="890" y="748" on="0"/>
        <pt x="870" y="723" on="0"/>
        <pt x="830" y="674" on="0"/>
        <pt x="814" y="648" on="1"/>
        <pt x="946" y="375" on="1"/>
        <pt x="956" y="356" on="0"/>
        <pt x="1002" y="265" on="0"/>
        <pt x="1017" y="236" on="0"/>
        <pt x="1054" y="168" on="0"/>
        <pt x="1072" y="141" on="0"/>
        <pt x="1104" y="91" on="0"/>
        <pt x="1130" y="63" on="0"/>
        <pt x="1163" y="26" on="0"/>
        <pt x="1182" y="10" on="1"/>
        <pt x="1188" y="2" on="0"/>
        <pt x="1188" y="-9" on="1"/>
        <pt x="1188" y="-50" on="0"/>
        <pt x="1089" y="-50" on="1"/>
        <pt x="1054" y="-50" on="0"/>
        <pt x="969" y="2" on="0"/>
        <pt x="944" y="28" on="1"/>
        <pt x="919" y="55" on="1"/>
        <pt x="919" y="51" on="0"/>
        <pt x="917" y="37" on="0"/>
        <pt x="906" y="0" on="0"/>
        <pt x="888" y="-27" on="0"/>
        <pt x="850" y="-50" on="0"/>
        <pt x="825" y="-50" on="1"/>
        <pt x="804" y="-50" on="0"/>
        <pt x="766" y="-38" on="0"/>
        <pt x="743" y="-20" on="0"/>
        <pt x="726" y="-2" on="0"/>
        <pt x="722" y="4" on="1"/>
        <pt x="719" y="10" on="1"/>
        <pt x="729" y="60" on="0"/>
        <pt x="729" y="106" on="1"/>
        <pt x="729" y="165" on="0"/>
        <pt x="673" y="311" on="1"/>
      </contour>
    </TTGlyph>
</ttFont>
